<?xml version="1.0" encoding="UTF-8"?>
<svg width="197px" height="61px" viewBox="0 0 197 61" version="1.1" xmlns="http://www.w3.org/2000/svg" xmlns:xlink="http://www.w3.org/1999/xlink">
    <!-- Generator: Sketch 52.6 (67491) - http://www.bohemiancoding.com/sketch -->
    <title>Group 2 Copy</title>
    <desc>Created with Sketch.</desc>
    <g id="Page-1" stroke="none" stroke-width="1" fill="none" fill-rule="evenodd" opacity="0.5">
        <g id="Artboard" transform="translate(-119.000000, -650.000000)" fill="#000000">
            <g id="Group-2-Copy" transform="translate(118.000000, 646.000000)">
                <path d="M176.777784,33.4021348 C177.21607,32.5666262 177.762804,31.8049172 178.417987,31.1170047 C180.397131,29.0389912 183.108899,28 186.553371,28 C189.997844,28 193.527899,28.3463304 197.143644,29.0390016 L196.001835,38.274571 C192.233849,37.3894912 189.645776,36.9469579 188.237539,36.9469579 C186.448697,36.9469579 185.554289,37.6780998 185.554289,39.1404056 C185.554289,39.7176316 185.982463,40.2756083 186.838823,40.8143526 C187.695184,41.3530968 188.732316,41.9206938 189.950251,42.5171607 C191.168186,43.1136275 192.386103,43.8255289 193.604038,44.6528861 C194.821973,45.4802433 195.859105,46.6635388 196.715466,48.2028081 C197.571826,49.7420774 198,51.5122105 198,53.5132605 C198,57.169025 197.029473,59.9973899 195.088389,61.9984399 C193.147305,63.99949 190.397477,65 186.838823,65 C183.28017,65 179.807204,64.4420233 176.419822,63.326053 L176.642696,60.2737075 C174.946422,63.0397625 171.782914,64.4227769 167.152145,64.4227769 L154.573223,64.4227769 L145.039123,64.4227769 L143.954405,58.7659906 L137.217736,58.7659906 L136.133018,64.4227769 L130.861669,64.4227769 L112.821097,64.4227769 L112.821097,37.2932917 L107.77811,37.2932917 L107.77811,64.4227769 L98.0156492,64.4227769 L98.0156492,37.2932917 L93.3353648,37.2932917 C93.9689512,39.7223564 94.2857418,42.6758071 94.2857418,46.1536661 C94.2857418,52.5608745 93.1820048,57.3036768 90.9744976,60.3822153 C88.7669904,63.4607538 85.1893601,65 80.2414992,65 C75.2936383,65 71.7350379,63.4799944 69.5655912,60.4399376 C67.8006363,57.9666971 66.7536323,54.379204 66.4245617,49.677382 C66.3443419,49.7655788 66.2622301,49.8512772 66.1782264,49.9344774 C64.3132634,51.7816005 61.4397412,52.7051482 57.5575734,52.7051482 L54.9314142,52.7051482 L54.9314142,64.4227769 L45.8350076,64.4227769 L26.6526275,64.4227769 L26.6526275,53.1155636 C24.9674107,60.6537351 20.3367664,64.4227769 12.7606259,64.4227769 L1,64.4227769 L1,28.5772231 L12.9889876,28.5772231 C18.2032717,28.5772231 21.9045968,30.0491272 24.0930737,32.9929797 C25.2543853,34.5551301 26.1075683,36.4829769 26.6526275,38.7765392 L26.6526275,28.5772231 L46.4059118,28.5772231 L56.9295788,28.5772231 C61.0020489,28.5772231 64.0278108,29.5200114 66.0069551,31.4056162 C66.9319079,32.2868533 67.6407192,33.4328385 68.133392,34.8435811 C68.5420467,33.8938739 69.0194463,33.0557387 69.5655912,32.3291732 C71.7730984,29.4430433 75.3697587,28 80.35568,28 C85.3416014,28 88.9097168,29.4238027 91.0601332,32.2714509 C91.1418706,32.37969 91.2220546,32.4905005 91.3006851,32.6038822 L91.564432,28.5772231 L114.971503,28.5772231 L122.583559,28.5772231 L122.583559,56.399376 L128.512412,56.399376 L133.563949,28.5772231 L148.064915,28.5772231 L153.164992,56.666722 L153.164992,28.5772231 L166.866692,28.5772231 C170.482437,28.5772231 173.16566,29.3179853 174.916441,30.799532 C175.722398,31.4815492 176.342845,32.3490811 176.777784,33.4021348 Z M175.972838,43.0720277 C175.361548,43.9056498 174.571724,44.6346295 173.603362,45.2589704 L173.603362,45.6053042 C176.610139,46.7982379 178.113505,49.6266027 178.113505,54.0904836 C178.113505,54.4094812 178.105669,54.7210922 178.089996,55.0253166 C181.607762,56.0183238 184.095838,56.5148206 185.554289,56.5148206 C187.152829,56.5148206 187.952087,55.8029192 187.952087,54.3790952 C187.952087,53.6479423 187.523913,52.9745221 186.667552,52.3588144 C185.811192,51.7431066 184.774059,51.1274082 183.556124,50.5117005 C182.33819,49.8959928 181.110758,49.1840914 179.873793,48.375975 C178.636827,47.5678587 177.59018,46.3941835 176.73382,44.8549142 C176.424179,44.2983488 176.170518,43.7040541 175.972838,43.0720277 Z M45.3402241,37.4087363 L36.4150888,37.4087363 L36.4150888,42.7769111 L43.269225,42.7769111 L39.6222992,50.3962559 L36.4150888,50.3962559 L36.4150888,56.3416537 L45.3402241,56.3416537 L45.3402241,37.4087363 Z M12.5893547,56.1107644 C14.6065595,56.1107644 15.910111,55.3892428 16.5000482,53.9461778 C17.0899855,52.5031129 17.3849497,50.0788002 17.3849497,46.6731669 C17.3849497,43.2675337 17.0709555,40.8528412 16.4429578,39.4290172 C15.8149601,38.0051931 14.4733487,37.2932917 12.4180834,37.2932917 L10.7053709,37.2932917 L10.7053709,56.1107644 L12.5893547,56.1107644 Z M58.6422913,44.9126365 C58.9848355,44.2584471 59.1561051,43.0847719 59.1561051,41.3915757 C59.1561051,39.6983795 58.9658056,38.5054637 58.5852009,37.8127925 C58.2045962,37.1201213 57.4433983,36.773791 56.3015842,36.773791 L54.9314142,36.773791 L54.9314142,45.8939158 L56.5299459,45.8939158 C57.595639,45.8939158 58.2997471,45.5668259 58.6422913,44.9126365 Z M84.4661901,46.1825273 C84.4661901,42.642208 84.1902558,40.2467561 83.638379,38.9960998 C83.0865022,37.7454436 81.9637353,37.1201248 80.2700444,37.1201248 C78.5763536,37.1201248 77.4821315,37.7454436 76.9873454,38.9960998 C76.4925593,40.2467561 76.24517,42.6229674 76.24517,46.124805 L76.24517,47.5101404 C76.24517,51.2428684 76.5211043,53.696042 77.0729811,54.8697348 C77.6248578,56.0434276 78.7476248,56.6302652 80.4413157,56.6302652 C82.1350065,56.6302652 83.2292286,56.0722885 83.7240146,54.9563183 C84.2188007,53.840348 84.4661901,51.5314788 84.4661901,48.0296412 L84.4661901,46.1825273 Z M142.869687,52.0124805 L140.871522,39.1981279 L140.47189,39.1981279 L138.473725,52.0124805 L142.869687,52.0124805 Z M164.868528,58.0156006 C166.010342,58.0156006 166.781055,57.7558528 167.18069,57.2363495 C167.580325,56.7168461 167.780139,55.6393738 167.780139,54.0039002 C167.780139,52.3684266 167.57081,51.2139919 167.152145,50.5405616 C166.733479,49.8671313 165.972281,49.5304212 164.868528,49.5304212 L163.041635,49.5304212 L163.041635,58.0156006 L164.868528,58.0156006 Z M164.925618,43.9313573 C165.801009,43.9313573 166.409967,43.6619892 166.752512,43.1232449 C167.095056,42.5845007 167.266325,41.6320921 167.266325,40.2659906 C167.266325,38.8998892 167.085541,37.9378603 166.723966,37.3798752 C166.362392,36.8218901 165.743919,36.5429017 164.868528,36.5429017 L163.041635,36.5429017 L163.041635,43.9313573 L164.925618,43.9313573 Z" id="DEPOTLABS"></path>
                <text id="built-by" font-family="RobotoCondensed-Regular, Roboto Condensed" font-size="20" font-style="condensed" font-weight="normal">
                    <tspan x="0.3671875" y="19">built by</tspan>
                </text>
            </g>
        </g>
    </g>
</svg>