<?xml version="1.0" encoding="UTF-8"?>
<svg width="221px" height="295px" viewBox="0 0 221 295" version="1.1" xmlns="http://www.w3.org/2000/svg" xmlns:xlink="http://www.w3.org/1999/xlink">
    <!-- Generator: Sketch 52.6 (67491) - http://www.bohemiancoding.com/sketch -->
    <title>outlines</title>
    <desc>Created with Sketch.</desc>
    <defs>
        <path d="M16.426,57.832 C13.3179845,57.832 10.5800118,57.2893388 8.212,56.204 C5.84398816,55.1186612 4.01867308,53.6016764 2.736,51.653 C1.45332692,49.7043236 0.812,47.4473462 0.812,44.882 C0.812,42.7113225 1.26832877,40.7380089 2.181,38.962 C3.09367123,37.1859911 4.32699223,35.7800052 5.881,34.744 C7.43500777,33.7079948 9.14932396,33.19 11.024,33.19 C12.7506753,33.19 14.2059941,33.6216624 15.39,34.485 C16.5740059,35.3483376 17.3139985,36.544659 17.61,38.074 C15.0446538,38.074 12.997341,38.7523266 11.468,40.109 C9.93865902,41.4656735 9.174,43.3033217 9.174,45.622 C9.174,47.7433439 9.81532692,49.4453269 11.098,50.728 C12.3806731,52.0106731 14.0826561,52.652 16.204,52.652 C18.8186797,52.652 20.9769915,51.7763421 22.679,50.025 C24.3810085,48.2736579 25.232,46.0660133 25.232,43.402 C25.232,41.0833217 24.5906731,38.8880104 23.308,36.816 C22.0253269,34.7439896 20.1013462,32.2280148 17.536,29.268 C14.8719867,26.209318 12.8616734,23.5823443 11.505,21.387 C10.1483265,19.1916557 9.47,16.7866797 9.47,14.172 C9.47,11.6066538 10.1853262,9.30034357 11.616,7.253 C13.0466738,5.20565643 15.0199874,3.59000592 17.536,2.406 C20.0520126,1.22199408 22.8886509,0.63 26.046,0.63 C30.04202,0.63 33.2363214,1.56732396 35.629,3.442 C38.0216786,5.31667604 39.218,7.83265088 39.218,10.99 C39.218,13.0620104 38.7000052,14.7393269 37.664,16.022 C36.6279948,17.3046731 35.2713417,17.946 33.594,17.946 C31.719324,17.946 30.2146723,17.181341 29.08,15.652 C30.017338,14.9613299 30.7573306,14.0486723 31.3,12.914 C31.8426694,11.7793277 32.114,10.5953395 32.114,9.362 C32.114,7.78332544 31.645338,6.52533802 30.708,5.588 C29.770662,4.65066198 28.4880081,4.182 26.86,4.182 C24.8866568,4.182 23.2710063,4.88499297 22.013,6.291 C20.7549937,7.69700703 20.126,9.48532248 20.126,11.656 C20.126,13.6293432 20.6933277,15.4669915 21.828,17.169 C22.9626723,18.8710085 24.7386546,21.0539867 27.156,23.718 C29.1293432,25.8393439 30.7203273,27.664659 31.929,29.194 C33.1376727,30.723341 34.1736623,32.48699 35.037,34.485 C35.9003376,36.48301 36.332,38.6413217 36.332,40.96 C36.332,44.1173491 35.4563421,46.9786538 33.705,49.544 C31.9536579,52.1093462 29.5610152,54.1319926 26.527,55.612 C23.4929848,57.0920074 20.1260185,57.832 16.426,57.832 Z M79.4,43.254 L84.432,19.5 L95.088,19.5 L89.76,44.66 C89.6119993,45.252003 89.538,45.8686635 89.538,46.51 C89.538,48.6806775 90.2779926,49.766 91.758,49.766 C93.1393402,49.766 94.3233284,49.1863391 95.31,48.027 C96.2966716,46.8676609 97.085997,45.2766768 97.678,43.254 L102.71,19.5 L113.44,19.5 L104.412,62.42 C103.425328,67.1560237 101.686346,70.4366575 99.195,72.262 C96.7036542,74.0873425 93.9533484,75 90.944,75 C88.6253217,75 86.5903421,74.2476742 84.839,72.743 C83.0876579,71.2383258 82.212,69.3266783 82.212,67.008 C82.212,64.8373225 82.7546612,63.0613402 83.84,61.68 C84.9253388,60.2986598 86.3313247,59.2133373 88.058,58.424 C89.7846753,57.6346627 92.1033188,56.7960044 95.014,55.908 L95.754,52.652 C93.2379874,55.5133476 90.2286842,56.944 86.726,56.944 C84.3579882,56.944 82.4463406,56.2040074 80.991,54.724 C79.989051,53.7050688 79.3320099,52.3354049 79.0198695,50.6149865 C78.008308,52.1035256 76.9140201,53.2635271 75.737,54.095 C73.0483199,55.9943428 70.3473469,56.944 67.634,56.944 C65.5619896,56.944 63.8970063,56.3643391 62.639,55.205 C61.3809937,54.0456609 60.6286679,52.3560111 60.382,50.136 C58.9513262,52.1586768 57.3603421,53.7989937 55.609,55.057 C53.8576579,56.3150063 51.7733454,56.944 49.356,56.944 C46.5439859,56.944 44.200676,55.9820096 42.326,54.058 C40.451324,52.1339904 39.514,49.1246871 39.514,45.03 C39.514,41.3793151 40.2416594,37.5436868 41.697,33.523 C43.1523406,29.5023132 45.3229856,26.0983473 48.209,23.311 C51.0950144,20.5236527 54.53598,19.13 58.532,19.13 C60.5546768,19.13 62.0593284,19.4753299 63.046,20.166 C64.0326716,20.8566701 64.526,21.7693277 64.526,22.904 L64.526,23.422 L65.34,19.5 L75.996,19.5 L70.668,44.66 C70.4706657,45.4000037 70.372,46.1893291 70.372,47.028 C70.372,49.1493439 71.3833232,50.21 73.406,50.21 C74.7873402,50.21 75.9836616,49.5686731 76.995,48.286 C78.0063384,47.0033269 78.807997,45.3260104 79.4,43.254 Z M54.166,49.766 C55.3993395,49.766 56.6203273,49.1863391 57.829,48.027 C59.0376727,46.8676609 59.8639978,45.2766768 60.308,43.254 L63.86,26.53 C63.86,25.8886635 63.6133358,25.2596698 63.12,24.643 C62.6266642,24.0263303 61.8620052,23.718 60.826,23.718 C58.8526568,23.718 57.0766746,24.8649885 55.498,27.159 C53.9193254,29.4530115 52.6860044,32.2156505 51.798,35.447 C50.9099956,38.6783495 50.466,41.527321 50.466,43.994 C50.466,46.460679 50.8236631,48.0393299 51.539,48.73 C52.2543369,49.4206701 53.1299948,49.766 54.166,49.766 Z M89.242,68.414 C90.1300044,68.414 90.9686627,67.9576712 91.758,67.045 C92.5473373,66.1323288 93.1639978,64.6646768 93.608,62.642 L94.496,58.276 C91.8813203,59.1640044 89.8586738,60.1999941 88.428,61.384 C86.9973262,62.5680059 86.282,64.097324 86.282,65.972 C86.282,66.564003 86.577997,67.1189974 87.17,67.637 C87.762003,68.1550026 88.4526627,68.414 89.242,68.414 Z M184.186976,45.4261945 C184.184992,45.2952784 184.184,45.1632136 184.184,45.03 C184.184,41.3793151 184.911659,37.5436868 186.367,33.523 C187.822341,29.5023132 189.992986,26.0983473 192.879,23.311 C195.765014,20.5236527 199.20598,19.13 203.202,19.13 C205.224677,19.13 206.729328,19.4753299 207.716,20.166 C208.702672,20.8566701 209.196,21.7693277 209.196,22.904 L209.196,23.422 L210.01,19.5 L220.666,19.5 L215.338,44.66 C215.140666,45.4000037 215.042,46.1893291 215.042,47.028 C215.042,48.0146716 215.276331,48.7176646 215.745,49.137 C216.213669,49.5563354 216.990661,49.766 218.076,49.766 C218.76667,49.766 219.309331,49.6673343 219.704,49.47 C218.618661,52.2326805 217.582672,54.1689944 216.596,55.279 C215.609328,56.3890056 214.178676,56.944 212.304,56.944 C210.281323,56.944 208.641006,56.3396727 207.383,55.131 C206.124994,53.9223273 205.348001,52.2326775 205.052,50.062 C202.042652,54.6500229 198.367355,56.944 194.026,56.944 C191.213986,56.944 188.870676,55.9820096 186.996,54.058 C186.111712,53.1504409 185.435987,52.001401 184.968822,50.6108709 C184.011694,52.155057 182.997755,53.3410968 181.927,54.169 C179.534321,56.0190093 177.055346,56.944 174.49,56.944 C171.480652,56.944 169.273007,56.1423414 167.867,54.539 C166.460993,52.9356586 165.758,50.9500118 165.758,48.582 C165.758,47.5459948 165.881332,46.3743399 166.128,45.067 C166.374668,43.7596601 166.633665,42.4893395 166.905,41.256 C167.176335,40.0226605 167.361333,39.2333351 167.46,38.888 C167.854669,37.1613247 168.224665,35.4593417 168.57,33.782 C168.915335,32.1046583 169.088,30.7480052 169.088,29.712 C169.088,27.1959874 168.200009,25.938 166.424,25.938 C165.141327,25.938 164.006672,26.5669937 163.02,27.825 C162.033328,29.0830063 161.244003,30.7233232 160.652,32.746 L155.62,56.5 L144.964,56.5 L150.366,30.97 C150.514001,30.377997 150.588,29.7613365 150.588,29.12 C150.588,26.9493225 149.848007,25.864 148.368,25.864 C146.98666,25.864 145.790338,26.4929937 144.779,27.751 C143.767662,29.0090063 142.966003,30.6739896 142.374,32.746 L137.342,56.5 L126.686,56.5 L134.53,19.5 L145.186,19.5 L144.372,23.348 C146.888013,20.5359859 149.897316,19.13 153.4,19.13 C157.741355,19.13 160.281996,21.2513121 161.022,25.494 C163.735347,21.3006457 167.163979,19.204 171.308,19.204 C173.824013,19.204 175.821993,19.8946598 177.302,21.276 C178.782007,22.6573402 179.522,24.7539859 179.522,27.566 C179.522,28.9966738 179.349335,30.5876579 179.004,32.339 C178.658665,34.0903421 178.165337,36.2239874 177.524,38.74 C177.129331,40.269341 176.771668,41.7616594 176.451,43.217 C176.130332,44.6723406 175.97,45.8193291 175.97,46.658 C175.97,47.6446716 176.191998,48.4093306 176.636,48.952 C177.080002,49.4946694 177.844661,49.766 178.93,49.766 C180.410007,49.766 181.593996,49.235672 182.482,48.175 C183.050329,47.4961631 183.618652,46.5798989 184.186976,45.4261945 Z M198.836,49.766 C200.069339,49.766 201.290327,49.1863391 202.499,48.027 C203.707673,46.8676609 204.533998,45.2766768 204.978,43.254 L208.53,26.53 C208.53,25.8886635 208.283336,25.2596698 207.79,24.643 C207.296664,24.0263303 206.532005,23.718 205.496,23.718 C203.522657,23.718 201.746675,24.8649885 200.168,27.159 C198.589325,29.4530115 197.356004,32.2156505 196.468,35.447 C195.579996,38.6783495 195.136,41.527321 195.136,43.994 C195.136,46.460679 195.493663,48.0393299 196.209,48.73 C196.924337,49.4206701 197.799995,49.766 198.836,49.766 Z M41.438,81.81 C38.0833166,82.9940059 35.5303421,84.8563206 33.779,87.397 C32.0276579,89.9376794 31.152,93.0086487 31.152,96.61 C31.152,98.1886746 31.3246649,99.6316601 31.67,100.939 C32.0153351,102.24634 32.5086635,103.319329 33.15,104.158 C29.9926509,104.158 27.6616742,103.50434 26.157,102.197 C24.6523258,100.88966 23.9,98.8793469 23.9,96.166 C23.9,92.7126494 24.9113232,89.4936816 26.934,86.509 C28.9566768,83.5243184 31.6946494,81.1440089 35.148,79.368 C38.6013506,77.5919911 42.3506464,76.704 46.396,76.704 C47.5306723,76.704 48.5173291,76.7779993 49.356,76.926 C50.1946709,77.0740007 51.1566612,77.3453314 52.242,77.74 L61.122,117.33 L69.41,77.148 L76.588,77.148 L64.526,132.5 L54.314,132.5 L45.73,95.796 L37.294,132.5 L30.264,132.5 L41.438,81.81 Z M166.427295,121.574438 C166.425098,121.443457 166.424,121.311311 166.424,121.178 C166.424,117.773983 167.089993,114.024687 168.422,109.93 C169.754007,105.835313 171.924652,102.295682 174.934,99.311 C177.943348,96.3263184 181.766643,94.834 186.404,94.834 C191.830694,94.834 194.544,97.2019763 194.544,101.938 C194.544,104.70068 193.754675,107.241322 192.176,109.56 C190.597325,111.878678 188.50068,113.740993 185.886,115.147 C183.27132,116.553007 180.484015,117.354666 177.524,117.552 C177.425333,118.637339 177.376,119.377331 177.376,119.772 C177.376,123.866687 178.905318,125.914 181.964,125.914 C183.34534,125.914 184.825325,125.544004 186.404,124.804 C187.982675,124.063996 189.413327,123.126672 190.696,121.992 C189.363993,129.29337 185.096703,132.944 177.894,132.944 C174.292649,132.944 171.480677,131.994343 169.458,130.095 C168.495048,129.190765 167.76132,128.043343 167.256812,126.652724 C166.307329,128.176504 165.302061,129.348592 164.241,130.169 C161.848321,132.019009 159.369346,132.944 156.804,132.944 C153.794652,132.944 151.587007,132.142341 150.181,130.539 C148.774993,128.935659 148.072,126.950012 148.072,124.582 C148.072,123.545995 148.195332,122.37434 148.442,121.067 C148.688668,119.75966 148.947665,118.489339 149.219,117.256 C149.490335,116.022661 149.675333,115.233335 149.774,114.888 C150.168669,113.161325 150.538665,111.459342 150.884,109.782 C151.229335,108.104658 151.402,106.748005 151.402,105.712 C151.402,103.195987 150.514009,101.938 148.738,101.938 C147.455327,101.938 146.320672,102.566994 145.334,103.825 C144.347328,105.083006 143.558003,106.723323 142.966,108.746 L137.934,132.5 L127.278,132.5 L132.68,106.97 C132.828001,106.377997 132.902,105.761337 132.902,105.12 C132.902,102.949322 132.162007,101.864 130.682,101.864 C129.30066,101.864 128.104338,102.492994 127.093,103.751 C126.081662,105.009006 125.280003,106.67399 124.688,108.746 L119.656,132.5 L109,132.5 L109.81901,128.636745 C109.282188,129.20165 108.725519,129.687735 108.149,130.095 C105.46032,131.994343 102.759347,132.944 100.046,132.944 C97.9739896,132.944 96.3090063,132.364339 95.051,131.205 C93.7929937,130.045661 93.0406679,128.356011 92.794,126.136 C91.3633262,128.158677 89.7723421,129.798994 88.021,131.057 C86.2696579,132.315006 84.1853454,132.944 81.768,132.944 C78.9559859,132.944 76.612676,131.98201 74.738,130.058 C72.863324,128.13399 71.926,125.124687 71.926,121.03 C71.926,117.379315 72.6536594,113.543687 74.109,109.523 C75.5643406,105.502313 77.7349856,102.098347 80.621,99.311 C83.5070144,96.5236527 86.94798,95.13 90.944,95.13 C92.9666768,95.13 94.4713284,95.4753299 95.458,96.166 C96.4446716,96.8566701 96.938,97.7693277 96.938,98.904 L96.938,99.422 L97.752,95.5 L108.408,95.5 L103.08,120.66 C102.882666,121.400004 102.784,122.189329 102.784,123.028 C102.784,125.149344 103.795323,126.21 105.818,126.21 C107.19934,126.21 108.395662,125.568673 109.407,124.286 C110.409978,123.01393 111.206729,121.353715 111.797275,119.305305 L116.844,95.5 L127.5,95.5 L126.686,99.348 C129.202013,96.5359859 132.211316,95.13 135.714,95.13 C140.055355,95.13 142.595996,97.2513121 143.336,101.494 C146.049347,97.3006457 149.477979,95.204 153.622,95.204 C156.138013,95.204 158.135993,95.8946598 159.616,97.276 C161.096007,98.6573402 161.836,100.753986 161.836,103.566 C161.836,104.996674 161.663335,106.587658 161.318,108.339 C160.972665,110.090342 160.479337,112.223987 159.838,114.74 C159.443331,116.269341 159.085668,117.761659 158.765,119.217 C158.444332,120.672341 158.284,121.819329 158.284,122.658 C158.284,123.644672 158.505998,124.409331 158.95,124.952 C159.394002,125.494669 160.158661,125.766 161.244,125.766 C162.724007,125.766 163.907996,125.235672 164.796,124.175 C165.339768,123.525499 165.883531,122.658649 166.427295,121.574438 Z M86.578,125.766 C87.8113395,125.766 89.0323273,125.186339 90.241,124.027 C91.4496727,122.867661 92.2759978,121.276677 92.72,119.254 L96.272,102.53 C96.272,101.888663 96.0253358,101.25967 95.532,100.643 C95.0386642,100.02633 94.2740052,99.718 93.238,99.718 C91.2646568,99.718 89.4886746,100.864989 87.91,103.159 C86.3313254,105.453011 85.0980044,108.215651 84.21,111.447 C83.3219956,114.678349 82.878,117.527321 82.878,119.994 C82.878,122.460679 83.2356631,124.03933 83.951,124.73 C84.6663369,125.42067 85.5419948,125.766 86.578,125.766 Z M178.042,114 C179.916676,113.950666 181.680325,113.334006 183.333,112.15 C184.985675,110.965994 186.317662,109.449009 187.329,107.599 C188.340338,105.748991 188.846,103.812677 188.846,101.79 C188.846,99.7673232 188.229339,98.756 186.996,98.756 C185.269325,98.756 183.555009,100.322318 181.853,103.455 C180.150991,106.587682 178.880671,110.102647 178.042,114 Z" id="path-1"></path>
    </defs>
    <g id="Page-1" stroke="none" stroke-width="1" fill="none" fill-rule="evenodd">
        <g id="Outlines" transform="translate(-79.000000, -320.000000)">
            <g id="outlines" transform="translate(79.000000, 320.000000)">
                <g id="Group-2" transform="translate(19.000000, 261.000000)">
                    <rect id="Rectangle" stroke="#FFFFFF" stroke-width="2" x="1" y="1" width="175" height="32" rx="15"></rect>
                    <path d="M29.8876953,18.6582031 C29.8212887,19.5761765 29.4824249,20.2988255 28.8710938,20.8261719 C28.2597626,21.3535183 27.4541066,21.6171875 26.4541016,21.6171875 C25.3603461,21.6171875 24.5000031,21.2490271 23.8730469,20.5126953 C23.2460906,19.7763635 22.9326172,18.7656314 22.9326172,17.4804688 L22.9326172,16.9589844 C22.9326172,16.1386678 23.077147,15.4160188 23.3662109,14.7910156 C23.6552749,14.1660125 24.0683567,13.6865251 24.6054688,13.3525391 C25.1425808,13.018553 25.766598,12.8515625 26.4775391,12.8515625 C27.461919,12.8515625 28.2548798,13.1152317 28.8564453,13.6425781 C29.4580108,14.1699245 29.8056636,14.9101515 29.8994141,15.8632812 L28.1416016,15.8632812 C28.0986326,15.3124972 27.9453138,14.9130872 27.6816406,14.6650391 C27.4179674,14.4169909 27.0166043,14.2929688 26.4775391,14.2929688 C25.8915986,14.2929688 25.4531265,14.5029276 25.1621094,14.9228516 C24.8710923,15.3427755 24.7216797,15.9941362 24.7138672,16.8769531 L24.7138672,17.5214844 C24.7138672,18.443364 24.8535142,19.1171854 25.1328125,19.5429688 C25.4121108,19.9687521 25.8525361,20.1816406 26.4541016,20.1816406 C26.997073,20.1816406 27.4023424,20.0576184 27.6699219,19.8095703 C27.9375013,19.5615222 28.0908201,19.177737 28.1298828,18.6582031 L29.8876953,18.6582031 Z M32.7998047,20.0878906 L36.5322266,20.0878906 L36.5322266,21.5 L31.0419922,21.5 L31.0419922,12.96875 L32.7998047,12.96875 L32.7998047,20.0878906 Z M39.4091797,21.5 L37.6513672,21.5 L37.6513672,12.96875 L39.4091797,12.96875 L39.4091797,21.5 Z M47.7353516,18.6582031 C47.668945,19.5761765 47.3300812,20.2988255 46.71875,20.8261719 C46.1074188,21.3535183 45.3017628,21.6171875 44.3017578,21.6171875 C43.2080023,21.6171875 42.3476594,21.2490271 41.7207031,20.5126953 C41.0937469,19.7763635 40.7802734,18.7656314 40.7802734,17.4804688 L40.7802734,16.9589844 C40.7802734,16.1386678 40.9248032,15.4160188 41.2138672,14.7910156 C41.5029311,14.1660125 41.9160129,13.6865251 42.453125,13.3525391 C42.9902371,13.018553 43.6142543,12.8515625 44.3251953,12.8515625 C45.3095752,12.8515625 46.1025361,13.1152317 46.7041016,13.6425781 C47.3056671,14.1699245 47.6533198,14.9101515 47.7470703,15.8632812 L45.9892578,15.8632812 C45.9462888,15.3124972 45.7929701,14.9130872 45.5292969,14.6650391 C45.2656237,14.4169909 44.8642605,14.2929688 44.3251953,14.2929688 C43.7392549,14.2929688 43.3007827,14.5029276 43.0097656,14.9228516 C42.7187485,15.3427755 42.569336,15.9941362 42.5615234,16.8769531 L42.5615234,17.5214844 C42.5615234,18.443364 42.7011705,19.1171854 42.9804688,19.5429688 C43.259767,19.9687521 43.7001923,20.1816406 44.3017578,20.1816406 C44.8447293,20.1816406 45.2499987,20.0576184 45.5175781,19.8095703 C45.7851576,19.5615222 45.9384764,19.177737 45.9775391,18.6582031 L47.7353516,18.6582031 Z M51.5615234,18.078125 L50.6474609,19.0625 L50.6474609,21.5 L48.8896484,21.5 L48.8896484,12.96875 L50.6474609,12.96875 L50.6474609,16.8359375 L51.4208984,15.7753906 L53.5947266,12.96875 L55.7568359,12.96875 L52.7275391,16.7597656 L55.8447266,21.5 L53.7529297,21.5 L51.5615234,18.078125 Z M66.5029297,17.4277344 C66.5029297,18.2675823 66.3544937,19.0039031 66.0576172,19.6367188 C65.7607407,20.2695344 65.3359403,20.7578108 64.7832031,21.1015625 C64.230466,21.4453142 63.5966833,21.6171875 62.8818359,21.6171875 C62.1748012,21.6171875 61.5439481,21.4472673 60.9892578,21.1074219 C60.4345675,20.7675764 60.0048843,20.2822297 59.7001953,19.6513672 C59.3955063,19.0205047 59.241211,18.294926 59.2373047,17.4746094 L59.2373047,17.0527344 C59.2373047,16.2128864 59.3886704,15.473636 59.6914062,14.8349609 C59.9941421,14.1962859 60.4218722,13.7060564 60.9746094,13.3642578 C61.5273465,13.0224592 62.1591761,12.8515625 62.8701172,12.8515625 C63.5810582,12.8515625 64.2128879,13.0224592 64.765625,13.3642578 C65.3183621,13.7060564 65.7460922,14.1962859 66.0488281,14.8349609 C66.351564,15.473636 66.5029297,16.2109333 66.5029297,17.046875 L66.5029297,17.4277344 Z M64.7216797,17.0410156 C64.7216797,16.1464799 64.561525,15.4667992 64.2412109,15.0019531 C63.9208968,14.5371071 63.4638702,14.3046875 62.8701172,14.3046875 C62.2802705,14.3046875 61.8251969,14.5341774 61.5048828,14.9931641 C61.1845687,15.4521507 61.022461,16.1249956 61.0185547,17.0117188 L61.0185547,17.4277344 C61.0185547,18.2988325 61.1787093,18.974607 61.4990234,19.4550781 C61.8193375,19.9355493 62.2802704,20.1757812 62.8818359,20.1757812 C63.4716826,20.1757812 63.9248031,19.9443383 64.2412109,19.4814453 C64.5576188,19.0185524 64.7177734,18.3437544 64.7216797,17.4570312 L64.7216797,17.0410156 Z M70.9384766,18.3769531 L69.5380859,18.3769531 L69.5380859,21.5 L67.7802734,21.5 L67.7802734,12.96875 L70.9501953,12.96875 C71.9580129,12.96875 72.7353488,13.1933571 73.2822266,13.6425781 C73.8291043,14.0917991 74.1025391,14.7265584 74.1025391,15.546875 C74.1025391,16.1289092 73.9765638,16.6142559 73.7246094,17.0029297 C73.472655,17.3916035 73.0908229,17.7011707 72.5791016,17.9316406 L74.4248047,21.4179688 L74.4248047,21.5 L72.5380859,21.5 L70.9384766,18.3769531 Z M69.5380859,16.953125 L70.9560547,16.953125 C71.3974631,16.953125 71.7392566,16.8408214 71.9814453,16.6162109 C72.223634,16.3916004 72.3447266,16.0820332 72.3447266,15.6875 C72.3447266,15.2851542 72.2304699,14.9687512 72.0019531,14.7382812 C71.7734364,14.5078113 71.4228539,14.3925781 70.9501953,14.3925781 L69.5380859,14.3925781 L69.5380859,16.953125 Z M84.4970703,14.3925781 L81.8837891,14.3925781 L81.8837891,21.5 L80.1259766,21.5 L80.1259766,14.3925781 L77.5478516,14.3925781 L77.5478516,12.96875 L84.4970703,12.96875 L84.4970703,14.3925781 Z M89.6123047,19.7421875 L86.5302734,19.7421875 L85.9443359,21.5 L84.0751953,21.5 L87.2509766,12.96875 L88.8798828,12.96875 L92.0732422,21.5 L90.2041016,21.5 L89.6123047,19.7421875 Z M87.0048828,18.3183594 L89.1376953,18.3183594 L88.0654297,15.125 L87.0048828,18.3183594 Z M94.6279297,18.4941406 L94.6279297,21.5 L92.8701172,21.5 L92.8701172,12.96875 L96.1982422,12.96875 C96.8388704,12.96875 97.4023413,13.0859363 97.8886719,13.3203125 C98.3750024,13.5546887 98.7490221,13.8876932 99.0107422,14.3193359 C99.2724622,14.7509787 99.4033203,15.2421847 99.4033203,15.7929688 C99.4033203,16.6289104 99.1171904,17.2880835 98.5449219,17.7705078 C97.9726534,18.2529321 97.1806691,18.4941406 96.1689453,18.4941406 L94.6279297,18.4941406 Z M94.6279297,17.0703125 L96.1982422,17.0703125 C96.6630883,17.0703125 97.0175769,16.9609386 97.2617188,16.7421875 C97.5058606,16.5234364 97.6279297,16.2109395 97.6279297,15.8046875 C97.6279297,15.3867167 97.504884,15.0488294 97.2587891,14.7910156 C97.0126941,14.5332018 96.6728537,14.4003907 96.2392578,14.3925781 L94.6279297,14.3925781 L94.6279297,17.0703125 Z M109.668945,14.3925781 L107.055664,14.3925781 L107.055664,21.5 L105.297852,21.5 L105.297852,14.3925781 L102.719727,14.3925781 L102.719727,12.96875 L109.668945,12.96875 L109.668945,14.3925781 Z M117.514648,17.4277344 C117.514648,18.2675823 117.366212,19.0039031 117.069336,19.6367188 C116.772459,20.2695344 116.347659,20.7578108 115.794922,21.1015625 C115.242185,21.4453142 114.608402,21.6171875 113.893555,21.6171875 C113.18652,21.6171875 112.555667,21.4472673 112.000977,21.1074219 C111.446286,20.7675764 111.016603,20.2822297 110.711914,19.6513672 C110.407225,19.0205047 110.25293,18.294926 110.249023,17.4746094 L110.249023,17.0527344 C110.249023,16.2128864 110.400389,15.473636 110.703125,14.8349609 C111.005861,14.1962859 111.433591,13.7060564 111.986328,13.3642578 C112.539065,13.0224592 113.170895,12.8515625 113.881836,12.8515625 C114.592777,12.8515625 115.224607,13.0224592 115.777344,13.3642578 C116.330081,13.7060564 116.757811,14.1962859 117.060547,14.8349609 C117.363283,15.473636 117.514648,16.2109333 117.514648,17.046875 L117.514648,17.4277344 Z M115.733398,17.0410156 C115.733398,16.1464799 115.573244,15.4667992 115.25293,15.0019531 C114.932616,14.5371071 114.475589,14.3046875 113.881836,14.3046875 C113.291989,14.3046875 112.836916,14.5341774 112.516602,14.9931641 C112.196287,15.4521507 112.03418,16.1249956 112.030273,17.0117188 L112.030273,17.4277344 C112.030273,18.2988325 112.190428,18.974607 112.510742,19.4550781 C112.831056,19.9355493 113.291989,20.1757812 113.893555,20.1757812 C114.483401,20.1757812 114.936522,19.9443383 115.25293,19.4814453 C115.569338,19.0185524 115.729492,18.3437544 115.733398,17.4570312 L115.733398,17.0410156 Z M121.780273,21.5 L121.780273,12.96875 L124.768555,12.96875 C125.803716,12.96875 126.588865,13.1669902 127.124023,13.5634766 C127.659182,13.9599629 127.926758,14.5410118 127.926758,15.3066406 C127.926758,15.7246115 127.819337,16.0927718 127.604492,16.4111328 C127.389647,16.7294938 127.090822,16.9628899 126.708008,17.1113281 C127.14551,17.2207037 127.490233,17.4414046 127.742188,17.7734375 C127.994142,18.1054704 128.120117,18.5117163 128.120117,18.9921875 C128.120117,19.8125041 127.858401,20.4335916 127.334961,20.8554688 C126.811521,21.2773459 126.065435,21.4921875 125.09668,21.5 L121.780273,21.5 Z M123.538086,17.7851562 L123.538086,20.0878906 L125.043945,20.0878906 C125.45801,20.0878906 125.781249,19.9892588 126.013672,19.7919922 C126.246095,19.5947256 126.362305,19.3222674 126.362305,18.9746094 C126.362305,18.1933555 125.958012,17.7968751 125.149414,17.7851562 L123.538086,17.7851562 Z M123.538086,16.5429688 L124.838867,16.5429688 C125.72559,16.5273437 126.168945,16.1738316 126.168945,15.4824219 C126.168945,15.0957012 126.056642,14.8173837 125.832031,14.6474609 C125.607421,14.4775382 125.252932,14.3925781 124.768555,14.3925781 L123.538086,14.3925781 L123.538086,16.5429688 Z M134.571289,17.8027344 L131.196289,17.8027344 L131.196289,20.0878906 L135.157227,20.0878906 L135.157227,21.5 L129.438477,21.5 L129.438477,12.96875 L135.145508,12.96875 L135.145508,14.3925781 L131.196289,14.3925781 L131.196289,16.4257812 L134.571289,16.4257812 L134.571289,17.8027344 Z M142.938477,20.421875 C142.622069,20.8007831 142.174808,21.0947255 141.59668,21.3037109 C141.018552,21.5126964 140.377933,21.6171875 139.674805,21.6171875 C138.93652,21.6171875 138.289065,21.4560563 137.732422,21.1337891 C137.175778,20.8115218 136.746095,20.3437531 136.443359,19.7304688 C136.140623,19.1171844 135.985352,18.3964885 135.977539,17.5683594 L135.977539,16.9882812 C135.977539,16.1367145 136.121092,15.3994172 136.408203,14.7763672 C136.695314,14.1533172 137.109372,13.6767595 137.650391,13.3466797 C138.191409,13.0165999 138.825192,12.8515625 139.551758,12.8515625 C140.563482,12.8515625 141.354489,13.092771 141.924805,13.5751953 C142.49512,14.0576196 142.833007,14.759761 142.938477,15.6816406 L141.227539,15.6816406 C141.149414,15.1933569 140.976564,14.8359386 140.708984,14.609375 C140.441405,14.3828114 140.073245,14.2695312 139.604492,14.2695312 C139.006833,14.2695312 138.551759,14.4941384 138.239258,14.9433594 C137.926756,15.3925804 137.768555,16.0605424 137.764648,16.9472656 L137.764648,17.4921875 C137.764648,18.3867232 137.934569,19.0624977 138.274414,19.5195312 C138.61426,19.9765648 139.112301,20.2050781 139.768555,20.2050781 C140.428714,20.2050781 140.899413,20.0644545 141.180664,19.7832031 L141.180664,18.3125 L139.581055,18.3125 L139.581055,17.0175781 L142.938477,17.0175781 L142.938477,20.421875 Z M146.231445,21.5 L144.473633,21.5 L144.473633,12.96875 L146.231445,12.96875 L146.231445,21.5 Z M154.797852,21.5 L153.040039,21.5 L149.618164,15.8867188 L149.618164,21.5 L147.860352,21.5 L147.860352,12.96875 L149.618164,12.96875 L153.045898,18.59375 L153.045898,12.96875 L154.797852,12.96875 L154.797852,21.5 Z" id="CLICK-OR-TAP-TO-BEGI" fill="#FFFFFF"></path>
                </g>
                <g id="Say-ma-Name-Copy">
                    <use fill="#000000" xlink:href="#path-1"></use>
                    <use fill="#FFFFFF" xlink:href="#path-1"></use>
                </g>
                <path d="M36.8105469,177.335938 C38.065436,177.335938 39.0444301,177.580076 39.7475586,178.068359 C40.4506871,178.556643 40.8022461,179.286616 40.8022461,180.258301 C40.8022461,180.751467 40.6716322,181.192137 40.4104004,181.580322 C40.1491686,181.968508 39.7695337,182.260253 39.2714844,182.455566 C39.911136,182.592286 40.3908675,182.885252 40.7106934,183.334473 C41.0305192,183.783694 41.1904297,184.303708 41.1904297,184.894531 C41.1904297,185.915044 40.853519,186.687742 40.1796875,187.212646 C39.505856,187.737551 38.5512757,188 37.315918,188 L32.0717773,188 L32.0717773,186.718262 L33.2070312,186.498535 L33.2070312,178.844727 L32.0717773,178.625 L32.0717773,177.335938 L36.8105469,177.335938 Z M35.3457031,183.283203 L35.3457031,186.359375 L37.315918,186.359375 C37.8823271,186.359375 38.3144516,186.236085 38.6123047,185.989502 C38.9101577,185.742919 39.059082,185.377932 39.059082,184.894531 C39.059082,184.372068 38.9321302,183.972902 38.6782227,183.697021 C38.4243151,183.421141 38.0239285,183.283203 37.4770508,183.283203 L35.3457031,183.283203 Z M35.3457031,181.803711 L36.8837891,181.803711 C37.455081,181.803711 37.8945297,181.686525 38.2021484,181.452148 C38.5097672,181.217772 38.6635742,180.875979 38.6635742,180.426758 C38.6635742,179.933591 38.5085465,179.569825 38.1984863,179.335449 C37.8884262,179.101073 37.4257843,178.983887 36.8105469,178.983887 L35.3457031,178.983887 L35.3457031,181.803711 Z M47.0864258,188 C47.0278317,187.868163 46.9765627,187.732667 46.9326172,187.593506 C46.8886717,187.454345 46.8544923,187.313966 46.8300781,187.172363 C46.5761706,187.465333 46.2673358,187.702148 45.9035645,187.882812 C45.5397931,188.063477 45.1235375,188.153809 44.6547852,188.153809 C43.8784141,188.153809 43.2619652,187.942629 42.8054199,187.520264 C42.3488747,187.097898 42.1206055,186.522953 42.1206055,185.79541 C42.1206055,185.053219 42.4184541,184.479494 43.0141602,184.074219 C43.6098663,183.668943 44.483881,183.466309 45.6362305,183.466309 L46.7275391,183.466309 L46.7275391,182.689941 C46.7275391,182.30908 46.6176769,182.013673 46.3979492,181.803711 C46.1782216,181.593749 45.8535178,181.48877 45.4238281,181.48877 C45.1796863,181.48877 44.9624033,181.516845 44.7719727,181.572998 C44.581542,181.629151 44.427735,181.696289 44.3105469,181.774414 L44.1713867,182.624023 L42.5600586,182.624023 L42.5673828,180.866211 C42.9580098,180.602538 43.4060033,180.380372 43.911377,180.199707 C44.4167506,180.019042 44.9672822,179.928711 45.5629883,179.928711 C46.5444385,179.928711 47.3415497,180.169187 47.9543457,180.650146 C48.5671417,181.131106 48.8735352,181.815914 48.8735352,182.70459 L48.8735352,185.978516 C48.8735352,186.100587 48.8747558,186.215331 48.8771973,186.322754 C48.8796387,186.430176 48.8881835,186.532714 48.902832,186.630371 L49.5546875,186.718262 L49.5546875,188 L47.0864258,188 Z M45.2333984,186.571777 C45.5556657,186.571777 45.8486315,186.502198 46.1123047,186.363037 C46.3759779,186.223876 46.581054,186.049317 46.7275391,185.839355 L46.7275391,184.630859 L45.6362305,184.630859 C45.1821266,184.630859 44.8378918,184.737059 44.6035156,184.949463 C44.3691395,185.161866 44.2519531,185.416991 44.2519531,185.714844 C44.2519531,185.9834 44.3386222,186.193359 44.5119629,186.344727 C44.6853036,186.496095 44.9257797,186.571777 45.2333984,186.571777 Z M57.706543,184.257324 C57.706543,185.438971 57.4428737,186.383786 56.9155273,187.091797 C56.388181,187.799808 55.6264698,188.153809 54.6303711,188.153809 C54.1665016,188.153809 53.7636736,188.057374 53.421875,187.864502 C53.0800764,187.67163 52.7919934,187.392092 52.5576172,187.025879 L52.4038086,188 L50.5581055,188 L50.5581055,178.083008 L49.4228516,177.863281 L49.4228516,176.574219 L52.6894531,176.574219 L52.6894531,180.91748 C52.9189465,180.600096 53.1936019,180.355958 53.5134277,180.185059 C53.8332536,180.014159 54.2006815,179.928711 54.6157227,179.928711 C55.6215871,179.928711 56.388181,180.308346 56.9155273,181.067627 C57.4428737,181.826908 57.706543,182.838861 57.706543,184.103516 L57.706543,184.257324 Z M55.5751953,184.103516 C55.5751953,183.332027 55.4616711,182.720461 55.2346191,182.268799 C55.0075672,181.817136 54.6206082,181.591309 54.0737305,181.591309 C53.7416976,181.591309 53.4609386,181.660888 53.2314453,181.800049 C53.001952,181.93921 52.8212897,182.138182 52.6894531,182.396973 L52.6894531,185.744141 C52.8212897,185.988282 53.0031727,186.173827 53.2351074,186.300781 C53.4670422,186.427735 53.7514632,186.491211 54.0883789,186.491211 C54.6401395,186.491211 55.0258778,186.297121 55.2456055,185.908936 C55.4653331,185.52075 55.5751953,184.970218 55.5751953,184.257324 L55.5751953,184.103516 Z M66.8178711,181.364258 L66.078125,181.474121 L63.1630859,189.186523 C62.9335926,189.757815 62.6271992,190.236326 62.2438965,190.62207 C61.8605938,191.007814 61.283207,191.200684 60.5117188,191.200684 C60.3310538,191.200684 60.1613777,191.186035 60.0026855,191.156738 C59.8439933,191.127441 59.6572276,191.085938 59.4423828,191.032227 L59.6914062,189.472168 C59.759766,189.481934 59.830566,189.491699 59.9038086,189.501465 C59.9770511,189.511231 60.0405271,189.516113 60.0942383,189.516113 C60.4506854,189.516113 60.7241201,189.429444 60.9145508,189.256104 C61.1049814,189.082763 61.2514643,188.866701 61.3540039,188.60791 L61.5957031,188.007324 L59.0834961,181.481445 L58.34375,181.364258 L58.34375,180.075195 L62.2255859,180.075195 L62.2255859,181.364258 L61.3393555,181.510742 L62.4233398,184.674805 L62.5332031,185.246094 L62.5771484,185.253418 L63.8295898,181.510742 L62.9360352,181.364258 L62.9360352,180.075195 L66.8178711,180.075195 L66.8178711,181.364258 Z M82.015625,177.335938 L82.015625,178.625 L80.8730469,178.844727 L80.8730469,188 L78.7416992,188 L74.4350586,180.822266 L74.3911133,180.82959 L74.3911133,186.498535 L75.5336914,186.718262 L75.5336914,188 L71.1171875,188 L71.1171875,186.718262 L72.2524414,186.498535 L72.2524414,178.844727 L71.1171875,178.625 L71.1171875,177.335938 L74.3911133,177.335938 L78.6977539,184.513672 L78.7416992,184.506348 L78.7416992,178.844727 L77.5991211,178.625 L77.5991211,177.335938 L82.015625,177.335938 Z M87.8017578,188 C87.7431638,187.868163 87.6918948,187.732667 87.6479492,187.593506 C87.6040037,187.454345 87.5698243,187.313966 87.5454102,187.172363 C87.2915026,187.465333 86.9826678,187.702148 86.6188965,187.882812 C86.2551251,188.063477 85.8388695,188.153809 85.3701172,188.153809 C84.5937461,188.153809 83.9772972,187.942629 83.520752,187.520264 C83.0642067,187.097898 82.8359375,186.522953 82.8359375,185.79541 C82.8359375,185.053219 83.1337861,184.479494 83.7294922,184.074219 C84.3251983,183.668943 85.199213,183.466309 86.3515625,183.466309 L87.4428711,183.466309 L87.4428711,182.689941 C87.4428711,182.30908 87.3330089,182.013673 87.1132812,181.803711 C86.8935536,181.593749 86.5688498,181.48877 86.1391602,181.48877 C85.8950183,181.48877 85.6777353,181.516845 85.4873047,181.572998 C85.296874,181.629151 85.143067,181.696289 85.0258789,181.774414 L84.8867188,182.624023 L83.2753906,182.624023 L83.2827148,180.866211 C83.6733418,180.602538 84.1213354,180.380372 84.626709,180.199707 C85.1320826,180.019042 85.6826142,179.928711 86.2783203,179.928711 C87.2597705,179.928711 88.0568817,180.169187 88.6696777,180.650146 C89.2824738,181.131106 89.5888672,181.815914 89.5888672,182.70459 L89.5888672,185.978516 C89.5888672,186.100587 89.5900879,186.215331 89.5925293,186.322754 C89.5949707,186.430176 89.6035156,186.532714 89.6181641,186.630371 L90.2700195,186.718262 L90.2700195,188 L87.8017578,188 Z M85.9487305,186.571777 C86.2709977,186.571777 86.5639635,186.502198 86.8276367,186.363037 C87.0913099,186.223876 87.296386,186.049317 87.4428711,185.839355 L87.4428711,184.630859 L86.3515625,184.630859 C85.8974587,184.630859 85.5532238,184.737059 85.3188477,184.949463 C85.0844715,185.161866 84.9672852,185.416991 84.9672852,185.714844 C84.9672852,185.9834 85.0539542,186.193359 85.2272949,186.344727 C85.4006356,186.496095 85.6411117,186.571777 85.9487305,186.571777 Z M90.7460938,181.364258 L90.7460938,180.075195 L93.8735352,180.075195 L93.9614258,181.122559 C94.2153333,180.741697 94.5339336,180.447511 94.9172363,180.23999 C95.300539,180.03247 95.7436498,179.928711 96.246582,179.928711 C96.7543971,179.928711 97.188963,180.041015 97.550293,180.265625 C97.9116229,180.490235 98.1850577,180.829588 98.3706055,181.283691 C98.6147473,180.858885 98.932127,180.526857 99.3227539,180.287598 C99.7133809,180.048339 100.172361,179.928711 100.699707,179.928711 C101.480961,179.928711 102.09741,180.198484 102.549072,180.738037 C103.000735,181.277591 103.226562,182.099116 103.226562,183.202637 L103.226562,186.498535 L104.259277,186.718262 L104.259277,188 L100.165039,188 L100.165039,186.718262 L101.087891,186.498535 L101.087891,183.195312 C101.087891,182.594724 100.990235,182.177247 100.794922,181.942871 C100.599608,181.708495 100.309084,181.591309 99.9233398,181.591309 C99.620604,181.591309 99.3581554,181.658447 99.1359863,181.792725 C98.9138172,181.927003 98.7368171,182.113768 98.6049805,182.353027 C98.6049805,182.445801 98.6074219,182.525146 98.6123047,182.591064 C98.6171875,182.656983 98.6196289,182.724121 98.6196289,182.79248 L98.6196289,186.498535 L99.4838867,186.718262 L99.4838867,188 L95.6240234,188 L95.6240234,186.718262 L96.4882812,186.498535 L96.4882812,183.195312 C96.4882812,182.609372 96.390626,182.195558 96.1953125,181.953857 C95.999999,181.712157 95.7070332,181.591309 95.3164062,181.591309 C95.0283189,181.591309 94.7756359,181.64624 94.5583496,181.756104 C94.3410634,181.865967 94.1616218,182.020995 94.0200195,182.221191 L94.0200195,186.498535 L94.9428711,186.718262 L94.9428711,188 L90.855957,188 L90.855957,186.718262 L91.8886719,186.498535 L91.8886719,181.583984 L90.7460938,181.364258 Z M108.668457,188.153809 C107.525873,188.153809 106.612796,187.787601 105.929199,187.055176 C105.245602,186.32275 104.903809,185.392584 104.903809,184.264648 L104.903809,183.97168 C104.903809,182.794916 105.227292,181.825687 105.874268,181.063965 C106.521243,180.302242 107.389155,179.923828 108.478027,179.928711 C109.547369,179.928711 110.377438,180.250973 110.968262,180.895508 C111.559085,181.540042 111.854492,182.411616 111.854492,183.510254 L111.854492,184.674805 L107.123047,184.674805 L107.108398,184.71875 C107.147461,185.241214 107.32202,185.670897 107.63208,186.007812 C107.94214,186.344728 108.363279,186.513184 108.895508,186.513184 C109.369143,186.513184 109.762205,186.465577 110.074707,186.370361 C110.387209,186.275146 110.729002,186.125001 111.100098,185.919922 L111.678711,187.238281 C111.351561,187.497072 110.927981,187.714355 110.407959,187.890137 C109.887937,188.065919 109.308109,188.153809 108.668457,188.153809 Z M108.478027,181.57666 C108.082518,181.57666 107.770021,181.728026 107.540527,182.030762 C107.311034,182.333498 107.169434,182.731443 107.115723,183.224609 L107.137695,183.26123 L109.759766,183.26123 L109.759766,183.070801 C109.759766,182.616697 109.653566,182.254152 109.441162,181.983154 C109.228759,181.712157 108.907717,181.57666 108.478027,181.57666 Z M125.331055,186.813477 C124.984373,187.155275 124.479007,187.46411 123.814941,187.73999 C123.150876,188.015871 122.31104,188.153809 121.29541,188.153809 C119.854973,188.153809 118.68311,187.671636 117.779785,186.707275 C116.87646,185.742915 116.424805,184.489266 116.424805,182.946289 L116.424805,182.580078 C116.424805,180.98339 116.870357,179.684575 117.761475,178.683594 C118.652592,177.682612 119.815911,177.182129 121.251465,177.182129 C122.08643,177.182129 122.849362,177.315184 123.540283,177.581299 C124.231205,177.847413 124.80615,178.207517 125.265137,178.661621 L125.265137,180.807617 L123.683105,180.807617 L123.382812,179.379395 C123.187499,179.213378 122.929933,179.080323 122.610107,178.980225 C122.290282,178.880126 121.922854,178.830078 121.507812,178.830078 C120.575191,178.830078 119.8501,179.174313 119.33252,179.862793 C118.814939,180.551273 118.556152,181.452143 118.556152,182.56543 L118.556152,182.946289 C118.556152,184.030279 118.810056,184.895749 119.317871,185.542725 C119.825686,186.189701 120.558101,186.513184 121.515137,186.513184 C121.944826,186.513184 122.292723,186.476563 122.558838,186.40332 C122.824953,186.330078 123.033691,186.244629 123.185059,186.146973 L123.185059,184.337891 L121.661621,184.220703 L121.661621,182.719238 L125.331055,182.719238 L125.331055,186.813477 Z M130.245605,188.153809 C129.103022,188.153809 128.189945,187.787601 127.506348,187.055176 C126.82275,186.32275 126.480957,185.392584 126.480957,184.264648 L126.480957,183.97168 C126.480957,182.794916 126.80444,181.825687 127.451416,181.063965 C128.098392,180.302242 128.966303,179.923828 130.055176,179.928711 C131.124517,179.928711 131.954587,180.250973 132.54541,180.895508 C133.136233,181.540042 133.431641,182.411616 133.431641,183.510254 L133.431641,184.674805 L128.700195,184.674805 L128.685547,184.71875 C128.72461,185.241214 128.899168,185.670897 129.209229,186.007812 C129.519289,186.344728 129.940427,186.513184 130.472656,186.513184 C130.946291,186.513184 131.339354,186.465577 131.651855,186.370361 C131.964357,186.275146 132.30615,186.125001 132.677246,185.919922 L133.255859,187.238281 C132.928709,187.497072 132.50513,187.714355 131.985107,187.890137 C131.465085,188.065919 130.885257,188.153809 130.245605,188.153809 Z M130.055176,181.57666 C129.659666,181.57666 129.347169,181.728026 129.117676,182.030762 C128.888182,182.333498 128.746582,182.731443 128.692871,183.224609 L128.714844,183.26123 L131.336914,183.26123 L131.336914,183.070801 C131.336914,182.616697 131.230714,182.254152 131.018311,181.983154 C130.805907,181.712157 130.484865,181.57666 130.055176,181.57666 Z M134.325195,186.718262 L135.350586,186.498535 L135.350586,181.583984 L134.215332,181.364258 L134.215332,180.075195 L137.342773,180.075195 L137.437988,181.210449 C137.701661,180.805174 138.026365,180.490235 138.412109,180.265625 C138.797853,180.041015 139.229978,179.928711 139.708496,179.928711 C140.509281,179.928711 141.134275,180.180173 141.583496,180.683105 C142.032717,181.186038 142.257324,181.974604 142.257324,183.048828 L142.257324,186.498535 L143.282715,186.718262 L143.282715,188 L139.195801,188 L139.195801,186.718262 L140.111328,186.498535 L140.111328,183.056152 C140.111328,182.523923 140.003907,182.14673 139.789062,181.924561 C139.574218,181.702391 139.249514,181.591309 138.814941,181.591309 C138.531737,181.591309 138.277833,181.648681 138.053223,181.763428 C137.828612,181.878174 137.640626,182.040526 137.489258,182.250488 L137.489258,186.498535 L138.353516,186.718262 L138.353516,188 L134.325195,188 L134.325195,186.718262 Z M147.68457,188.153809 C146.541986,188.153809 145.62891,187.787601 144.945312,187.055176 C144.261715,186.32275 143.919922,185.392584 143.919922,184.264648 L143.919922,183.97168 C143.919922,182.794916 144.243405,181.825687 144.890381,181.063965 C145.537357,180.302242 146.405268,179.923828 147.494141,179.928711 C148.563482,179.928711 149.393552,180.250973 149.984375,180.895508 C150.575198,181.540042 150.870605,182.411616 150.870605,183.510254 L150.870605,184.674805 L146.13916,184.674805 L146.124512,184.71875 C146.163574,185.241214 146.338133,185.670897 146.648193,186.007812 C146.958254,186.344728 147.379392,186.513184 147.911621,186.513184 C148.385256,186.513184 148.778319,186.465577 149.09082,186.370361 C149.403322,186.275146 149.745115,186.125001 150.116211,185.919922 L150.694824,187.238281 C150.367674,187.497072 149.944094,187.714355 149.424072,187.890137 C148.90405,188.065919 148.324222,188.153809 147.68457,188.153809 Z M147.494141,181.57666 C147.098631,181.57666 146.786134,181.728026 146.556641,182.030762 C146.327147,182.333498 146.185547,182.731443 146.131836,183.224609 L146.153809,183.26123 L148.775879,183.26123 L148.775879,183.070801 C148.775879,182.616697 148.669679,182.254152 148.457275,181.983154 C148.244872,181.712157 147.92383,181.57666 147.494141,181.57666 Z M152.04248,186.718262 L153.067871,186.498535 L153.067871,181.583984 L151.932617,181.364258 L151.932617,180.075195 L155.060059,180.075195 L155.155273,181.232422 C155.340821,180.822264 155.580077,180.502443 155.873047,180.272949 C156.166017,180.043456 156.505369,179.928711 156.891113,179.928711 C157.003419,179.928711 157.121826,179.937256 157.246338,179.954346 C157.37085,179.971436 157.474609,179.992187 157.557617,180.016602 L157.330566,181.964844 L156.45166,181.942871 C156.139159,181.942871 155.880372,182.003906 155.675293,182.125977 C155.470214,182.248047 155.313965,182.421386 155.206543,182.645996 L155.206543,186.498535 L156.231934,186.718262 L156.231934,188 L152.04248,188 L152.04248,186.718262 Z M163.094727,188 C163.036133,187.868163 162.984864,187.732667 162.940918,187.593506 C162.896972,187.454345 162.862793,187.313966 162.838379,187.172363 C162.584471,187.465333 162.275637,187.702148 161.911865,187.882812 C161.548094,188.063477 161.131838,188.153809 160.663086,188.153809 C159.886715,188.153809 159.270266,187.942629 158.813721,187.520264 C158.357175,187.097898 158.128906,186.522953 158.128906,185.79541 C158.128906,185.053219 158.426755,184.479494 159.022461,184.074219 C159.618167,183.668943 160.492182,183.466309 161.644531,183.466309 L162.73584,183.466309 L162.73584,182.689941 C162.73584,182.30908 162.625978,182.013673 162.40625,181.803711 C162.186522,181.593749 161.861819,181.48877 161.432129,181.48877 C161.187987,181.48877 160.970704,181.516845 160.780273,181.572998 C160.589843,181.629151 160.436036,181.696289 160.318848,181.774414 L160.179688,182.624023 L158.568359,182.624023 L158.575684,180.866211 C158.966311,180.602538 159.414304,180.380372 159.919678,180.199707 C160.425051,180.019042 160.975583,179.928711 161.571289,179.928711 C162.552739,179.928711 163.34985,180.169187 163.962646,180.650146 C164.575443,181.131106 164.881836,181.815914 164.881836,182.70459 L164.881836,185.978516 C164.881836,186.100587 164.883057,186.215331 164.885498,186.322754 C164.887939,186.430176 164.896484,186.532714 164.911133,186.630371 L165.562988,186.718262 L165.562988,188 L163.094727,188 Z M161.241699,186.571777 C161.563966,186.571777 161.856932,186.502198 162.120605,186.363037 C162.384279,186.223876 162.589355,186.049317 162.73584,185.839355 L162.73584,184.630859 L161.644531,184.630859 C161.190427,184.630859 160.846193,184.737059 160.611816,184.949463 C160.37744,185.161866 160.260254,185.416991 160.260254,185.714844 C160.260254,185.9834 160.346923,186.193359 160.520264,186.344727 C160.693604,186.496095 160.93408,186.571777 161.241699,186.571777 Z M168.858887,178.134277 L168.858887,180.075195 L170.250488,180.075195 L170.250488,181.57666 L168.858887,181.57666 L168.858887,185.612305 C168.858887,185.919923 168.922363,186.139648 169.049316,186.271484 C169.17627,186.403321 169.347167,186.469238 169.562012,186.469238 C169.708497,186.469238 169.836669,186.463135 169.946533,186.450928 C170.056397,186.438721 170.179687,186.417969 170.316406,186.388672 L170.499512,187.934082 C170.260253,188.007325 170.023439,188.062256 169.789062,188.098877 C169.554686,188.135498 169.300783,188.153809 169.027344,188.153809 C168.290035,188.153809 167.722414,187.951174 167.324463,187.545898 C166.926512,187.140623 166.727539,186.49854 166.727539,185.619629 L166.727539,181.57666 L165.562988,181.57666 L165.562988,180.075195 L166.727539,180.075195 L166.727539,178.134277 L168.858887,178.134277 Z M171.078125,183.964355 C171.078125,182.782709 171.408932,181.814701 172.070557,181.060303 C172.732181,180.305904 173.646479,179.928711 174.813477,179.928711 C175.985357,179.928711 176.902096,180.304684 177.563721,181.056641 C178.225345,181.808598 178.556152,182.777826 178.556152,183.964355 L178.556152,184.118164 C178.556152,185.309576 178.225345,186.280026 177.563721,187.029541 C176.902096,187.779056 175.99024,188.153809 174.828125,188.153809 C173.651361,188.153809 172.732181,187.779056 172.070557,187.029541 C171.408932,186.280026 171.078125,185.309576 171.078125,184.118164 L171.078125,183.964355 Z M173.216797,184.118164 C173.216797,184.840824 173.343749,185.420652 173.597656,185.857666 C173.851564,186.29468 174.261716,186.513184 174.828125,186.513184 C175.379886,186.513184 175.783934,186.293459 176.040283,185.854004 C176.296632,185.414549 176.424805,184.835941 176.424805,184.118164 L176.424805,183.964355 C176.424805,183.261227 176.295411,182.687502 176.036621,182.243164 C175.777831,181.798826 175.37012,181.57666 174.813477,181.57666 C174.256833,181.57666 173.851564,181.798826 173.597656,182.243164 C173.343749,182.687502 173.216797,183.261227 173.216797,183.964355 L173.216797,184.118164 Z M179.647461,186.718262 L180.672852,186.498535 L180.672852,181.583984 L179.537598,181.364258 L179.537598,180.075195 L182.665039,180.075195 L182.760254,181.232422 C182.945802,180.822264 183.185057,180.502443 183.478027,180.272949 C183.770998,180.043456 184.11035,179.928711 184.496094,179.928711 C184.608399,179.928711 184.726806,179.937256 184.851318,179.954346 C184.975831,179.971436 185.079589,179.992187 185.162598,180.016602 L184.935547,181.964844 L184.056641,181.942871 C183.744139,181.942871 183.485353,182.003906 183.280273,182.125977 C183.075194,182.248047 182.918946,182.421386 182.811523,182.645996 L182.811523,186.498535 L183.836914,186.718262 L183.836914,188 L179.647461,188 L179.647461,186.718262 Z" id="Baby-Name-Generator" fill="#FFFFFF"></path>
            </g>
        </g>
    </g>
</svg>