<?xml version="1.0" encoding="UTF-8"?>
<svg width="480px" height="115px" viewBox="0 0 480 115" version="1.1" xmlns="http://www.w3.org/2000/svg" xmlns:xlink="http://www.w3.org/1999/xlink">
    <!-- Generator: Sketch 52.6 (67491) - http://www.bohemiancoding.com/sketch -->
    <title>Artboard Copy 3</title>
    <desc>Created with Sketch.</desc>
    <g id="Artboard-Copy-3" stroke="none" stroke-width="1" fill="none" fill-rule="evenodd">
        <g id="Group-2-Copy" transform="translate(6.500000, 13.000000)" fill="#55A200">
            <g id="noun_chevron_152837-copy" transform="translate(362.000000, 0.000000)" fill-rule="nonzero">
                <g id="Group" transform="translate(53.000000, 45.500000) rotate(-180.000000) translate(-53.000000, -45.500000) ">
                    <path d="M51.363,74.638 C54.879,78.151 54.879,83.852 51.363,87.365 C49.605,89.122 47.303,90.001 45,90.001 C42.697,90.001 40.395,89.122 38.637,87.364 L2.637,51.364 C-0.879,47.851 -0.879,42.15 2.637,38.637 L38.637,2.637 C42.153,-0.879 47.848,-0.879 51.364,2.637 C54.88,6.15 54.88,11.851 51.364,15.364 L21.727,45.001 L51.363,74.638 Z" id="Shape"></path>
                    <path d="M102.363,74.638 C105.879,78.151 105.879,83.852 102.363,87.365 C100.605,89.122 98.303,90.001 96,90.001 C93.697,90.001 91.395,89.122 89.637,87.364 L53.637,51.364 C50.121,47.851 50.121,42.15 53.637,38.637 L89.637,2.637 C93.153,-0.879 98.848,-0.879 102.364,2.637 C105.88,6.15 105.88,11.851 102.364,15.364 L72.727,45.001 L102.363,74.638 Z" id="Shape-Copy"></path>
                </g>
            </g>
            <path d="M38.2060547,90.5 L11.2998047,90.5 C7.41599621,90.5 4.64331885,89.6291591 2.98168945,87.8874512 C1.32006005,86.1457432 0.489257812,83.3730659 0.489257812,79.5693359 L0.489257812,13.3847656 C0.489257812,9.50095714 1.34007938,6.70826046 3.04174805,5.0065918 C4.74341671,3.30492313 7.49607473,2.45410156 11.2998047,2.45410156 L39.8276367,2.45410156 C44.0317593,2.45410156 47.6752776,2.71435287 50.7583008,3.23486328 C53.841324,3.7553737 56.6039917,4.75634025 59.0463867,6.23779297 C61.1284284,7.47901011 62.9702068,9.0505276 64.5717773,10.9523926 C66.1733479,12.8542576 67.394527,14.9562873 68.2353516,17.2585449 C69.0761761,19.5608025 69.496582,21.9931512 69.496582,24.5556641 C69.496582,33.3643019 65.0923292,39.8105265 56.2836914,43.8945312 C67.8550383,47.5781434 73.640625,54.7450639 73.640625,65.3955078 C73.640625,70.3203371 72.3794071,74.754619 69.8569336,78.6984863 C67.33446,82.6423537 63.9311738,85.5551664 59.6469727,87.4370117 C56.9643421,88.5581111 53.8813651,89.3488747 50.3979492,89.8093262 C46.9145334,90.2697777 42.8506092,90.5 38.2060547,90.5 Z M36.8847656,51.4018555 L18.3266602,51.4018555 L18.3266602,77.1069336 L37.4853516,77.1069336 C49.5371696,77.1069336 55.5629883,72.7627388 55.5629883,64.0742188 C55.5629883,59.6298606 54.0014805,56.4067483 50.878418,54.4047852 C47.7553555,52.402822 43.0908513,51.4018555 36.8847656,51.4018555 Z M18.3266602,15.847168 L18.3266602,38.609375 L34.6625977,38.609375 C39.1069558,38.609375 42.5402711,38.188969 44.9626465,37.3481445 C47.3850219,36.50732 49.23681,34.9057735 50.5180664,32.543457 C51.519048,30.861808 52.0195312,28.9799909 52.0195312,26.8979492 C52.0195312,22.4535911 50.4380041,19.5007397 47.2749023,18.0393066 C44.1118006,16.5778736 39.2871418,15.847168 32.8007812,15.847168 L18.3266602,15.847168 Z M84.5112305,54.1044922 L84.5112305,11.7631836 C84.5112305,8.15964995 85.3220134,5.45704026 86.9436035,3.65527344 C88.5651937,1.85350662 90.6972524,0.952636719 93.3398438,0.952636719 C96.1025529,0.952636719 98.2946696,1.85350662 99.9162598,3.65527344 C101.53785,5.45704026 102.348633,8.15964995 102.348633,11.7631836 L102.348633,55.0654297 C102.348633,59.990259 102.899164,64.1042315 104.000244,67.4074707 C105.101324,70.7107099 107.053209,73.2731843 109.855957,75.0949707 C112.658705,76.9167572 116.582494,77.8276367 121.627441,77.8276367 C128.594273,77.8276367 133.519029,75.9758486 136.401855,72.2722168 C139.284682,68.568585 140.726074,62.9531626 140.726074,55.4257812 L140.726074,11.7631836 C140.726074,8.11961069 141.526847,5.40699133 143.128418,3.62524414 C144.729988,1.84349695 146.872057,0.952636719 149.554688,0.952636719 C152.237318,0.952636719 154.409416,1.84349695 156.071045,3.62524414 C157.732674,5.40699133 158.563477,8.11961069 158.563477,11.7631836 L158.563477,54.1044922 C158.563477,60.9912454 157.892829,66.7367934 156.551514,71.3413086 C155.210198,75.9458238 152.677753,79.9897287 148.954102,83.4731445 C145.750961,86.43605 142.027365,88.5981377 137.783203,89.9594727 C133.539041,91.3208076 128.574247,92.0014648 122.888672,92.0014648 C116.122036,92.0014648 110.296411,91.2707593 105.411621,89.8093262 C100.526831,88.3478931 96.5429842,86.0857087 93.4599609,83.0227051 C90.3769377,79.9597015 88.1147533,76.0359126 86.6733398,71.2512207 C85.2319264,66.4665288 84.5112305,60.7510098 84.5112305,54.1044922 Z M197.481445,81.1308594 L197.481445,53.2036133 L175.980469,19.8710938 C174.098623,16.868149 172.767338,14.5258873 171.986572,12.8442383 C171.205807,11.1625892 170.81543,9.70117808 170.81543,8.45996094 C170.81543,6.41795854 171.606193,4.65625741 173.187744,3.17480469 C174.769295,1.69335197 176.72118,0.952636719 179.043457,0.952636719 C181.485852,0.952636719 183.33764,1.64330364 184.598877,3.0246582 C185.860114,4.40601277 187.751941,7.15867079 190.274414,11.2827148 L206.730469,38.0087891 L223.366699,11.2827148 C224.367681,9.64110507 225.208493,8.25977123 225.88916,7.13867188 C226.569828,6.01757252 227.320553,4.96655764 228.141357,3.9855957 C228.962162,3.00463377 229.873042,2.25390885 230.874023,1.73339844 C231.875005,1.21288802 233.096184,0.952636719 234.537598,0.952636719 C236.779796,0.952636719 238.651604,1.6833423 240.153076,3.14477539 C241.654549,4.60620848 242.405273,6.29784195 242.405273,8.21972656 C242.405273,9.78125781 242.024906,11.3427656 241.26416,12.9042969 C240.503414,14.4658281 239.202158,16.6279159 237.360352,19.390625 L215.318848,53.2036133 L215.318848,81.1308594 C215.318848,84.7744323 214.478036,87.4970613 212.796387,89.2988281 C211.114738,91.1005949 208.972669,92.0014648 206.370117,92.0014648 C203.727526,92.0014648 201.585457,91.1106046 199.943848,89.3288574 C198.302238,87.5471102 197.481445,84.8144715 197.481445,81.1308594 Z" id="BUY"></path>
        </g>
    </g>
</svg>