<?xml version="1.0" encoding="UTF-8"?>
<svg width="106px" height="112px" viewBox="0 0 106 112" version="1.1" xmlns="http://www.w3.org/2000/svg" xmlns:xlink="http://www.w3.org/1999/xlink">
    <!-- Generator: Sketch 52.6 (67491) - http://www.bohemiancoding.com/sketch -->
    <title>Group 8</title>
    <desc>Created with Sketch.</desc>
    <g id="Page-1" stroke="none" stroke-width="1" fill="none" fill-rule="evenodd">
        <g id="Artboard" transform="translate(-64.000000, -538.000000)" fill="#B498FF">
            <g id="Group-8" transform="translate(64.000000, 538.000000)">
                <path d="M26.3349609,111 L22.074707,111 L22.074707,103.578125 L15.7636719,103.578125 L15.7636719,111 L11.4790039,111 L11.4790039,93.2265625 L15.7636719,93.2265625 L15.7636719,100.282227 L22.074707,100.282227 L22.074707,93.2265625 L26.3349609,93.2265625 L26.3349609,111 Z M44.0961914,102.479492 C44.0961914,104.212899 43.7747428,105.746901 43.1318359,107.081543 C42.4889291,108.416185 41.5754454,109.4436 40.3913574,110.163818 C39.2072695,110.884037 37.858406,111.244141 36.3447266,111.244141 C34.8310471,111.244141 33.4882871,110.896244 32.3164062,110.200439 C31.1445254,109.504635 30.2310417,108.509772 29.5759277,107.21582 C28.9208138,105.921869 28.5769858,104.436695 28.5444336,102.760254 L28.5444336,101.759277 C28.5444336,100.017732 28.8638477,98.4816961 29.5026855,97.151123 C30.1415234,95.82055 31.0570416,94.7931351 32.2492676,94.0688477 C33.4414936,93.3445602 34.798495,92.9824219 36.3203125,92.9824219 C37.8258539,92.9824219 39.1686139,93.3404912 40.3486328,94.0566406 C41.5286517,94.77279 42.4462044,95.792067 43.1013184,97.114502 C43.7564323,98.436937 44.0880533,99.9526282 44.0961914,101.661621 L44.0961914,102.479492 Z M39.7382812,101.734863 C39.7382812,99.9689039 39.4432809,98.6281784 38.8532715,97.7126465 C38.263262,96.7971146 37.4189508,96.3393555 36.3203125,96.3393555 C34.1718643,96.3393555 33.0366217,97.9506675 32.9145508,101.17334 L32.9023438,102.479492 C32.9023438,104.221037 33.1912406,105.559728 33.769043,106.495605 C34.3468453,107.431483 35.2053979,107.899414 36.3447266,107.899414 C37.4270887,107.899414 38.2612275,107.43962 38.847168,106.52002 C39.4331084,105.600419 39.7301432,104.278003 39.7382812,102.552734 L39.7382812,101.734863 Z M51.9331055,93.2265625 L55.9003906,105.592285 L59.8554688,93.2265625 L65.4951172,93.2265625 L65.4951172,111 L61.1982422,111 L61.1982422,106.849609 L61.6132812,98.3535156 L57.3164062,111 L54.484375,111 L50.175293,98.3413086 L50.590332,106.849609 L50.590332,111 L46.3056641,111 L46.3056641,93.2265625 L51.9331055,93.2265625 Z M79.2402344,103.468262 L72.5019531,103.468262 L72.5019531,107.704102 L80.4609375,107.704102 L80.4609375,111 L68.2172852,111 L68.2172852,93.2265625 L80.4853516,93.2265625 L80.4853516,96.534668 L72.5019531,96.534668 L72.5019531,100.282227 L79.2402344,100.282227 L79.2402344,103.468262 Z" id="HOME"></path>
                <path d="M21.7206575,64.9986731 L0.965362557,64.9986731 C0.0965362557,64.9986731 0,65.0945414 0,63.6565176 L0,1.34215549 C0,0.0958682494 0,0 0.965362557,0 L47.7854466,0 C48.6542729,0 48.5577366,0.191736499 48.5577366,0.958682494 L48.5577366,15.1471834 C48.5577366,15.9141294 48.6542729,16.0099977 47.7854466,16.0099977 L22.5894838,16.0099977 L22.5894838,28.5687383 L45.1789677,28.5687383 C46.047794,28.5687383 45.9512577,28.9522113 45.9512577,29.7191573 L45.9512577,44.4828677 C45.9512577,45.345682 46.047794,45.4415502 45.1789677,45.4415502 L22.5894838,45.4415502 L22.5894838,63.6565176 C22.5894838,64.7110684 22.4929476,64.9986731 21.7206575,64.9986731 Z M79.1597296,64.9986731 L58.4044347,64.9986731 C57.5356084,64.9986731 57.4390721,65.0945414 57.4390721,63.6565176 C57.4390721,45.4415502 57.4390721,22.4331704 57.4390721,1.34215549 C57.4390721,0.0958682494 57.4390721,0 58.4044347,0 L105.224519,0 C106.093345,0 105.996809,0.191736499 105.996809,0.958682494 C105.996809,5.17688547 105.996809,11.4083217 105.996809,15.1471834 C105.996809,15.9141294 106.093345,16.0099977 105.224519,16.0099977 L80.0285559,16.0099977 L80.0285559,28.5687383 L102.61804,28.5687383 C103.486866,28.5687383 103.39033,28.9522113 103.39033,29.7191573 C103.39033,33.7456238 103.39033,39.97706 103.39033,44.4828677 C103.39033,45.345682 103.486866,45.4415502 102.61804,45.4415502 L80.0285559,45.4415502 C80.0285559,45.4415502 80.0285559,56.6581354 80.0285559,63.6565176 C80.0285559,64.7110684 79.9320197,64.9986731 79.1597296,64.9986731 Z" id="FF"></path>
            </g>
        </g>
    </g>
</svg>