<?xml version="1.0" encoding="UTF-8"?>
<svg width="91px" height="112px" viewBox="0 0 91 112" version="1.1" xmlns="http://www.w3.org/2000/svg" xmlns:xlink="http://www.w3.org/1999/xlink">
    <!-- Generator: Sketch 52.6 (67491) - http://www.bohemiancoding.com/sketch -->
    <title>Group 14</title>
    <desc>Created with Sketch.</desc>
    <g id="Page-1" stroke="none" stroke-width="1" fill="none" fill-rule="evenodd">
        <g id="Artboard" transform="translate(-732.000000, -538.000000)" fill="#B498FF">
            <g id="Group-7-Copy-3" transform="translate(282.000000, 391.000000)">
                <g id="Group-5" transform="translate(449.000000, 0.000000)">
                    <g id="Group-14" transform="translate(0.000000, 147.000000)">
                        <path d="M5.6496582,107.704102 L13.1081543,107.704102 L13.1081543,111 L1.36499023,111 L1.36499023,93.2265625 L5.6496582,93.2265625 L5.6496582,107.704102 Z M25.9377441,103.468262 L19.1994629,103.468262 L19.1994629,107.704102 L27.1584473,107.704102 L27.1584473,111 L14.9147949,111 L14.9147949,93.2265625 L27.1828613,93.2265625 L27.1828613,96.534668 L19.1994629,96.534668 L19.1994629,100.282227 L25.9377441,100.282227 L25.9377441,103.468262 Z M38.9992676,107.679688 L33.1276855,107.679688 L32.1022949,111 L27.5246582,111 L34.0432129,93.2265625 L38.0715332,93.2265625 L44.638916,111 L40.0368652,111 L38.9992676,107.679688 Z M34.1530762,104.371582 L37.973877,104.371582 L36.057373,98.2070312 L34.1530762,104.371582 Z M60.2272949,108.802734 C59.5681119,109.53516 58.6037661,110.125161 57.3342285,110.572754 C56.0646909,111.020347 54.6731033,111.244141 53.1594238,111.244141 C50.8319382,111.244141 48.9724191,110.532071 47.5808105,109.10791 C46.189202,107.683749 45.4445806,105.702161 45.3469238,103.163086 L45.3347168,101.625 C45.3347168,99.8753168 45.6439585,98.3474186 46.2624512,97.0412598 C46.8809438,95.7351009 47.7659448,94.7300654 48.9174805,94.026123 C50.0690162,93.3221807 51.4016038,92.9702148 52.9152832,92.9702148 C55.1288359,92.9702148 56.8479756,93.4768016 58.0727539,94.4899902 C59.2975322,95.5031789 60.0116364,97.0148011 60.2150879,99.0249023 L56.0891113,99.0249023 C55.9426262,98.0320588 55.6252466,97.3240581 55.1369629,96.9008789 C54.6486792,96.4776997 53.9569543,96.2661133 53.0617676,96.2661133 C51.9875435,96.2661133 51.1574736,96.7218379 50.5715332,97.6333008 C49.9855928,98.5447637 49.688558,99.846834 49.6804199,101.539551 L49.6804199,102.61377 C49.6804199,104.387867 49.9835582,105.720455 50.5898438,106.611572 C51.1961293,107.50269 52.1503027,107.948242 53.4523926,107.948242 C54.567307,107.948242 55.3973768,107.700035 55.942627,107.203613 L55.942627,104.444824 L52.9641113,104.444824 L52.9641113,101.50293 L60.2272949,101.50293 L60.2272949,108.802734 Z M76.657959,93.2265625 L76.657959,104.859863 C76.657959,106.178229 76.3772001,107.319575 75.8156738,108.283936 C75.2541476,109.248296 74.4484916,109.982745 73.3986816,110.487305 C72.3488717,110.991865 71.1078359,111.244141 69.6755371,111.244141 C67.5108127,111.244141 65.8059144,110.682623 64.560791,109.55957 C63.3156676,108.436518 62.6809083,106.898447 62.6564941,104.945312 L62.6564941,93.2265625 L66.9655762,93.2265625 L66.9655762,105.030762 C67.0144045,106.975758 67.9177158,107.948242 69.6755371,107.948242 C70.5625858,107.948242 71.2339658,107.704104 71.6896973,107.21582 C72.1454287,106.727537 72.373291,105.934088 72.373291,104.835449 L72.373291,93.2265625 L76.657959,93.2265625 Z M90.354248,103.468262 L83.6159668,103.468262 L83.6159668,107.704102 L91.5749512,107.704102 L91.5749512,111 L79.3312988,111 L79.3312988,93.2265625 L91.5993652,93.2265625 L91.5993652,96.534668 L83.6159668,96.534668 L83.6159668,100.282227 L90.354248,100.282227 L90.354248,103.468262 Z" id="LEAGUE"></path>
                        <path d="M23.7678571,11.3313953 L16.6690476,11.3313953 L16.6690476,19.0337209 C16.6690476,22.4034884 18.025,25.4523256 20.1785714,27.6988372 C21.6142857,29.1430233 23.4488095,30.2662791 25.4428571,30.9081395 C25.1238095,30.1860465 24.8845238,29.3837209 24.6452381,28.5813953 C24.0869048,26.655814 23.7678571,24.5697674 23.7678571,22.4837209 L23.7678571,11.3313953 Z M25.7619048,0.5 L65.802381,0.5 C66.7595238,0.5 67.6369048,1.30232558 67.6369048,2.34534884 L67.6369048,7.72093023 L76.7297619,7.72093023 C77.7666667,7.72093023 78.5642857,8.52325581 78.5642857,9.56627907 L78.5642857,19.1139535 C78.5642857,23.4465116 76.8095238,27.4581395 73.9380952,30.3465116 C71.3059524,33.0744186 67.6369048,34.8395349 63.6488095,35.1604651 C61.3357143,38.45 58.1452381,41.0976744 54.4761905,42.7023256 C53.4392857,43.1837209 52.6416667,43.8255814 52.0833333,44.7081395 C51.525,45.5906977 51.2059524,46.6337209 51.2059524,47.7569767 L51.2059524,52.972093 L58.5440476,52.972093 C59.5011905,52.972093 60.3785714,53.7744186 60.3785714,54.8174419 L60.3785714,60.2732558 L31.1857143,60.2732558 L31.1857143,54.8174419 C31.1857143,53.7744186 31.9833333,52.972093 33.0202381,52.972093 L40.3583333,52.972093 L40.3583333,47.7569767 C40.3583333,46.6337209 40.0392857,45.5906977 39.4809524,44.7081395 C38.922619,43.8255814 38.0452381,43.1034884 37.0880952,42.7023256 C33.4190476,41.0976744 30.2285714,38.45 27.9154762,35.1604651 C23.927381,34.9197674 20.2583333,33.0744186 17.6261905,30.3465116 C14.8345238,27.4581395 13,23.4465116 13,19.1139535 L13,9.48604651 C13,8.52325581 13.797619,7.64069767 14.8345238,7.64069767 L23.927381,7.64069767 L23.927381,2.34534884 C23.927381,1.30232558 24.725,0.5 25.7619048,0.5 Z M60.2988095,60.9151163 L62.2928571,60.9151163 C63.25,60.9151163 64.127381,61.7174419 64.127381,62.7604651 L64.127381,67.1732558 C64.127381,68.1360465 63.3297619,69.0186047 62.2928571,69.0186047 L29.2714286,69.0186047 C28.2345238,69.0186047 27.4369048,68.2162791 27.4369048,67.1732558 L27.4369048,62.7604651 C27.4369048,61.7976744 28.2345238,60.9151163 29.2714286,60.9151163 L31.1857143,60.9151163 L60.2988095,60.9151163 Z M74.8952381,11.3313953 L67.7964286,11.3313953 L67.7964286,22.4837209 C67.7964286,24.5697674 67.477381,26.655814 66.9190476,28.5813953 C66.6797619,29.3837209 66.4404762,30.1860465 66.1214286,30.9081395 C68.1154762,30.2662791 69.95,29.1430233 71.3857143,27.6988372 C73.5392857,25.4523256 74.8952381,22.4034884 74.8952381,19.0337209 L74.8952381,11.3313953 Z M58.5440476,8.52325581 C58.7035714,13.6581395 58.8630952,19.2744186 57.9059524,23.6069767 C57.1083333,27.377907 55.5130952,30.1860465 52.2428571,30.6674419 C51.2857143,30.827907 50.5678571,31.7906977 50.727381,32.7534884 C50.8869048,33.7162791 51.8440476,34.4383721 52.8011905,34.277907 C57.9059524,33.4755814 60.3785714,29.544186 61.4952381,24.3290698 C62.5321429,19.5953488 62.372619,13.8186047 62.2130952,8.44302326 C62.1333333,7.4 61.3357143,6.67790698 60.2988095,6.67790698 C59.3416667,6.67790698 58.5440476,7.56046512 58.5440476,8.52325581 Z" id="Combined-Shape" fill-rule="nonzero"></path>
                    </g>
                </g>
            </g>
        </g>
    </g>
</svg>