<?xml version="1.0" encoding="UTF-8"?>
<svg width="91px" height="113px" viewBox="0 0 91 113" version="1.1" xmlns="http://www.w3.org/2000/svg" xmlns:xlink="http://www.w3.org/1999/xlink">
    <!-- Generator: Sketch 52.6 (67491) - http://www.bohemiancoding.com/sketch -->
    <title>Group 13</title>
    <desc>Created with Sketch.</desc>
    <g id="Page-1" stroke="none" stroke-width="1" fill="none" fill-rule="evenodd">
        <g id="Artboard" transform="translate(-731.000000, -391.000000)" fill="#FFFFFF">
            <g id="Group-7-Copy-3" transform="translate(282.000000, 391.000000)">
                <g id="Group-5" transform="translate(449.000000, 0.000000)">
                    <g id="Group-13">
                        <path d="M4.6496582,108.704102 L12.1081543,108.704102 L12.1081543,112 L0.364990234,112 L0.364990234,94.2265625 L4.6496582,94.2265625 L4.6496582,108.704102 Z M24.9377441,104.468262 L18.1994629,104.468262 L18.1994629,108.704102 L26.1584473,108.704102 L26.1584473,112 L13.9147949,112 L13.9147949,94.2265625 L26.1828613,94.2265625 L26.1828613,97.534668 L18.1994629,97.534668 L18.1994629,101.282227 L24.9377441,101.282227 L24.9377441,104.468262 Z M37.9992676,108.679688 L32.1276855,108.679688 L31.1022949,112 L26.5246582,112 L33.0432129,94.2265625 L37.0715332,94.2265625 L43.638916,112 L39.0368652,112 L37.9992676,108.679688 Z M33.1530762,105.371582 L36.973877,105.371582 L35.057373,99.2070312 L33.1530762,105.371582 Z M59.2272949,109.802734 C58.5681119,110.53516 57.6037661,111.125161 56.3342285,111.572754 C55.0646909,112.020347 53.6731033,112.244141 52.1594238,112.244141 C49.8319382,112.244141 47.9724191,111.532071 46.5808105,110.10791 C45.189202,108.683749 44.4445806,106.702161 44.3469238,104.163086 L44.3347168,102.625 C44.3347168,100.875317 44.6439585,99.3474186 45.2624512,98.0412598 C45.8809438,96.7351009 46.7659448,95.7300654 47.9174805,95.026123 C49.0690162,94.3221807 50.4016038,93.9702148 51.9152832,93.9702148 C54.1288359,93.9702148 55.8479756,94.4768016 57.0727539,95.4899902 C58.2975322,96.5031789 59.0116364,98.0148011 59.2150879,100.024902 L55.0891113,100.024902 C54.9426262,99.0320588 54.6252466,98.3240581 54.1369629,97.9008789 C53.6486792,97.4776997 52.9569543,97.2661133 52.0617676,97.2661133 C50.9875435,97.2661133 50.1574736,97.7218379 49.5715332,98.6333008 C48.9855928,99.5447637 48.688558,100.846834 48.6804199,102.539551 L48.6804199,103.61377 C48.6804199,105.387867 48.9835582,106.720455 49.5898438,107.611572 C50.1961293,108.50269 51.1503027,108.948242 52.4523926,108.948242 C53.567307,108.948242 54.3973768,108.700035 54.942627,108.203613 L54.942627,105.444824 L51.9641113,105.444824 L51.9641113,102.50293 L59.2272949,102.50293 L59.2272949,109.802734 Z M75.657959,94.2265625 L75.657959,105.859863 C75.657959,107.178229 75.3772001,108.319575 74.8156738,109.283936 C74.2541476,110.248296 73.4484916,110.982745 72.3986816,111.487305 C71.3488717,111.991865 70.1078359,112.244141 68.6755371,112.244141 C66.5108127,112.244141 64.8059144,111.682623 63.560791,110.55957 C62.3156676,109.436518 61.6809083,107.898447 61.6564941,105.945312 L61.6564941,94.2265625 L65.9655762,94.2265625 L65.9655762,106.030762 C66.0144045,107.975758 66.9177158,108.948242 68.6755371,108.948242 C69.5625858,108.948242 70.2339658,108.704104 70.6896973,108.21582 C71.1454287,107.727537 71.373291,106.934088 71.373291,105.835449 L71.373291,94.2265625 L75.657959,94.2265625 Z M89.354248,104.468262 L82.6159668,104.468262 L82.6159668,108.704102 L90.5749512,108.704102 L90.5749512,112 L78.3312988,112 L78.3312988,94.2265625 L90.5993652,94.2265625 L90.5993652,97.534668 L82.6159668,97.534668 L82.6159668,101.282227 L89.354248,101.282227 L89.354248,104.468262 Z" id="LEAGUE-Copy"></path>
                        <path d="M23.7678571,11.3313953 L16.6690476,11.3313953 L16.6690476,19.0337209 C16.6690476,22.4034884 18.025,25.4523256 20.1785714,27.6988372 C21.6142857,29.1430233 23.4488095,30.2662791 25.4428571,30.9081395 C25.1238095,30.1860465 24.8845238,29.3837209 24.6452381,28.5813953 C24.0869048,26.655814 23.7678571,24.5697674 23.7678571,22.4837209 L23.7678571,11.3313953 Z M25.7619048,0.5 L65.802381,0.5 C66.7595238,0.5 67.6369048,1.30232558 67.6369048,2.34534884 L67.6369048,7.72093023 L76.7297619,7.72093023 C77.7666667,7.72093023 78.5642857,8.52325581 78.5642857,9.56627907 L78.5642857,19.1139535 C78.5642857,23.4465116 76.8095238,27.4581395 73.9380952,30.3465116 C71.3059524,33.0744186 67.6369048,34.8395349 63.6488095,35.1604651 C61.3357143,38.45 58.1452381,41.0976744 54.4761905,42.7023256 C53.4392857,43.1837209 52.6416667,43.8255814 52.0833333,44.7081395 C51.525,45.5906977 51.2059524,46.6337209 51.2059524,47.7569767 L51.2059524,52.972093 L58.5440476,52.972093 C59.5011905,52.972093 60.3785714,53.7744186 60.3785714,54.8174419 L60.3785714,60.2732558 L31.1857143,60.2732558 L31.1857143,54.8174419 C31.1857143,53.7744186 31.9833333,52.972093 33.0202381,52.972093 L40.3583333,52.972093 L40.3583333,47.7569767 C40.3583333,46.6337209 40.0392857,45.5906977 39.4809524,44.7081395 C38.922619,43.8255814 38.0452381,43.1034884 37.0880952,42.7023256 C33.4190476,41.0976744 30.2285714,38.45 27.9154762,35.1604651 C23.927381,34.9197674 20.2583333,33.0744186 17.6261905,30.3465116 C14.8345238,27.4581395 13,23.4465116 13,19.1139535 L13,9.48604651 C13,8.52325581 13.797619,7.64069767 14.8345238,7.64069767 L23.927381,7.64069767 L23.927381,2.34534884 C23.927381,1.30232558 24.725,0.5 25.7619048,0.5 Z M60.2988095,60.9151163 L62.2928571,60.9151163 C63.25,60.9151163 64.127381,61.7174419 64.127381,62.7604651 L64.127381,67.1732558 C64.127381,68.1360465 63.3297619,69.0186047 62.2928571,69.0186047 L29.2714286,69.0186047 C28.2345238,69.0186047 27.4369048,68.2162791 27.4369048,67.1732558 L27.4369048,62.7604651 C27.4369048,61.7976744 28.2345238,60.9151163 29.2714286,60.9151163 L31.1857143,60.9151163 L60.2988095,60.9151163 Z M74.8952381,11.3313953 L67.7964286,11.3313953 L67.7964286,22.4837209 C67.7964286,24.5697674 67.477381,26.655814 66.9190476,28.5813953 C66.6797619,29.3837209 66.4404762,30.1860465 66.1214286,30.9081395 C68.1154762,30.2662791 69.95,29.1430233 71.3857143,27.6988372 C73.5392857,25.4523256 74.8952381,22.4034884 74.8952381,19.0337209 L74.8952381,11.3313953 Z M58.5440476,8.52325581 C58.7035714,13.6581395 58.8630952,19.2744186 57.9059524,23.6069767 C57.1083333,27.377907 55.5130952,30.1860465 52.2428571,30.6674419 C51.2857143,30.827907 50.5678571,31.7906977 50.727381,32.7534884 C50.8869048,33.7162791 51.8440476,34.4383721 52.8011905,34.277907 C57.9059524,33.4755814 60.3785714,29.544186 61.4952381,24.3290698 C62.5321429,19.5953488 62.372619,13.8186047 62.2130952,8.44302326 C62.1333333,7.4 61.3357143,6.67790698 60.2988095,6.67790698 C59.3416667,6.67790698 58.5440476,7.56046512 58.5440476,8.52325581 Z" id="Combined-Shape-Copy" fill-rule="nonzero"></path>
                    </g>
                </g>
            </g>
        </g>
    </g>
</svg>