<?xml version="1.0" encoding="UTF-8"?>
<svg width="84px" height="112px" viewBox="0 0 84 112" version="1.1" xmlns="http://www.w3.org/2000/svg" xmlns:xlink="http://www.w3.org/1999/xlink">
    <!-- Generator: Sketch 52.6 (67491) - http://www.bohemiancoding.com/sketch -->
    <title>Group 9</title>
    <desc>Created with Sketch.</desc>
    <g id="Page-1" stroke="none" stroke-width="1" fill="none" fill-rule="evenodd">
        <g id="Artboard" transform="translate(-283.000000, -392.000000)" fill="#FFFFFF">
            <g id="Group-7-Copy-3" transform="translate(282.000000, 391.000000)">
                <g id="Group-3" transform="translate(0.333333, 1.000000)">
                    <g id="Group-9">
                        <path d="M15.6262207,96.534668 L10.291748,96.534668 L10.291748,111 L6.00708008,111 L6.00708008,96.534668 L0.770263672,96.534668 L0.770263672,93.2265625 L15.6262207,93.2265625 L15.6262207,96.534668 Z M28.4558105,103.468262 L21.7175293,103.468262 L21.7175293,107.704102 L29.6765137,107.704102 L29.6765137,111 L17.4328613,111 L17.4328613,93.2265625 L29.7009277,93.2265625 L29.7009277,96.534668 L21.7175293,96.534668 L21.7175293,100.282227 L28.4558105,100.282227 L28.4558105,103.468262 Z M41.517334,107.679688 L35.645752,107.679688 L34.6203613,111 L30.0427246,111 L36.5612793,93.2265625 L40.5895996,93.2265625 L47.1569824,111 L42.5549316,111 L41.517334,107.679688 Z M36.6711426,104.371582 L40.4919434,104.371582 L38.5754395,98.2070312 L36.6711426,104.371582 Z M54.0783691,93.2265625 L58.0456543,105.592285 L62.0007324,93.2265625 L67.6403809,93.2265625 L67.6403809,111 L63.3435059,111 L63.3435059,106.849609 L63.7585449,98.3535156 L59.4616699,111 L56.6296387,111 L52.3205566,98.3413086 L52.7355957,106.849609 L52.7355957,111 L48.4509277,111 L48.4509277,93.2265625 L54.0783691,93.2265625 Z M79.5300293,106.275879 C79.5300293,105.649248 79.3082704,105.160972 78.8647461,104.811035 C78.4212217,104.461099 77.642014,104.09896 76.5270996,103.724609 C75.4121852,103.350259 74.500736,102.98812 73.7927246,102.638184 C71.4896532,101.506993 70.3381348,99.9526466 70.3381348,97.9750977 C70.3381348,96.9903922 70.6249971,96.1216672 71.1987305,95.3688965 C71.7724638,94.6161258 72.5842233,94.0301942 73.6340332,93.611084 C74.6838431,93.1919738 75.8638444,92.9824219 77.1740723,92.9824219 C78.4517479,92.9824219 79.5971629,93.2102842 80.6103516,93.6660156 C81.6235402,94.1217471 82.4108859,94.7707477 82.9724121,95.6130371 C83.5339384,96.4553265 83.8146973,97.4176378 83.8146973,98.5 L79.5422363,98.5 C79.5422363,97.7757125 79.3204775,97.2141947 78.8769531,96.8154297 C78.4334288,96.4166647 77.8332557,96.2172852 77.076416,96.2172852 C76.3114382,96.2172852 75.7071962,96.3861474 75.2636719,96.723877 C74.8201475,97.0616065 74.5983887,97.4908828 74.5983887,98.0117188 C74.5983887,98.4674502 74.8425269,98.8804506 75.3308105,99.2507324 C75.8190942,99.6210142 76.6776469,100.003497 77.9064941,100.398193 C79.1353414,100.792889 80.1444459,101.218097 80.9338379,101.673828 C82.8544204,102.780604 83.8146973,104.306468 83.8146973,106.251465 C83.8146973,107.805835 83.2287656,109.026526 82.0568848,109.913574 C80.8850039,110.800623 79.2777609,111.244141 77.2351074,111.244141 C75.7946705,111.244141 74.4905657,110.985761 73.3227539,110.468994 C72.1549421,109.952227 71.2760446,109.244227 70.6860352,108.344971 C70.0960257,107.445715 69.8010254,106.410162 69.8010254,105.238281 L74.0979004,105.238281 C74.0979004,106.190434 74.3440731,106.892332 74.8364258,107.343994 C75.3287785,107.795657 76.1283311,108.021484 77.2351074,108.021484 C77.9431188,108.021484 78.5026021,107.868898 78.9135742,107.563721 C79.3245463,107.258543 79.5300293,106.829267 79.5300293,106.275879 Z" id="TEAMS-Copy"></path>
                        <ellipse id="Oval-Copy-11" cx="32.9186047" cy="64.3820225" rx="6.41860465" ry="6.38202247"></ellipse>
                        <ellipse id="Oval-Copy-12" cx="32.9186047" cy="44.3820225" rx="6.41860465" ry="6.38202247"></ellipse>
                        <ellipse id="Oval-Copy-13" cx="32.9186047" cy="24.3820225" rx="6.41860465" ry="6.38202247"></ellipse>
                        <ellipse id="Oval-Copy-14" cx="50.9186047" cy="64.3820225" rx="6.41860465" ry="6.38202247"></ellipse>
                        <ellipse id="Oval-Copy-15" cx="50.9186047" cy="44.3820225" rx="6.41860465" ry="6.38202247"></ellipse>
                        <ellipse id="Oval-Copy-16" cx="69.9186047" cy="44.3820225" rx="6.41860465" ry="6.38202247"></ellipse>
                        <ellipse id="Oval-Copy-17" cx="13.9186047" cy="44.3820225" rx="6.41860465" ry="6.38202247"></ellipse>
                        <ellipse id="Oval-Copy-18" cx="50.9186047" cy="24.3820225" rx="6.41860465" ry="6.38202247"></ellipse>
                        <ellipse id="Oval-Copy-19" cx="69.9186047" cy="24.3820225" rx="6.41860465" ry="6.38202247"></ellipse>
                        <ellipse id="Oval-Copy-20" cx="41.9186047" cy="6.38202247" rx="6.41860465" ry="6.38202247"></ellipse>
                        <ellipse id="Oval-Copy-21" cx="13.9186047" cy="24.3820225" rx="6.41860465" ry="6.38202247"></ellipse>
                    </g>
                </g>
            </g>
        </g>
    </g>
</svg>