<?xml version="1.0" encoding="UTF-8"?>
<svg width="102px" height="97px" viewBox="0 0 102 97" version="1.1" xmlns="http://www.w3.org/2000/svg" xmlns:xlink="http://www.w3.org/1999/xlink">
    <!-- Generator: Sketch 52.6 (67491) - http://www.bohemiancoding.com/sketch -->
    <title>Group 4</title>
    <desc>Created with Sketch.</desc>
    <g id="Page-1" stroke="none" stroke-width="1" fill="none" fill-rule="evenodd">
        <g id="Artboard" transform="translate(-473.000000, -80.000000)" fill="#FFFFFF">
            <g id="Group-4" transform="translate(473.000000, 80.000000)">
                <text id="TRANSFERS" font-family="Roboto-Black, Roboto" font-size="18" font-weight="700">
                    <tspan x="0.409179688" y="96">TRANSFERS</tspan>
                </text>
                <g id="noun_Arrow_3456932" transform="translate(4.000000, 0.000000)">
                    <g transform="translate(47.000000, 33.000000) rotate(-90.000000) translate(-47.000000, -33.000000) translate(14.000000, -14.000000)">
                        <path d="M10.6030031,27.1153846 C9.63731468,27.1153846 8.8347791,27.9280977 8.8347791,28.9011267 L8.8347791,69.8819048 L2.19842719,69.8819048 C0.419179349,69.8819048 -0.663361777,71.9771459 0.454455638,73.3710044 L16.2626428,93.1433114 C17.1776215,94.2855629 18.8223785,94.2855629 19.7373572,93.1433114 L35.5455444,73.3710044 C36.6633618,71.9771459 35.5808207,69.8819048 33.8015728,69.8819048 L27.1652209,69.8819048 L27.1652209,28.9011267 C27.1652209,27.9258711 26.3648901,27.1153846 25.3969969,27.1153846 L10.6030031,27.1153846 Z" id="Path"></path>
                        <path d="M40.5578213,0.379290973 C39.5921329,0.379290973 38.7895973,1.19200404 38.7895973,2.16503311 L38.7895973,43.1458111 L32.1532454,43.1458111 C30.3739976,43.1458111 29.2914565,45.2410522 30.4092739,46.6349108 L46.217461,66.4072177 C47.1324397,67.5494692 48.7771967,67.5494692 49.6921755,66.4072177 L65.5003626,46.6349108 C66.61818,45.2410522 65.5356389,43.1458111 63.7563911,43.1458111 L57.1200391,43.1458111 L57.1200391,2.16503311 C57.1200391,1.18977743 56.3197083,0.379290973 55.3518151,0.379290973 L40.5578213,0.379290973 Z" id="Path-Copy" transform="translate(47.954818, 33.821599) rotate(-180.000000) translate(-47.954818, -33.821599) "></path>
                    </g>
                </g>
            </g>
        </g>
    </g>
</svg>