<?xml version="1.0" encoding="UTF-8"?>
<svg width="60px" height="20px" viewBox="0 0 60 20" version="1.1" xmlns="http://www.w3.org/2000/svg" xmlns:xlink="http://www.w3.org/1999/xlink">
    <!-- Generator: Sketch 52.6 (67491) - http://www.bohemiancoding.com/sketch -->
    <title>IN</title>
    <desc>Created with Sketch.</desc>
    <g id="IN" stroke="none" stroke-width="1" fill="none" fill-rule="evenodd">
        <g id="Group-3" transform="translate(-2.000000, -1.000000)" fill="#55A200">
            <g id="green_arrow" transform="translate(42.500000, 4.000000)">
                <g id="noun_Arrow_1921075-Copy" transform="translate(9.000000, 7.000000) rotate(-90.000000) translate(-9.000000, -7.000000) translate(2.000000, -1.000000)">
                    <g id="Group" transform="translate(0.000000, -0.000000)">
                        <path d="M6.75862069,8.17578125 C7.14482759,8.17578125 7.50689655,8.03203125 7.77241379,7.76848958 L13.1551724,2.42578125 C13.7103448,1.87473958 13.7103448,0.964322917 13.1551724,0.41328125 C12.6,-0.137760417 11.6827586,-0.137760417 11.1275862,0.41328125 L6.78275862,4.72578125 L2.43793103,0.41328125 C1.88275862,-0.137760417 0.965517241,-0.137760417 0.410344828,0.41328125 C0.120689655,0.70078125 -2.84217094e-14,1.06015625 -2.84217094e-14,1.41953125 C-2.84217094e-14,1.77890625 0.144827586,2.16223958 0.410344828,2.42578125 L5.74482759,7.76848958 C6.01034483,8.03203125 6.37241379,8.17578125 6.75862069,8.17578125 Z" id="Path"></path>
                        <path d="M7.77241379,15.0316475 L13.1551724,9.68893914 C13.7103448,9.13789748 13.7103448,8.22748081 13.1551724,7.67643914 C12.6,7.12539748 11.6827586,7.12539748 11.1275862,7.67643914 L6.78275862,11.9889391 L2.43793103,7.67643914 C1.88275862,7.12539748 0.965517241,7.12539748 0.410344828,7.67643914 C0.120689655,7.96393914 -2.84217094e-14,8.32331414 -2.84217094e-14,8.68268914 C-2.84217094e-14,9.04206414 0.144827586,9.42539748 0.410344828,9.68893914 L5.79310345,15.0316475 C6.3,15.5826891 7.21724138,15.5826891 7.77241379,15.0316475 Z" id="Path"></path>
                    </g>
                </g>
            </g>
            <text id="IN" font-family="Roboto-Bold, Roboto" font-size="18" font-weight="bold">
                <tspan x="5.02197266" y="17.5">IN</tspan>
            </text>
        </g>
    </g>
</svg>