<?xml version="1.0" encoding="UTF-8"?>
<svg width="66px" height="15px" viewBox="0 0 66 15" version="1.1" xmlns="http://www.w3.org/2000/svg" xmlns:xlink="http://www.w3.org/1999/xlink">
    <!-- Generator: Sketch 52.6 (67491) - http://www.bohemiancoding.com/sketch -->
    <title>Group 3</title>
    <desc>Created with Sketch.</desc>
    <g id="Page-1" stroke="none" stroke-width="1" fill="none" fill-rule="evenodd">
        <g id="Transfers" transform="translate(-206.000000, -255.000000)" fill="#55A200">
            <g id="Group-4" transform="translate(23.000000, 187.000000)">
                <g id="Group-3" transform="translate(182.000000, 66.000000)">
                    <g id="green_arrow" transform="translate(43.000000, 2.000000)">
                        <g id="noun_Arrow_1921075-Copy" transform="translate(12.000000, 7.500000) rotate(-90.000000) translate(-12.000000, -7.500000) translate(5.000000, -4.000000)">
                            <g id="Group" transform="translate(0.000000, -0.000000)">
                                <path d="M6.75862069,8.17578125 C7.14482759,8.17578125 7.50689655,8.03203125 7.77241379,7.76848958 L13.1551724,2.42578125 C13.7103448,1.87473958 13.7103448,0.964322917 13.1551724,0.41328125 C12.6,-0.137760417 11.6827586,-0.137760417 11.1275862,0.41328125 L6.78275862,4.72578125 L2.43793103,0.41328125 C1.88275862,-0.137760417 0.965517241,-0.137760417 0.410344828,0.41328125 C0.120689655,0.70078125 -2.84217094e-14,1.06015625 -2.84217094e-14,1.41953125 C-2.84217094e-14,1.77890625 0.144827586,2.16223958 0.410344828,2.42578125 L5.74482759,7.76848958 C6.01034483,8.03203125 6.37241379,8.17578125 6.75862069,8.17578125 Z" id="Path"></path>
                                <path d="M7.77241379,15.0316475 L13.1551724,9.68893914 C13.7103448,9.13789748 13.7103448,8.22748081 13.1551724,7.67643914 C12.6,7.12539748 11.6827586,7.12539748 11.1275862,7.67643914 L6.78275862,11.9889391 L2.43793103,7.67643914 C1.88275862,7.12539748 0.965517241,7.12539748 0.410344828,7.67643914 C0.120689655,7.96393914 -2.84217094e-14,8.32331414 -2.84217094e-14,8.68268914 C-2.84217094e-14,9.04206414 0.144827586,9.42539748 0.410344828,9.68893914 L5.79310345,15.0316475 C6.3,15.5826891 7.21724138,15.5826891 7.77241379,15.0316475 Z" id="Path"></path>
                                <path d="M7.79655172,22.3187637 L13.1793103,16.9760554 C13.7344828,16.4250137 13.7344828,15.514597 13.1793103,14.9635554 C12.6241379,14.4125137 11.7068966,14.4125137 11.1517241,14.9635554 L6.80689655,19.2760554 L2.43793103,14.939597 C1.88275862,14.3885554 0.965517241,14.3885554 0.410344828,14.939597 C0.120689655,15.227097 0,15.586472 0,15.945847 C0,16.305222 0.144827586,16.6885554 0.410344828,16.952097 L5.79310345,22.2948054 C6.32413793,22.8698054 7.24137931,22.8698054 7.79655172,22.3187637 Z" id="Path"></path>
                            </g>
                        </g>
                    </g>
                    <text id="IN" font-family="Roboto-Bold, Roboto" font-size="15" font-weight="bold">
                        <tspan x="0.518310547" y="14.5">IN</tspan>
                    </text>
                </g>
            </g>
        </g>
    </g>
</svg>