<?xml version="1.0" encoding="UTF-8"?>
<svg width="377px" height="71px" viewBox="0 0 377 71" version="1.1" xmlns="http://www.w3.org/2000/svg" xmlns:xlink="http://www.w3.org/1999/xlink">
    <!-- Generator: Sketch 52.6 (67491) - http://www.bohemiancoding.com/sketch -->
    <title>Artboard</title>
    <desc>Created with Sketch.</desc>
    <g id="Artboard" stroke="none" stroke-width="1" fill="none" fill-rule="evenodd">
        <g id="Group-Copy" transform="translate(3.000000, 1.000000)" fill="#FFFFFF">
            <g id="Group-2">
                <path d="M9.3,29 L0.485,29 C0.116,29 0.075,29.041 0.075,28.426 L0.075,1.776 C0.075,1.243 0.075,1.202 0.485,1.202 L20.37,1.202 C20.739,1.202 20.698,1.284 20.698,1.612 L20.698,7.68 C20.698,8.008 20.739,8.049 20.37,8.049 L9.669,8.049 L9.669,13.42 L19.263,13.42 C19.632,13.42 19.591,13.584 19.591,13.912 L19.591,20.226 C19.591,20.595 19.632,20.636 19.263,20.636 L9.669,20.636 L9.669,28.426 C9.669,28.877 9.628,29 9.3,29 Z M41.034,25.556 L31.481,25.556 C30.948,26.704 30.661,27.565 30.169,28.549 C29.964,28.918 29.923,29 29.349,29 L20.944,29 C20.616,29 20.534,28.836 20.78,28.426 C25.741,19.488 31.85,7.803 35.663,0.71 C35.745,0.587 37.549,0.628 37.59,0.71 C41.854,8.418 47.717,19.406 52.801,28.426 C53.088,29 53.088,29 52.637,29 L43.002,29 C42.797,29 42.592,28.959 42.428,28.672 C41.936,27.565 41.526,26.581 41.034,25.556 Z M36.3189944,13.6660152 C36.3175326,13.6699819 36.031057,14.4472002 35.663,15.306 C34.925,17.069 33.818,19.488 33.818,19.488 L38.779,19.488 C38.779,19.488 37.754,17.028 36.975,15.306 C36.6068137,14.4468986 36.3202661,13.6694359 36.3190042,13.6660114 L36.3189944,13.6660152 Z M55.302,28.59 C55.179,17.766 55.22,11.657 55.302,0.792 C55.302,0.341 55.466,0.341 55.753,0.546 C62.231,4.605 73.178,12.067 73.178,12.067 L73.178,1.694 C73.178,1.243 73.137,1.202 73.547,1.202 L81.378,1.202 C81.829,1.202 81.829,1.284 81.829,1.694 C81.911,9.689 81.952,18.545 81.829,29.205 C81.829,29.697 81.87,29.943 81.296,29.615 C74.326,25.351 63.912,18.217 63.912,18.217 L63.912,28.631 C63.912,29 63.912,29 63.502,29 L55.753,29 C55.384,29 55.302,28.754 55.302,28.59 Z M102.698,8.418 L102.698,28.631 C102.698,28.959 102.657,29 102.288,29 L93.391,29 C92.981,29 92.981,29.041 92.981,28.631 L92.981,8.418 L85.519,8.869 C85.232,8.869 85.232,8.828 85.232,8.582 L85.232,1.612 C85.232,1.284 85.232,1.202 85.56,1.202 L109.873,1.202 C110.16,1.202 110.201,1.284 110.201,1.612 L110.201,8.582 C110.201,8.828 110.16,8.869 109.914,8.869 L102.698,8.418 Z M130.496,25.556 L120.943,25.556 C120.41,26.704 120.123,27.565 119.631,28.549 C119.426,28.918 119.385,29 118.811,29 L110.406,29 C110.078,29 109.996,28.836 110.242,28.426 C115.203,19.488 121.312,7.803 125.125,0.71 C125.207,0.587 127.011,0.628 127.052,0.71 C131.316,8.418 137.179,19.406 142.263,28.426 C142.55,29 142.55,29 142.099,29 L132.464,29 C132.259,29 132.054,28.959 131.89,28.672 C131.398,27.565 130.988,26.581 130.496,25.556 Z M125.780994,13.6660156 C125.779515,13.6700303 125.493046,14.447227 125.125,15.306 C124.387,17.069 123.28,19.488 123.28,19.488 L128.241,19.488 C128.241,19.488 127.216,17.028 126.437,15.306 C126.068826,14.4469273 125.782285,13.6694879 125.781004,13.6660117 L125.780994,13.6660156 Z M143.288,23.711 C143.042,23.055 143.083,23.055 143.452,22.932 L149.561,20.636 C149.93,20.472 149.971,20.513 150.053,20.8 C150.504,22.317 152.144,23.506 153.948,23.506 C155.875,23.506 156.818,22.645 156.818,21.415 C156.818,20.062 155.67,19.57 153.251,19.283 C152.964,19.242 152.513,19.201 152.226,19.16 C149.11,18.914 143.698,17.479 143.698,10.837 C143.698,4.441 147.839,0.341 155.629,0.341 C161.369,0.341 164.813,2.801 165.592,6.368 C165.674,6.86 165.715,6.901 165.305,7.065 L159.524,9.197 C159.196,9.361 159.155,9.361 159.032,9.033 C158.376,7.516 157.31,6.696 155.301,6.696 C153.374,6.696 152.636,7.516 152.636,8.623 C152.636,9.853 153.702,10.263 156.736,10.714 C157.146,10.796 157.638,10.837 158.212,10.919 C162.804,11.616 166.535,13.584 166.535,19.365 C166.535,26.212 161.082,29.984 154.276,29.984 C148.7,29.984 144.887,27.565 143.288,23.711 Z M197.9,1.735 C193.964,9.73 188.675,20.144 188.675,20.144 L188.675,28.467 C188.675,29 188.675,29.041 188.224,29.041 L179.122,29.041 C178.835,29.041 178.835,29 178.835,28.467 L178.835,20.882 C178.835,20.882 172.357,9.73 167.97,1.776 C167.683,1.202 167.724,1.202 168.216,1.202 L178.548,1.202 C178.876,1.202 178.958,1.202 179.245,1.858 C180.762,5.302 183.796,11.903 183.796,11.903 C183.796,11.903 186.461,5.097 187.732,1.612 C187.855,1.243 187.855,1.202 188.347,1.202 L197.654,1.202 C198.228,1.202 198.105,1.243 197.9,1.735 Z M9.3,67 L0.485,67 C0.116,67 0.075,67.041 0.075,66.426 L0.075,39.776 C0.075,39.243 0.075,39.202 0.485,39.202 L20.37,39.202 C20.739,39.202 20.698,39.284 20.698,39.612 L20.698,45.68 C20.698,46.008 20.739,46.049 20.37,46.049 L9.669,46.049 L9.669,51.42 L19.263,51.42 C19.632,51.42 19.591,51.584 19.591,51.912 L19.591,58.226 C19.591,58.595 19.632,58.636 19.263,58.636 L9.669,58.636 L9.669,66.426 C9.669,66.877 9.628,67 9.3,67 Z M37.549,38.341 C45.38,38.341 52.596,44.04 52.596,53.183 C52.596,61.875 45.503,67.984 37.549,67.984 C28.775,67.984 22.502,61.506 22.502,53.142 C22.502,44.327 29.349,38.341 37.549,38.341 Z M37.549,47.976 C34.351,47.976 32.342,50.108 32.342,53.101 C32.342,56.504 34.474,58.472 37.549,58.472 C40.501,58.472 42.756,56.422 42.756,53.101 C42.756,49.944 40.706,47.976 37.549,47.976 Z M70.062,38.341 C77.893,38.341 85.109,44.04 85.109,53.183 C85.109,61.875 78.016,67.984 70.062,67.984 C61.288,67.984 55.015,61.506 55.015,53.142 C55.015,44.327 61.862,38.341 70.062,38.341 Z M70.062,47.976 C66.864,47.976 64.855,50.108 64.855,53.101 C64.855,56.504 66.987,58.472 70.062,58.472 C73.014,58.472 75.269,56.422 75.269,53.101 C75.269,49.944 73.219,47.976 70.062,47.976 Z M104.502,46.418 L104.502,66.631 C104.502,66.959 104.461,67 104.092,67 L95.195,67 C94.785,67 94.785,67.041 94.785,66.631 L94.785,46.418 L87.323,46.869 C87.036,46.869 87.036,46.828 87.036,46.582 L87.036,39.612 C87.036,39.284 87.036,39.202 87.364,39.202 L111.677,39.202 C111.964,39.202 112.005,39.284 112.005,39.612 L112.005,46.582 C112.005,46.828 111.964,46.869 111.718,46.869 L104.502,46.418 Z M142.14,59.784 C142.14,64.294 138.655,67 133.284,67 L116.146,67 C115.736,67 115.695,66.959 115.695,66.426 L115.695,39.612 C115.695,39.284 115.818,39.202 116.228,39.202 L132.095,39.202 C137.753,39.202 141.197,42.072 141.197,46.664 C141.197,49.657 139.475,52.117 135.908,53.019 C139.516,53.224 142.14,56.586 142.14,59.784 Z M125.207,49.698 L128.405,49.698 C130.25,49.698 130.988,48.796 130.988,47.525 C130.988,46.213 130.25,45.27 128.405,45.27 L125.207,45.27 L125.207,49.698 Z M125.207,60.973 L129.061,60.973 C130.988,60.973 131.685,60.071 131.685,58.677 C131.685,57.283 130.865,56.422 129.061,56.422 L125.207,56.422 L125.207,60.973 Z M162.886,63.556 L153.333,63.556 C152.8,64.704 152.513,65.565 152.021,66.549 C151.816,66.918 151.775,67 151.201,67 L142.796,67 C142.468,67 142.386,66.836 142.632,66.426 C147.593,57.488 153.702,45.803 157.515,38.71 C157.597,38.587 159.401,38.628 159.442,38.71 C163.706,46.418 169.569,57.406 174.653,66.426 C174.94,67 174.94,67 174.489,67 L164.854,67 C164.649,67 164.444,66.959 164.28,66.672 C163.788,65.565 163.378,64.581 162.886,63.556 Z M158.170994,51.6660155 C158.16952,51.6700152 157.883049,52.4472186 157.515,53.306 C156.777,55.069 155.67,57.488 155.67,57.488 L160.631,57.488 C160.631,57.488 159.606,55.028 158.827,53.306 C158.458809,52.446888 158.172259,51.6694169 158.171004,51.6660112 L158.170994,51.6660155 Z M196.998,66.631 C196.998,66.959 196.957,67 196.588,67 L177.4,67 C176.99,67 176.99,67.041 176.99,66.631 L176.99,39.571 C176.99,39.161 176.99,39.202 177.4,39.202 L186.133,39.202 C186.502,39.202 186.543,39.243 186.543,39.571 L186.543,59.374 L196.547,59.374 C196.916,59.374 196.998,59.456 196.998,59.784 L196.998,66.631 Z M220.409,66.631 C220.409,66.959 220.368,67 219.999,67 L200.811,67 C200.401,67 200.401,67.041 200.401,66.631 L200.401,39.571 C200.401,39.161 200.401,39.202 200.811,39.202 L209.544,39.202 C209.913,39.202 209.954,39.243 209.954,39.571 L209.954,59.374 L219.958,59.374 C220.327,59.374 220.409,59.456 220.409,59.784 L220.409,66.631 Z" id="FANTASY-FOOTBALL"></path>
                <path d="M244.73,32.88 C238.61,24.96 234.74,18.3 227.09,7.41 C227,7.32 226.73,4.98 227.36,4.98 L247.52,4.98 C247.97,4.98 248.24,4.98 248.24,5.88 L248.24,32.61 C248.24,33.06 245.18,33.33 244.73,32.88 Z M254.18,64.29 C259.13,59.34 266.87,51.6 272.18,45.66 C280.28,36.57 285.32,30.72 285.32,25.32 C285.32,21.27 282.17,18.93 278.39,18.93 C272.9,18.93 269.66,22.17 269.3,28.74 C269.21,29.82 268.85,29.64 268.4,29.37 C265.79,28.02 258.14,23.07 255.44,21.27 C254.81,20.82 254.81,20.55 255.08,19.74 C258.68,9.03 267.5,3.09 281.81,3.09 C297.11,3.09 306.65,10.2 306.65,21.09 C306.65,32.7 296.03,39.99 282.17,50.07 C287.03,49.89 299.45,48.99 305.93,48.99 C306.65,48.99 307.01,49.17 307.01,49.98 C307.28,55.29 307.28,60.33 307.1,64.74 C307.1,65.82 307.01,66 305.48,66 L254.27,66 C253.82,66 254,64.56 254.18,64.29 Z M341.75,3.18 C362,3.18 372.08,18.48 372.08,35.67 C372.08,52.95 362.54,67.89 342.2,67.89 C322.49,67.89 312.14,52.95 312.23,35.49 C312.32,18.03 321.41,3.18 341.75,3.18 Z M350.66,35.94 C350.66,26.58 348.32,20.73 341.84,20.73 C335.63,20.73 333.92,26.94 333.92,34.68 C333.92,44.22 336.17,50.16 342.38,50.16 C349.76,50.16 350.66,42.24 350.66,35.94 Z" id="‘20"></path>
            </g>
        </g>
    </g>
</svg>