<?xml version="1.0" encoding="UTF-8"?>
<svg width="79px" height="86px" viewBox="0 0 79 86" version="1.1" xmlns="http://www.w3.org/2000/svg" xmlns:xlink="http://www.w3.org/1999/xlink">
    <!-- Generator: Sketch 52.6 (67491) - http://www.bohemiancoding.com/sketch -->
    <title>Group 2</title>
    <desc>Created with Sketch.</desc>
    <g id="Page-1" stroke="none" stroke-width="1" fill="none" fill-rule="evenodd">
        <g id="Artboard" transform="translate(-69.000000, -39.000000)" fill="#FFFFFF">
            <g id="Group-7" transform="translate(69.000000, 22.000000)">
                <g id="Group-2" transform="translate(0.000000, 17.000000)">
                    <text id="UPDATES" font-family="Roboto-Black, Roboto" font-size="18" font-weight="700">
                        <tspan x="0.488769531" y="85">UPDATES</tspan>
                    </text>
                    <g id="noun_Suitcase_635644" transform="translate(7.000000, 0.000000)">
                        <g id="Group">
                            <g fill-rule="nonzero">
                                <g id="Combined-Shape">
                                    <path d="M46.9444444,11.9565217 L60.1939975,11.9565217 C62.8373332,11.9565217 65,14.0925111 65,16.7273875 L65,50.2291338 C65,52.8654667 62.8482797,55 60.1939975,55 L4.8060025,55 C2.16266676,55 0,52.8640104 0,50.2291338 L0,16.7273875 C0,14.0910545 2.15172028,11.9565217 4.8060025,11.9565217 L18.0555556,11.9565217 L18.0555556,4.78214837 C18.0555556,2.14498159 20.2106065,0 22.8592903,0 L42.1407097,0 C44.7979109,0 46.9444444,2.13583282 46.9444444,4.78214837 L46.9444444,11.9565217 Z M18.0555556,20.326087 C18.0555556,19.005406 16.9777219,17.9347826 15.6481481,17.9347826 C14.3185744,17.9347826 13.2407407,19.005406 13.2407407,20.326087 L13.2407407,46.6304348 C13.2407407,47.9511151 14.3185744,49.0217391 15.6481481,49.0217391 C16.9777219,49.0217391 18.0555556,47.9511151 18.0555556,46.6304348 L18.0555556,20.326087 Z M51.7592593,20.326087 C51.7592593,19.005406 50.6814256,17.9347826 49.3518519,17.9347826 C48.0222781,17.9347826 46.9444444,19.005406 46.9444444,20.326087 L46.9444444,46.6304348 C46.9444444,47.9511151 48.0222781,49.0217391 49.3518519,49.0217391 C50.6814256,49.0217391 51.7592593,47.9511151 51.7592593,46.6304348 L51.7592593,20.326087 Z M42.1324006,11.9565217 L42.1407097,4.7826087 L22.8703704,4.78214837 L22.8703704,11.9565217 L42.1324006,11.9565217 Z"></path>
                                </g>
                            </g>
                        </g>
                    </g>
                </g>
            </g>
        </g>
    </g>
</svg>