<?xml version="1.0" encoding="UTF-8"?>
<svg width="373px" height="232px" viewBox="0 0 373 232" version="1.1" xmlns="http://www.w3.org/2000/svg" xmlns:xlink="http://www.w3.org/1999/xlink">
    <!-- Generator: Sketch 52.6 (67491) - http://www.bohemiancoding.com/sketch -->
    <title>Group 4</title>
    <desc>Created with Sketch.</desc>
    <g id="Page-1" stroke="none" stroke-width="1" fill="none" fill-rule="evenodd">
        <g id="Artboard" transform="translate(-560.000000, -671.000000)">
            <g id="Group-4" transform="translate(560.000000, 671.000000)">
                <g id="logo" fill="#FFFFFF">
                    <g id="Group-Copy">
                        <g id="Group-2">
                            <path d="M9.3,29 L0.485,29 C0.116,29 0.075,29.041 0.075,28.426 L0.075,1.776 C0.075,1.243 0.075,1.202 0.485,1.202 L20.37,1.202 C20.739,1.202 20.698,1.284 20.698,1.612 L20.698,7.68 C20.698,8.008 20.739,8.049 20.37,8.049 L9.669,8.049 L9.669,13.42 L19.263,13.42 C19.632,13.42 19.591,13.584 19.591,13.912 L19.591,20.226 C19.591,20.595 19.632,20.636 19.263,20.636 L9.669,20.636 L9.669,28.426 C9.669,28.877 9.628,29 9.3,29 Z M41.034,25.556 L31.481,25.556 C30.948,26.704 30.661,27.565 30.169,28.549 C29.964,28.918 29.923,29 29.349,29 L20.944,29 C20.616,29 20.534,28.836 20.78,28.426 C25.741,19.488 31.85,7.803 35.663,0.71 C35.745,0.587 37.549,0.628 37.59,0.71 C41.854,8.418 47.717,19.406 52.801,28.426 C53.088,29 53.088,29 52.637,29 L43.002,29 C42.797,29 42.592,28.959 42.428,28.672 C41.936,27.565 41.526,26.581 41.034,25.556 Z M36.3189944,13.6660152 C36.3175326,13.6699819 36.031057,14.4472002 35.663,15.306 C34.925,17.069 33.818,19.488 33.818,19.488 L38.779,19.488 C38.779,19.488 37.754,17.028 36.975,15.306 C36.6068137,14.4468986 36.3202661,13.6694359 36.3190042,13.6660114 L36.3189944,13.6660152 Z M55.302,28.59 C55.179,17.766 55.22,11.657 55.302,0.792 C55.302,0.341 55.466,0.341 55.753,0.546 C62.231,4.605 73.178,12.067 73.178,12.067 L73.178,1.694 C73.178,1.243 73.137,1.202 73.547,1.202 L81.378,1.202 C81.829,1.202 81.829,1.284 81.829,1.694 C81.911,9.689 81.952,18.545 81.829,29.205 C81.829,29.697 81.87,29.943 81.296,29.615 C74.326,25.351 63.912,18.217 63.912,18.217 L63.912,28.631 C63.912,29 63.912,29 63.502,29 L55.753,29 C55.384,29 55.302,28.754 55.302,28.59 Z M102.698,8.418 L102.698,28.631 C102.698,28.959 102.657,29 102.288,29 L93.391,29 C92.981,29 92.981,29.041 92.981,28.631 L92.981,8.418 L85.519,8.869 C85.232,8.869 85.232,8.828 85.232,8.582 L85.232,1.612 C85.232,1.284 85.232,1.202 85.56,1.202 L109.873,1.202 C110.16,1.202 110.201,1.284 110.201,1.612 L110.201,8.582 C110.201,8.828 110.16,8.869 109.914,8.869 L102.698,8.418 Z M130.496,25.556 L120.943,25.556 C120.41,26.704 120.123,27.565 119.631,28.549 C119.426,28.918 119.385,29 118.811,29 L110.406,29 C110.078,29 109.996,28.836 110.242,28.426 C115.203,19.488 121.312,7.803 125.125,0.71 C125.207,0.587 127.011,0.628 127.052,0.71 C131.316,8.418 137.179,19.406 142.263,28.426 C142.55,29 142.55,29 142.099,29 L132.464,29 C132.259,29 132.054,28.959 131.89,28.672 C131.398,27.565 130.988,26.581 130.496,25.556 Z M125.780994,13.6660156 C125.779515,13.6700303 125.493046,14.447227 125.125,15.306 C124.387,17.069 123.28,19.488 123.28,19.488 L128.241,19.488 C128.241,19.488 127.216,17.028 126.437,15.306 C126.068826,14.4469273 125.782285,13.6694879 125.781004,13.6660117 L125.780994,13.6660156 Z M143.288,23.711 C143.042,23.055 143.083,23.055 143.452,22.932 L149.561,20.636 C149.93,20.472 149.971,20.513 150.053,20.8 C150.504,22.317 152.144,23.506 153.948,23.506 C155.875,23.506 156.818,22.645 156.818,21.415 C156.818,20.062 155.67,19.57 153.251,19.283 C152.964,19.242 152.513,19.201 152.226,19.16 C149.11,18.914 143.698,17.479 143.698,10.837 C143.698,4.441 147.839,0.341 155.629,0.341 C161.369,0.341 164.813,2.801 165.592,6.368 C165.674,6.86 165.715,6.901 165.305,7.065 L159.524,9.197 C159.196,9.361 159.155,9.361 159.032,9.033 C158.376,7.516 157.31,6.696 155.301,6.696 C153.374,6.696 152.636,7.516 152.636,8.623 C152.636,9.853 153.702,10.263 156.736,10.714 C157.146,10.796 157.638,10.837 158.212,10.919 C162.804,11.616 166.535,13.584 166.535,19.365 C166.535,26.212 161.082,29.984 154.276,29.984 C148.7,29.984 144.887,27.565 143.288,23.711 Z M197.9,1.735 C193.964,9.73 188.675,20.144 188.675,20.144 L188.675,28.467 C188.675,29 188.675,29.041 188.224,29.041 L179.122,29.041 C178.835,29.041 178.835,29 178.835,28.467 L178.835,20.882 C178.835,20.882 172.357,9.73 167.97,1.776 C167.683,1.202 167.724,1.202 168.216,1.202 L178.548,1.202 C178.876,1.202 178.958,1.202 179.245,1.858 C180.762,5.302 183.796,11.903 183.796,11.903 C183.796,11.903 186.461,5.097 187.732,1.612 C187.855,1.243 187.855,1.202 188.347,1.202 L197.654,1.202 C198.228,1.202 198.105,1.243 197.9,1.735 Z M9.3,67 L0.485,67 C0.116,67 0.075,67.041 0.075,66.426 L0.075,39.776 C0.075,39.243 0.075,39.202 0.485,39.202 L20.37,39.202 C20.739,39.202 20.698,39.284 20.698,39.612 L20.698,45.68 C20.698,46.008 20.739,46.049 20.37,46.049 L9.669,46.049 L9.669,51.42 L19.263,51.42 C19.632,51.42 19.591,51.584 19.591,51.912 L19.591,58.226 C19.591,58.595 19.632,58.636 19.263,58.636 L9.669,58.636 L9.669,66.426 C9.669,66.877 9.628,67 9.3,67 Z M37.549,38.341 C45.38,38.341 52.596,44.04 52.596,53.183 C52.596,61.875 45.503,67.984 37.549,67.984 C28.775,67.984 22.502,61.506 22.502,53.142 C22.502,44.327 29.349,38.341 37.549,38.341 Z M37.549,47.976 C34.351,47.976 32.342,50.108 32.342,53.101 C32.342,56.504 34.474,58.472 37.549,58.472 C40.501,58.472 42.756,56.422 42.756,53.101 C42.756,49.944 40.706,47.976 37.549,47.976 Z M70.062,38.341 C77.893,38.341 85.109,44.04 85.109,53.183 C85.109,61.875 78.016,67.984 70.062,67.984 C61.288,67.984 55.015,61.506 55.015,53.142 C55.015,44.327 61.862,38.341 70.062,38.341 Z M70.062,47.976 C66.864,47.976 64.855,50.108 64.855,53.101 C64.855,56.504 66.987,58.472 70.062,58.472 C73.014,58.472 75.269,56.422 75.269,53.101 C75.269,49.944 73.219,47.976 70.062,47.976 Z M104.502,46.418 L104.502,66.631 C104.502,66.959 104.461,67 104.092,67 L95.195,67 C94.785,67 94.785,67.041 94.785,66.631 L94.785,46.418 L87.323,46.869 C87.036,46.869 87.036,46.828 87.036,46.582 L87.036,39.612 C87.036,39.284 87.036,39.202 87.364,39.202 L111.677,39.202 C111.964,39.202 112.005,39.284 112.005,39.612 L112.005,46.582 C112.005,46.828 111.964,46.869 111.718,46.869 L104.502,46.418 Z M142.14,59.784 C142.14,64.294 138.655,67 133.284,67 L116.146,67 C115.736,67 115.695,66.959 115.695,66.426 L115.695,39.612 C115.695,39.284 115.818,39.202 116.228,39.202 L132.095,39.202 C137.753,39.202 141.197,42.072 141.197,46.664 C141.197,49.657 139.475,52.117 135.908,53.019 C139.516,53.224 142.14,56.586 142.14,59.784 Z M125.207,49.698 L128.405,49.698 C130.25,49.698 130.988,48.796 130.988,47.525 C130.988,46.213 130.25,45.27 128.405,45.27 L125.207,45.27 L125.207,49.698 Z M125.207,60.973 L129.061,60.973 C130.988,60.973 131.685,60.071 131.685,58.677 C131.685,57.283 130.865,56.422 129.061,56.422 L125.207,56.422 L125.207,60.973 Z M162.886,63.556 L153.333,63.556 C152.8,64.704 152.513,65.565 152.021,66.549 C151.816,66.918 151.775,67 151.201,67 L142.796,67 C142.468,67 142.386,66.836 142.632,66.426 C147.593,57.488 153.702,45.803 157.515,38.71 C157.597,38.587 159.401,38.628 159.442,38.71 C163.706,46.418 169.569,57.406 174.653,66.426 C174.94,67 174.94,67 174.489,67 L164.854,67 C164.649,67 164.444,66.959 164.28,66.672 C163.788,65.565 163.378,64.581 162.886,63.556 Z M158.170994,51.6660155 C158.16952,51.6700152 157.883049,52.4472186 157.515,53.306 C156.777,55.069 155.67,57.488 155.67,57.488 L160.631,57.488 C160.631,57.488 159.606,55.028 158.827,53.306 C158.458809,52.446888 158.172259,51.6694169 158.171004,51.6660112 L158.170994,51.6660155 Z M196.998,66.631 C196.998,66.959 196.957,67 196.588,67 L177.4,67 C176.99,67 176.99,67.041 176.99,66.631 L176.99,39.571 C176.99,39.161 176.99,39.202 177.4,39.202 L186.133,39.202 C186.502,39.202 186.543,39.243 186.543,39.571 L186.543,59.374 L196.547,59.374 C196.916,59.374 196.998,59.456 196.998,59.784 L196.998,66.631 Z M220.409,66.631 C220.409,66.959 220.368,67 219.999,67 L200.811,67 C200.401,67 200.401,67.041 200.401,66.631 L200.401,39.571 C200.401,39.161 200.401,39.202 200.811,39.202 L209.544,39.202 C209.913,39.202 209.954,39.243 209.954,39.571 L209.954,59.374 L219.958,59.374 C220.327,59.374 220.409,59.456 220.409,59.784 L220.409,66.631 Z" id="FANTASY-FOOTBALL"></path>
                            <path d="M244.73,32.88 C238.61,24.96 234.74,18.3 227.09,7.41 C227,7.32 226.73,4.98 227.36,4.98 L247.52,4.98 C247.97,4.98 248.24,4.98 248.24,5.88 L248.24,32.61 C248.24,33.06 245.18,33.33 244.73,32.88 Z M254.18,64.29 C259.13,59.34 266.87,51.6 272.18,45.66 C280.28,36.57 285.32,30.72 285.32,25.32 C285.32,21.27 282.17,18.93 278.39,18.93 C272.9,18.93 269.66,22.17 269.3,28.74 C269.21,29.82 268.85,29.64 268.4,29.37 C265.79,28.02 258.14,23.07 255.44,21.27 C254.81,20.82 254.81,20.55 255.08,19.74 C258.68,9.03 267.5,3.09 281.81,3.09 C297.11,3.09 306.65,10.2 306.65,21.09 C306.65,32.7 296.03,39.99 282.17,50.07 C287.03,49.89 299.45,48.99 305.93,48.99 C306.65,48.99 307.01,49.17 307.01,49.98 C307.28,55.29 307.28,60.33 307.1,64.74 C307.1,65.82 307.01,66 305.48,66 L254.27,66 C253.82,66 254,64.56 254.18,64.29 Z M341.75,3.18 C362,3.18 372.08,18.48 372.08,35.67 C372.08,52.95 362.54,67.89 342.2,67.89 C322.49,67.89 312.14,52.95 312.23,35.49 C312.32,18.03 321.41,3.18 341.75,3.18 Z M350.66,35.94 C350.66,26.58 348.32,20.73 341.84,20.73 C335.63,20.73 333.92,26.94 333.92,34.68 C333.92,44.22 336.17,50.16 342.38,50.16 C349.76,50.16 350.66,42.24 350.66,35.94 Z" id="‘20"></path>
                        </g>
                    </g>
                </g>
                <g id="Group-2-Copy-2" transform="translate(38.000000, 170.000000)">
                    <rect id="Rectangle" fill="#FFFFFF" x="0" y="0" width="297" height="62" rx="31"></rect>
                    <path d="M46.2490234,25.7734375 L41.8154297,25.7734375 L41.8154297,38 L39.3642578,38 L39.3642578,25.7734375 L34.9697266,25.7734375 L34.9697266,23.78125 L46.2490234,23.78125 L46.2490234,25.7734375 Z M52.5576172,38 C52.45345,37.7981761 52.3623051,37.4694033 52.2841797,37.0136719 C51.5289676,37.8014362 50.6044977,38.1953125 49.5107422,38.1953125 C48.449539,38.1953125 47.5836622,37.8925812 46.9130859,37.2871094 C46.2425097,36.6816376 45.9072266,35.9329472 45.9072266,35.0410156 C45.9072266,33.9147079 46.3255167,33.0504587 47.1621094,32.4482422 C47.9987021,31.8460256 49.1949792,31.5449219 50.7509766,31.5449219 L52.2060547,31.5449219 L52.2060547,30.8515625 C52.2060547,30.3046848 52.0530614,29.8668636 51.7470703,29.5380859 C51.4410792,29.2093083 50.9755891,29.0449219 50.3505859,29.0449219 C49.8102187,29.0449219 49.3675147,29.1800117 49.0224609,29.4501953 C48.6774071,29.720379 48.5048828,30.0638 48.5048828,30.4804688 L46.1318359,30.4804688 C46.1318359,29.9010388 46.3238913,29.359052 46.7080078,28.8544922 C47.0921243,28.3499324 47.61458,27.9544285 48.2753906,27.6679688 C48.9362012,27.381509 49.6734985,27.2382812 50.4873047,27.2382812 C51.72429,27.2382812 52.7106083,27.5491505 53.4462891,28.1708984 C54.1819698,28.7926463 54.5595702,29.666661 54.5791016,30.7929688 L54.5791016,35.5585938 C54.5791016,36.5091193 54.7125638,37.2675753 54.9794922,37.8339844 L54.9794922,38 L52.5576172,38 Z M49.9501953,36.2910156 C50.4189477,36.2910156 50.860024,36.1770845 51.2734375,35.9492188 C51.686851,35.721353 51.9977203,35.4153665 52.2060547,35.03125 L52.2060547,33.0390625 L50.9267578,33.0390625 C50.0478472,33.0390625 49.3870465,33.1920558 48.9443359,33.4980469 C48.5016254,33.804038 48.2802734,34.2369764 48.2802734,34.796875 C48.2802734,35.2526064 48.4316391,35.6155585 48.734375,35.8857422 C49.0371109,36.1559258 49.4423803,36.2910156 49.9501953,36.2910156 Z M66.3173828,32.8242188 C66.3173828,34.4583415 65.9462928,35.7620394 65.2041016,36.7353516 C64.4619104,37.7086637 63.4658266,38.1953125 62.2158203,38.1953125 C61.0569604,38.1953125 60.1292353,37.8144569 59.4326172,37.0527344 L59.4326172,42.0625 L57.0595703,42.0625 L57.0595703,27.4335938 L59.2470703,27.4335938 L59.3447266,28.5078125 C60.0413446,27.6614541 60.9886008,27.2382812 62.1865234,27.2382812 C63.4755924,27.2382812 64.4863245,27.7184197 65.21875,28.6787109 C65.9511755,29.6390022 66.3173828,30.9719967 66.3173828,32.6777344 L66.3173828,32.8242188 Z M63.9541016,32.6191406 C63.9541016,31.5644479 63.7441427,30.7278677 63.3242188,30.109375 C62.9042948,29.4908823 62.3037148,29.1816406 61.5224609,29.1816406 C60.552404,29.1816406 59.8557964,29.5820272 59.4326172,30.3828125 L59.4326172,35.0703125 C59.8623068,35.8906291 60.5654248,36.3007812 61.5419922,36.3007812 C62.2972043,36.3007812 62.8880187,35.9964223 63.3144531,35.3876953 C63.7408875,34.7789683 63.9541016,33.856126 63.9541016,32.6191406 Z M72.8603516,32.6191406 C72.8603516,31.5839792 73.0654276,30.6513713 73.4755859,29.8212891 C73.8857442,28.9912068 74.4619104,28.3531923 75.2041016,27.9072266 C75.9462928,27.4612608 76.7991488,27.2382812 77.7626953,27.2382812 C79.1884837,27.2382812 80.3456987,27.697261 81.234375,28.6152344 C82.1230513,29.5332077 82.6031897,30.7506435 82.6748047,32.2675781 L82.6845703,32.8242188 C82.6845703,33.8658906 82.484377,34.7968709 82.0839844,35.6171875 C81.6835917,36.4375041 81.1106808,37.0722634 80.3652344,37.5214844 C79.6197879,37.9707054 78.7587939,38.1953125 77.7822266,38.1953125 C76.2913337,38.1953125 75.0983118,37.6988982 74.203125,36.7060547 C73.3079382,35.7132112 72.8603516,34.3899822 72.8603516,32.7363281 L72.8603516,32.6191406 Z M75.2333984,32.8242188 C75.2333984,33.9114638 75.4580056,34.7626922 75.9072266,35.3779297 C76.3564476,35.9931671 76.9814413,36.3007812 77.7822266,36.3007812 C78.5830118,36.3007812 79.206378,35.9882844 79.6523438,35.3632812 C80.0983095,34.7382781 80.3212891,33.8235737 80.3212891,32.6191406 C80.3212891,31.551427 80.0917992,30.7050812 79.6328125,30.0800781 C79.1738258,29.455075 78.5504597,29.1425781 77.7626953,29.1425781 C76.9879519,29.1425781 76.3727236,29.4501922 75.9169922,30.0654297 C75.4612607,30.6806671 75.2333984,31.6002543 75.2333984,32.8242188 Z M90.2236328,29.6015625 C89.9111312,29.5494789 89.5888688,29.5234375 89.2568359,29.5234375 C88.1695909,29.5234375 87.4371764,29.9401 87.0595703,30.7734375 L87.0595703,38 L84.6865234,38 L84.6865234,27.4335938 L86.9521484,27.4335938 L87.0107422,28.6152344 C87.5836617,27.697261 88.3779246,27.2382812 89.3935547,27.2382812 C89.732098,27.2382812 90.0120432,27.2838537 90.2333984,27.375 L90.2236328,29.6015625 Z M101.043945,36.3007812 C101.636396,36.3007812 102.127928,36.1282569 102.518555,35.7832031 C102.909182,35.4381493 103.117513,35.0117213 103.143555,34.5039062 L105.379883,34.5039062 C105.353841,35.1614616 105.148765,35.7750623 104.764648,36.3447266 C104.380532,36.9143909 103.859704,37.3652327 103.202148,37.6972656 C102.544593,38.0292985 101.834965,38.1953125 101.073242,38.1953125 C99.5953702,38.1953125 98.4235069,37.7168017 97.5576172,36.7597656 C96.6917274,35.8027296 96.2587891,34.4811282 96.2587891,32.7949219 L96.2587891,32.5507812 C96.2587891,30.9427003 96.6884723,29.6552783 97.5478516,28.6884766 C98.4072309,27.7216749 99.5790941,27.2382812 101.063477,27.2382812 C102.319993,27.2382812 103.343746,27.6044885 104.134766,28.3369141 C104.925785,29.0693396 105.34082,30.031244 105.379883,31.2226562 L103.143555,31.2226562 C103.117513,30.6171845 102.910809,30.1191426 102.523438,29.7285156 C102.136066,29.3378887 101.642907,29.1425781 101.043945,29.1425781 C100.275712,29.1425781 99.6832703,29.4208957 99.2666016,29.9775391 C98.8499328,30.5341825 98.6383464,31.3789006 98.6318359,32.5117188 L98.6318359,32.8925781 C98.6318359,34.0384172 98.8385396,34.8929008 99.2519531,35.4560547 C99.6653667,36.0192085 100.262691,36.3007812 101.043945,36.3007812 Z M109.696289,38 L107.323242,38 L107.323242,23 L109.696289,23 L109.696289,38 Z M114.803711,38 L112.430664,38 L112.430664,27.4335938 L114.803711,27.4335938 L114.803711,38 Z M112.28418,24.6894531 C112.28418,24.324868 112.399738,24.0221366 112.630859,23.78125 C112.86198,23.5403634 113.192381,23.4199219 113.62207,23.4199219 C114.05176,23.4199219 114.383788,23.5403634 114.618164,23.78125 C114.85254,24.0221366 114.969727,24.324868 114.969727,24.6894531 C114.969727,25.0475278 114.85254,25.3453764 114.618164,25.5830078 C114.383788,25.8206392 114.05176,25.9394531 113.62207,25.9394531 C113.192381,25.9394531 112.86198,25.8206392 112.630859,25.5830078 C112.399738,25.3453764 112.28418,25.0475278 112.28418,24.6894531 Z M121.727539,36.3007812 C122.31999,36.3007812 122.811521,36.1282569 123.202148,35.7832031 C123.592775,35.4381493 123.801107,35.0117213 123.827148,34.5039062 L126.063477,34.5039062 C126.037435,35.1614616 125.832359,35.7750623 125.448242,36.3447266 C125.064126,36.9143909 124.543298,37.3652327 123.885742,37.6972656 C123.228187,38.0292985 122.518558,38.1953125 121.756836,38.1953125 C120.278964,38.1953125 119.107101,37.7168017 118.241211,36.7597656 C117.375321,35.8027296 116.942383,34.4811282 116.942383,32.7949219 L116.942383,32.5507812 C116.942383,30.9427003 117.372066,29.6552783 118.231445,28.6884766 C119.090825,27.7216749 120.262688,27.2382812 121.74707,27.2382812 C123.003587,27.2382812 124.02734,27.6044885 124.818359,28.3369141 C125.609379,29.0693396 126.024414,30.031244 126.063477,31.2226562 L123.827148,31.2226562 C123.801107,30.6171845 123.594403,30.1191426 123.207031,29.7285156 C122.81966,29.3378887 122.3265,29.1425781 121.727539,29.1425781 C120.959306,29.1425781 120.366864,29.4208957 119.950195,29.9775391 C119.533527,30.5341825 119.32194,31.3789006 119.31543,32.5117188 L119.31543,32.8925781 C119.31543,34.0384172 119.522133,34.8929008 119.935547,35.4560547 C120.34896,36.0192085 120.946285,36.3007812 121.727539,36.3007812 Z M131.288086,33.46875 L130.233398,34.5527344 L130.233398,38 L127.860352,38 L127.860352,23 L130.233398,23 L130.233398,31.6523438 L130.975586,30.7246094 L133.895508,27.4335938 L136.74707,27.4335938 L132.821289,31.8378906 L137.166992,38 L134.422852,38 L131.288086,33.46875 Z M146.249023,24.8652344 L146.249023,27.4335938 L148.114258,27.4335938 L148.114258,29.1914062 L146.249023,29.1914062 L146.249023,35.0898438 C146.249023,35.4934916 146.328775,35.7848298 146.488281,35.9638672 C146.647787,36.1429045 146.932615,36.2324219 147.342773,36.2324219 C147.616212,36.2324219 147.892902,36.1998701 148.172852,36.1347656 L148.172852,37.9707031 C147.632484,38.1204435 147.111656,38.1953125 146.610352,38.1953125 C144.787426,38.1953125 143.875977,37.1894632 143.875977,35.1777344 L143.875977,29.1914062 L142.137695,29.1914062 L142.137695,27.4335938 L143.875977,27.4335938 L143.875977,24.8652344 L146.249023,24.8652344 Z M149.188477,32.6191406 C149.188477,31.5839792 149.393553,30.6513713 149.803711,29.8212891 C150.213869,28.9912068 150.790035,28.3531923 151.532227,27.9072266 C152.274418,27.4612608 153.127274,27.2382812 154.09082,27.2382812 C155.516609,27.2382812 156.673824,27.697261 157.5625,28.6152344 C158.451176,29.5332077 158.931315,30.7506435 159.00293,32.2675781 L159.012695,32.8242188 C159.012695,33.8658906 158.812502,34.7968709 158.412109,35.6171875 C158.011717,36.4375041 157.438806,37.0722634 156.693359,37.5214844 C155.947913,37.9707054 155.086919,38.1953125 154.110352,38.1953125 C152.619459,38.1953125 151.426437,37.6988982 150.53125,36.7060547 C149.636063,35.7132112 149.188477,34.3899822 149.188477,32.7363281 L149.188477,32.6191406 Z M151.561523,32.8242188 C151.561523,33.9114638 151.786131,34.7626922 152.235352,35.3779297 C152.684573,35.9931671 153.309566,36.3007812 154.110352,36.3007812 C154.911137,36.3007812 155.534503,35.9882844 155.980469,35.3632812 C156.426435,34.7382781 156.649414,33.8235737 156.649414,32.6191406 C156.649414,31.551427 156.419924,30.7050812 155.960938,30.0800781 C155.501951,29.455075 154.878585,29.1425781 154.09082,29.1425781 C153.316077,29.1425781 152.700849,29.4501922 152.245117,30.0654297 C151.789386,30.6806671 151.561523,31.6002543 151.561523,32.8242188 Z M165.584961,32.6386719 C165.584961,30.9980387 165.970699,29.6878304 166.742188,28.7080078 C167.513676,27.7281852 168.537429,27.2382812 169.813477,27.2382812 C171.01791,27.2382812 171.965166,27.6581989 172.655273,28.4980469 L172.762695,27.4335938 L174.901367,27.4335938 L174.901367,37.6777344 C174.901367,39.0644601 174.470056,40.1581991 173.607422,40.9589844 C172.744787,41.7597696 171.581062,42.1601562 170.116211,42.1601562 C169.341467,42.1601562 168.584639,41.999025 167.845703,41.6767578 C167.106767,41.3544906 166.545249,40.9329453 166.161133,40.4121094 L167.28418,38.9863281 C168.01335,39.8522179 168.911779,40.2851562 169.979492,40.2851562 C170.767257,40.2851562 171.388995,40.0719422 171.844727,39.6455078 C172.300458,39.2190734 172.52832,38.5924521 172.52832,37.765625 L172.52832,37.0527344 C171.844723,37.8144569 170.933274,38.1953125 169.793945,38.1953125 C168.55696,38.1953125 167.546228,37.703781 166.761719,36.7207031 C165.97721,35.7376253 165.584961,34.3769618 165.584961,32.6386719 Z M167.948242,32.84375 C167.948242,33.9049532 168.164711,34.7399058 168.597656,35.3486328 C169.030601,35.9573598 169.631181,36.2617188 170.399414,36.2617188 C171.35645,36.2617188 172.066078,35.8515666 172.52832,35.03125 L172.52832,30.3828125 C172.079099,29.5820272 171.375981,29.1816406 170.418945,29.1816406 C169.637691,29.1816406 169.030601,29.4908823 168.597656,30.109375 C168.164711,30.7278677 167.948242,31.6393169 167.948242,32.84375 Z M181.991211,38.1953125 C180.487297,38.1953125 179.268234,37.7216844 178.333984,36.7744141 C177.399735,35.8271437 176.932617,34.5657631 176.932617,32.9902344 L176.932617,32.6972656 C176.932617,31.6425729 177.136066,30.7001995 177.542969,29.8701172 C177.949872,29.0400349 178.521155,28.3938825 179.256836,27.9316406 C179.992517,27.4693987 180.812821,27.2382812 181.717773,27.2382812 C183.156583,27.2382812 184.268225,27.697261 185.052734,28.6152344 C185.837244,29.5332077 186.229492,30.8320229 186.229492,32.5117188 L186.229492,33.46875 L179.325195,33.46875 C179.39681,34.3411502 179.688148,35.0312475 180.199219,35.5390625 C180.710289,36.0468775 181.353186,36.3007812 182.12793,36.3007812 C183.215175,36.3007812 184.100583,35.8613325 184.78418,34.9824219 L186.063477,36.203125 C185.640297,36.8346386 185.075524,37.3245425 184.369141,37.6728516 C183.662757,38.0211606 182.870122,38.1953125 181.991211,38.1953125 Z M181.708008,29.1425781 C181.056963,29.1425781 180.531252,29.3704404 180.130859,29.8261719 C179.730467,30.2819033 179.474935,30.9166626 179.364258,31.7304688 L183.885742,31.7304688 L183.885742,31.5546875 C183.833659,30.7604127 183.622072,30.1598328 183.250977,29.7529297 C182.879881,29.3460266 182.365563,29.1425781 181.708008,29.1425781 Z M191.043945,24.8652344 L191.043945,27.4335938 L192.90918,27.4335938 L192.90918,29.1914062 L191.043945,29.1914062 L191.043945,35.0898438 C191.043945,35.4934916 191.123697,35.7848298 191.283203,35.9638672 C191.442709,36.1429045 191.727537,36.2324219 192.137695,36.2324219 C192.411134,36.2324219 192.687824,36.1998701 192.967773,36.1347656 L192.967773,37.9707031 C192.427406,38.1204435 191.906578,38.1953125 191.405273,38.1953125 C189.582348,38.1953125 188.670898,37.1894632 188.670898,35.1777344 L188.670898,29.1914062 L186.932617,29.1914062 L186.932617,27.4335938 L188.670898,27.4335938 L188.670898,24.8652344 L191.043945,24.8652344 Z M205.624023,35.1289062 C205.624023,34.7057271 205.449872,34.3834646 205.101562,34.1621094 C204.753253,33.9407541 204.17546,33.7454436 203.368164,33.5761719 C202.560868,33.4069002 201.887047,33.1920586 201.34668,32.9316406 C200.161778,32.3587211 199.569336,31.5286513 199.569336,30.4414062 C199.569336,29.5299434 199.953447,28.7682322 200.72168,28.15625 C201.489913,27.5442678 202.466465,27.2382812 203.651367,27.2382812 C204.914394,27.2382812 205.934892,27.5507781 206.712891,28.1757812 C207.490889,28.8007844 207.879883,29.6113231 207.879883,30.6074219 L205.506836,30.6074219 C205.506836,30.1516904 205.337567,29.7724625 204.999023,29.4697266 C204.66048,29.1669907 204.211266,29.015625 203.651367,29.015625 C203.130531,29.015625 202.705731,29.1360665 202.376953,29.3769531 C202.048175,29.6178397 201.883789,29.9401021 201.883789,30.34375 C201.883789,30.7083352 202.036782,30.9915354 202.342773,31.1933594 C202.648765,31.3951833 203.267248,31.5986318 204.198242,31.8037109 C205.129236,32.0087901 205.860023,32.2529283 206.390625,32.5361328 C206.921227,32.8193374 207.315103,33.1595032 207.572266,33.5566406 C207.829428,33.953778 207.958008,34.435544 207.958008,35.0019531 C207.958008,35.9524787 207.564132,36.7223278 206.776367,37.3115234 C205.988603,37.9007191 204.956712,38.1953125 203.680664,38.1953125 C202.814774,38.1953125 202.043298,38.0390641 201.366211,37.7265625 C200.689124,37.4140609 200.161786,36.9843777 199.78418,36.4375 C199.406574,35.8906223 199.217773,35.3014354 199.217773,34.6699219 L201.522461,34.6699219 C201.555013,35.2298205 201.7666,35.6611313 202.157227,35.9638672 C202.547854,36.2666031 203.065426,36.4179688 203.709961,36.4179688 C204.334964,36.4179688 204.81022,36.2991548 205.135742,36.0615234 C205.461265,35.823892 205.624023,35.5130228 205.624023,35.1289062 Z M212.99707,24.8652344 L212.99707,27.4335938 L214.862305,27.4335938 L214.862305,29.1914062 L212.99707,29.1914062 L212.99707,35.0898438 C212.99707,35.4934916 213.076822,35.7848298 213.236328,35.9638672 C213.395834,36.1429045 213.680662,36.2324219 214.09082,36.2324219 C214.364259,36.2324219 214.640949,36.1998701 214.920898,36.1347656 L214.920898,37.9707031 C214.380531,38.1204435 213.859703,38.1953125 213.358398,38.1953125 C211.535473,38.1953125 210.624023,37.1894632 210.624023,35.1777344 L210.624023,29.1914062 L208.885742,29.1914062 L208.885742,27.4335938 L210.624023,27.4335938 L210.624023,24.8652344 L212.99707,24.8652344 Z M222.987305,38 C222.883138,37.7981761 222.791993,37.4694033 222.713867,37.0136719 C221.958655,37.8014362 221.034185,38.1953125 219.94043,38.1953125 C218.879226,38.1953125 218.01335,37.8925812 217.342773,37.2871094 C216.672197,36.6816376 216.336914,35.9329472 216.336914,35.0410156 C216.336914,33.9147079 216.755204,33.0504587 217.591797,32.4482422 C218.42839,31.8460256 219.624667,31.5449219 221.180664,31.5449219 L222.635742,31.5449219 L222.635742,30.8515625 C222.635742,30.3046848 222.482749,29.8668636 222.176758,29.5380859 C221.870767,29.2093083 221.405277,29.0449219 220.780273,29.0449219 C220.239906,29.0449219 219.797202,29.1800117 219.452148,29.4501953 C219.107095,29.720379 218.93457,30.0638 218.93457,30.4804688 L216.561523,30.4804688 C216.561523,29.9010388 216.753579,29.359052 217.137695,28.8544922 C217.521812,28.3499324 218.044268,27.9544285 218.705078,27.6679688 C219.365889,27.381509 220.103186,27.2382812 220.916992,27.2382812 C222.153978,27.2382812 223.140296,27.5491505 223.875977,28.1708984 C224.611657,28.7926463 224.989258,29.666661 225.008789,30.7929688 L225.008789,35.5585938 C225.008789,36.5091193 225.142251,37.2675753 225.40918,37.8339844 L225.40918,38 L222.987305,38 Z M220.379883,36.2910156 C220.848635,36.2910156 221.289711,36.1770845 221.703125,35.9492188 C222.116539,35.721353 222.427408,35.4153665 222.635742,35.03125 L222.635742,33.0390625 L221.356445,33.0390625 C220.477535,33.0390625 219.816734,33.1920558 219.374023,33.4980469 C218.931313,33.804038 218.709961,34.2369764 218.709961,34.796875 C218.709961,35.2526064 218.861327,35.6155585 219.164062,35.8857422 C219.466798,36.1559258 219.872068,36.2910156 220.379883,36.2910156 Z M233.026367,29.6015625 C232.713866,29.5494789 232.391603,29.5234375 232.05957,29.5234375 C230.972325,29.5234375 230.239911,29.9401 229.862305,30.7734375 L229.862305,38 L227.489258,38 L227.489258,27.4335938 L229.754883,27.4335938 L229.813477,28.6152344 C230.386396,27.697261 231.180659,27.2382812 232.196289,27.2382812 C232.534832,27.2382812 232.814778,27.2838537 233.036133,27.375 L233.026367,29.6015625 Z M237.987305,24.8652344 L237.987305,27.4335938 L239.852539,27.4335938 L239.852539,29.1914062 L237.987305,29.1914062 L237.987305,35.0898438 C237.987305,35.4934916 238.067056,35.7848298 238.226562,35.9638672 C238.386069,36.1429045 238.670896,36.2324219 239.081055,36.2324219 C239.354494,36.2324219 239.631183,36.1998701 239.911133,36.1347656 L239.911133,37.9707031 C239.370766,38.1204435 238.849937,38.1953125 238.348633,38.1953125 C236.525707,38.1953125 235.614258,37.1894632 235.614258,35.1777344 L235.614258,29.1914062 L233.875977,29.1914062 L233.875977,27.4335938 L235.614258,27.4335938 L235.614258,24.8652344 L237.987305,24.8652344 Z M246.317383,38.1953125 C244.813469,38.1953125 243.594406,37.7216844 242.660156,36.7744141 C241.725907,35.8271437 241.258789,34.5657631 241.258789,32.9902344 L241.258789,32.6972656 C241.258789,31.6425729 241.462238,30.7001995 241.869141,29.8701172 C242.276044,29.0400349 242.847327,28.3938825 243.583008,27.9316406 C244.318689,27.4693987 245.138993,27.2382812 246.043945,27.2382812 C247.482755,27.2382812 248.594397,27.697261 249.378906,28.6152344 C250.163415,29.5332077 250.555664,30.8320229 250.555664,32.5117188 L250.555664,33.46875 L243.651367,33.46875 C243.722982,34.3411502 244.01432,35.0312475 244.525391,35.5390625 C245.036461,36.0468775 245.679358,36.3007812 246.454102,36.3007812 C247.541347,36.3007812 248.426754,35.8613325 249.110352,34.9824219 L250.389648,36.203125 C249.966469,36.8346386 249.401696,37.3245425 248.695312,37.6728516 C247.988929,38.0211606 247.196293,38.1953125 246.317383,38.1953125 Z M246.03418,29.1425781 C245.383135,29.1425781 244.857424,29.3704404 244.457031,29.8261719 C244.056639,30.2819033 243.801107,30.9166626 243.69043,31.7304688 L248.211914,31.7304688 L248.211914,31.5546875 C248.15983,30.7604127 247.948244,30.1598328 247.577148,29.7529297 C247.206053,29.3460266 246.691735,29.1425781 246.03418,29.1425781 Z M251.952148,32.6386719 C251.952148,31.0110596 252.329749,29.7041065 253.084961,28.7177734 C253.840173,27.7314404 254.852533,27.2382812 256.12207,27.2382812 C257.241868,27.2382812 258.146806,27.6289023 258.836914,28.4101562 L258.836914,23 L261.209961,23 L261.209961,38 L259.061523,38 L258.944336,36.90625 C258.234697,37.7656293 257.287441,38.1953125 256.102539,38.1953125 C254.865554,38.1953125 253.864587,37.6972706 253.099609,36.7011719 C252.334632,35.7050731 251.952148,34.35092 251.952148,32.6386719 Z M254.325195,32.84375 C254.325195,33.9179741 254.531899,34.7561819 254.945312,35.3583984 C255.358726,35.960615 255.946285,36.2617188 256.708008,36.2617188 C257.678065,36.2617188 258.387693,35.8287804 258.836914,34.9628906 L258.836914,30.4511719 C258.400714,29.6048135 257.697596,29.1816406 256.727539,29.1816406 C255.959306,29.1816406 255.366864,29.4859996 254.950195,30.0947266 C254.533527,30.7034536 254.325195,31.6197855 254.325195,32.84375 Z" id="Tap-or-click-to-get" fill="#321F65"></path>
                </g>
            </g>
        </g>
    </g>
</svg>