<?xml version="1.0" encoding="UTF-8"?>
<svg width="91px" height="112px" viewBox="0 0 91 112" version="1.1" xmlns="http://www.w3.org/2000/svg" xmlns:xlink="http://www.w3.org/1999/xlink">
    <!-- Generator: Sketch 52.6 (67491) - http://www.bohemiancoding.com/sketch -->
    <title>Group 14</title>
    <desc>Created with Sketch.</desc>
    <g id="Page-1" stroke="none" stroke-width="1" fill="none" fill-rule="evenodd">
        <g id="Artboard" transform="translate(-732.000000, -538.000000)" fill="#B498FF">
            <g id="Group-7-Copy-3" transform="translate(282.000000, 391.000000)">
                <g id="Group-5" transform="translate(449.000000, 0.000000)">
                    <g id="Group-14" transform="translate(1.000000, 147.000000)">
                        <path d="M4.6496582,107.704102 L12.1081543,107.704102 L12.1081543,111 L0.364990234,111 L0.364990234,93.2265625 L4.6496582,93.2265625 L4.6496582,107.704102 Z M24.9377441,103.468262 L18.1994629,103.468262 L18.1994629,107.704102 L26.1584473,107.704102 L26.1584473,111 L13.9147949,111 L13.9147949,93.2265625 L26.1828613,93.2265625 L26.1828613,96.534668 L18.1994629,96.534668 L18.1994629,100.282227 L24.9377441,100.282227 L24.9377441,103.468262 Z M37.9992676,107.679688 L32.1276855,107.679688 L31.1022949,111 L26.5246582,111 L33.0432129,93.2265625 L37.0715332,93.2265625 L43.638916,111 L39.0368652,111 L37.9992676,107.679688 Z M33.1530762,104.371582 L36.973877,104.371582 L35.057373,98.2070312 L33.1530762,104.371582 Z M59.2272949,108.802734 C58.5681119,109.53516 57.6037661,110.125161 56.3342285,110.572754 C55.0646909,111.020347 53.6731033,111.244141 52.1594238,111.244141 C49.8319382,111.244141 47.9724191,110.532071 46.5808105,109.10791 C45.189202,107.683749 44.4445806,105.702161 44.3469238,103.163086 L44.3347168,101.625 C44.3347168,99.8753168 44.6439585,98.3474186 45.2624512,97.0412598 C45.8809438,95.7351009 46.7659448,94.7300654 47.9174805,94.026123 C49.0690162,93.3221807 50.4016038,92.9702148 51.9152832,92.9702148 C54.1288359,92.9702148 55.8479756,93.4768016 57.0727539,94.4899902 C58.2975322,95.5031789 59.0116364,97.0148011 59.2150879,99.0249023 L55.0891113,99.0249023 C54.9426262,98.0320588 54.6252466,97.3240581 54.1369629,96.9008789 C53.6486792,96.4776997 52.9569543,96.2661133 52.0617676,96.2661133 C50.9875435,96.2661133 50.1574736,96.7218379 49.5715332,97.6333008 C48.9855928,98.5447637 48.688558,99.846834 48.6804199,101.539551 L48.6804199,102.61377 C48.6804199,104.387867 48.9835582,105.720455 49.5898438,106.611572 C50.1961293,107.50269 51.1503027,107.948242 52.4523926,107.948242 C53.567307,107.948242 54.3973768,107.700035 54.942627,107.203613 L54.942627,104.444824 L51.9641113,104.444824 L51.9641113,101.50293 L59.2272949,101.50293 L59.2272949,108.802734 Z M75.657959,93.2265625 L75.657959,104.859863 C75.657959,106.178229 75.3772001,107.319575 74.8156738,108.283936 C74.2541476,109.248296 73.4484916,109.982745 72.3986816,110.487305 C71.3488717,110.991865 70.1078359,111.244141 68.6755371,111.244141 C66.5108127,111.244141 64.8059144,110.682623 63.560791,109.55957 C62.3156676,108.436518 61.6809083,106.898447 61.6564941,104.945312 L61.6564941,93.2265625 L65.9655762,93.2265625 L65.9655762,105.030762 C66.0144045,106.975758 66.9177158,107.948242 68.6755371,107.948242 C69.5625858,107.948242 70.2339658,107.704104 70.6896973,107.21582 C71.1454287,106.727537 71.373291,105.934088 71.373291,104.835449 L71.373291,93.2265625 L75.657959,93.2265625 Z M89.354248,103.468262 L82.6159668,103.468262 L82.6159668,107.704102 L90.5749512,107.704102 L90.5749512,111 L78.3312988,111 L78.3312988,93.2265625 L90.5993652,93.2265625 L90.5993652,96.534668 L82.6159668,96.534668 L82.6159668,100.282227 L89.354248,100.282227 L89.354248,103.468262 Z" id="LEAGUE"></path>
                        <path d="M22.7678571,11.3313953 L15.6690476,11.3313953 L15.6690476,19.0337209 C15.6690476,22.4034884 17.025,25.4523256 19.1785714,27.6988372 C20.6142857,29.1430233 22.4488095,30.2662791 24.4428571,30.9081395 C24.1238095,30.1860465 23.8845238,29.3837209 23.6452381,28.5813953 C23.0869048,26.655814 22.7678571,24.5697674 22.7678571,22.4837209 L22.7678571,11.3313953 Z M24.7619048,0.5 L64.802381,0.5 C65.7595238,0.5 66.6369048,1.30232558 66.6369048,2.34534884 L66.6369048,7.72093023 L75.7297619,7.72093023 C76.7666667,7.72093023 77.5642857,8.52325581 77.5642857,9.56627907 L77.5642857,19.1139535 C77.5642857,23.4465116 75.8095238,27.4581395 72.9380952,30.3465116 C70.3059524,33.0744186 66.6369048,34.8395349 62.6488095,35.1604651 C60.3357143,38.45 57.1452381,41.0976744 53.4761905,42.7023256 C52.4392857,43.1837209 51.6416667,43.8255814 51.0833333,44.7081395 C50.525,45.5906977 50.2059524,46.6337209 50.2059524,47.7569767 L50.2059524,52.972093 L57.5440476,52.972093 C58.5011905,52.972093 59.3785714,53.7744186 59.3785714,54.8174419 L59.3785714,60.2732558 L30.1857143,60.2732558 L30.1857143,54.8174419 C30.1857143,53.7744186 30.9833333,52.972093 32.0202381,52.972093 L39.3583333,52.972093 L39.3583333,47.7569767 C39.3583333,46.6337209 39.0392857,45.5906977 38.4809524,44.7081395 C37.922619,43.8255814 37.0452381,43.1034884 36.0880952,42.7023256 C32.4190476,41.0976744 29.2285714,38.45 26.9154762,35.1604651 C22.927381,34.9197674 19.2583333,33.0744186 16.6261905,30.3465116 C13.8345238,27.4581395 12,23.4465116 12,19.1139535 L12,9.48604651 C12,8.52325581 12.797619,7.64069767 13.8345238,7.64069767 L22.927381,7.64069767 L22.927381,2.34534884 C22.927381,1.30232558 23.725,0.5 24.7619048,0.5 Z M59.2988095,60.9151163 L61.2928571,60.9151163 C62.25,60.9151163 63.127381,61.7174419 63.127381,62.7604651 L63.127381,67.1732558 C63.127381,68.1360465 62.3297619,69.0186047 61.2928571,69.0186047 L28.2714286,69.0186047 C27.2345238,69.0186047 26.4369048,68.2162791 26.4369048,67.1732558 L26.4369048,62.7604651 C26.4369048,61.7976744 27.2345238,60.9151163 28.2714286,60.9151163 L30.1857143,60.9151163 L59.2988095,60.9151163 Z M73.8952381,11.3313953 L66.7964286,11.3313953 L66.7964286,22.4837209 C66.7964286,24.5697674 66.477381,26.655814 65.9190476,28.5813953 C65.6797619,29.3837209 65.4404762,30.1860465 65.1214286,30.9081395 C67.1154762,30.2662791 68.95,29.1430233 70.3857143,27.6988372 C72.5392857,25.4523256 73.8952381,22.4034884 73.8952381,19.0337209 L73.8952381,11.3313953 Z M57.5440476,8.52325581 C57.7035714,13.6581395 57.8630952,19.2744186 56.9059524,23.6069767 C56.1083333,27.377907 54.5130952,30.1860465 51.2428571,30.6674419 C50.2857143,30.827907 49.5678571,31.7906977 49.727381,32.7534884 C49.8869048,33.7162791 50.8440476,34.4383721 51.8011905,34.277907 C56.9059524,33.4755814 59.3785714,29.544186 60.4952381,24.3290698 C61.5321429,19.5953488 61.372619,13.8186047 61.2130952,8.44302326 C61.1333333,7.4 60.3357143,6.67790698 59.2988095,6.67790698 C58.3416667,6.67790698 57.5440476,7.56046512 57.5440476,8.52325581 Z" id="Combined-Shape" fill-rule="nonzero"></path>
                    </g>
                </g>
            </g>
        </g>
    </g>
</svg>