<?xml version="1.0" encoding="UTF-8"?>
<svg width="141px" height="112px" viewBox="0 0 141 112" version="1.1" xmlns="http://www.w3.org/2000/svg" xmlns:xlink="http://www.w3.org/1999/xlink">
    <!-- Generator: Sketch 52.6 (67491) - http://www.bohemiancoding.com/sketch -->
    <title>Group 12</title>
    <desc>Created with Sketch.</desc>
    <g id="Page-1" stroke="none" stroke-width="1" fill="none" fill-rule="evenodd">
        <g id="Artboard" transform="translate(-481.000000, -538.000000)" fill="#B498FF">
            <g id="Group-7-Copy-3" transform="translate(282.000000, 391.000000)">
                <g id="Group-4" transform="translate(197.666667, 0.000000)">
                    <g id="Group-12" transform="translate(1.000000, 147.000000)">
                        <path d="M15.3359375,96.534668 L10.0014648,96.534668 L10.0014648,111 L5.71679688,111 L5.71679688,96.534668 L0.479980469,96.534668 L0.479980469,93.2265625 L15.3359375,93.2265625 L15.3359375,96.534668 Z M23.746582,104.725586 L21.4272461,104.725586 L21.4272461,111 L17.1425781,111 L17.1425781,93.2265625 L24.137207,93.2265625 C26.244965,93.2265625 27.8928977,93.694494 29.0810547,94.6303711 C30.2692117,95.5662482 30.8632812,96.8886633 30.8632812,98.5976562 C30.8632812,99.8346416 30.6130396,100.860022 30.1125488,101.673828 C29.612058,102.487634 28.8287814,103.146807 27.7626953,103.651367 L31.4736328,110.816895 L31.4736328,111 L26.8837891,111 L23.746582,104.725586 Z M21.4272461,101.41748 L24.137207,101.41748 C24.9510132,101.41748 25.5633931,101.20386 25.9743652,100.776611 C26.3853373,100.349363 26.5908203,99.753259 26.5908203,98.9882812 C26.5908203,98.2233035 26.3833029,97.6231304 25.9682617,97.1877441 C25.5532206,96.7523578 24.9428751,96.534668 24.137207,96.534668 L21.4272461,96.534668 L21.4272461,101.41748 Z M43.5463867,107.679688 L37.6748047,107.679688 L36.6494141,111 L32.0717773,111 L38.590332,93.2265625 L42.6186523,93.2265625 L49.1860352,111 L44.5839844,111 L43.5463867,107.679688 Z M38.7001953,104.371582 L42.5209961,104.371582 L40.6044922,98.2070312 L38.7001953,104.371582 Z M65.3237305,111 L61.0634766,111 L54.7646484,99.9404297 L54.7646484,111 L50.4799805,111 L50.4799805,93.2265625 L54.7646484,93.2265625 L61.0512695,104.286133 L61.0512695,93.2265625 L65.3237305,93.2265625 L65.3237305,111 Z M77.2011719,106.275879 C77.2011719,105.649248 76.979413,105.160972 76.5358887,104.811035 C76.0923643,104.461099 75.3131566,104.09896 74.1982422,103.724609 C73.0833278,103.350259 72.1718785,102.98812 71.4638672,102.638184 C69.1607958,101.506993 68.0092773,99.9526466 68.0092773,97.9750977 C68.0092773,96.9903922 68.2961397,96.1216672 68.869873,95.3688965 C69.4436064,94.6161258 70.2553658,94.0301942 71.3051758,93.611084 C72.3549857,93.1919738 73.5349869,92.9824219 74.8452148,92.9824219 C76.1228905,92.9824219 77.2683055,93.2102842 78.2814941,93.6660156 C79.2946828,94.1217471 80.0820284,94.7707477 80.6435547,95.6130371 C81.2050809,96.4553265 81.4858398,97.4176378 81.4858398,98.5 L77.2133789,98.5 C77.2133789,97.7757125 76.9916201,97.2141947 76.5480957,96.8154297 C76.1045714,96.4166647 75.5043983,96.2172852 74.7475586,96.2172852 C73.9825808,96.2172852 73.3783388,96.3861474 72.9348145,96.723877 C72.4912901,97.0616065 72.2695312,97.4908828 72.2695312,98.0117188 C72.2695312,98.4674502 72.5136694,98.8804506 73.0019531,99.2507324 C73.4902368,99.6210142 74.3487894,100.003497 75.5776367,100.398193 C76.806484,100.792889 77.8155885,101.218097 78.6049805,101.673828 C80.525563,102.780604 81.4858398,104.306468 81.4858398,106.251465 C81.4858398,107.805835 80.8999082,109.026526 79.7280273,109.913574 C78.5561465,110.800623 76.9489034,111.244141 74.90625,111.244141 C73.4658131,111.244141 72.1617083,110.985761 70.9938965,110.468994 C69.8260847,109.952227 68.9471872,109.244227 68.3571777,108.344971 C67.7671683,107.445715 67.472168,106.410162 67.472168,105.238281 L71.769043,105.238281 C71.769043,106.190434 72.0152156,106.892332 72.5075684,107.343994 C72.9999211,107.795657 73.7994736,108.021484 74.90625,108.021484 C75.6142614,108.021484 76.1737447,107.868898 76.5847168,107.563721 C76.9956889,107.258543 77.2011719,106.829267 77.2011719,106.275879 Z M94.8769531,103.919922 L87.9677734,103.919922 L87.9677734,111 L83.6831055,111 L83.6831055,93.2265625 L95.5727539,93.2265625 L95.5727539,96.534668 L87.9677734,96.534668 L87.9677734,100.624023 L94.8769531,100.624023 L94.8769531,103.919922 Z M108.37793,103.468262 L101.639648,103.468262 L101.639648,107.704102 L109.598633,107.704102 L109.598633,111 L97.3549805,111 L97.3549805,93.2265625 L109.623047,93.2265625 L109.623047,96.534668 L101.639648,96.534668 L101.639648,100.282227 L108.37793,100.282227 L108.37793,103.468262 Z M117.948242,104.725586 L115.628906,104.725586 L115.628906,111 L111.344238,111 L111.344238,93.2265625 L118.338867,93.2265625 C120.446625,93.2265625 122.094558,93.694494 123.282715,94.6303711 C124.470872,95.5662482 125.064941,96.8886633 125.064941,98.5976562 C125.064941,99.8346416 124.8147,100.860022 124.314209,101.673828 C123.813718,102.487634 123.030442,103.146807 121.964355,103.651367 L125.675293,110.816895 L125.675293,111 L121.085449,111 L117.948242,104.725586 Z M115.628906,101.41748 L118.338867,101.41748 C119.152673,101.41748 119.765053,101.20386 120.176025,100.776611 C120.586997,100.349363 120.79248,99.753259 120.79248,98.9882812 C120.79248,98.2233035 120.584963,97.6231304 120.169922,97.1877441 C119.754881,96.7523578 119.144535,96.534668 118.338867,96.534668 L115.628906,96.534668 L115.628906,101.41748 Z M136.820312,106.275879 C136.820312,105.649248 136.598554,105.160972 136.155029,104.811035 C135.711505,104.461099 134.932297,104.09896 133.817383,103.724609 C132.702468,103.350259 131.791019,102.98812 131.083008,102.638184 C128.779936,101.506993 127.628418,99.9526466 127.628418,97.9750977 C127.628418,96.9903922 127.91528,96.1216672 128.489014,95.3688965 C129.062747,94.6161258 129.874506,94.0301942 130.924316,93.611084 C131.974126,93.1919738 133.154128,92.9824219 134.464355,92.9824219 C135.742031,92.9824219 136.887446,93.2102842 137.900635,93.6660156 C138.913823,94.1217471 139.701169,94.7707477 140.262695,95.6130371 C140.824222,96.4553265 141.10498,97.4176378 141.10498,98.5 L136.83252,98.5 C136.83252,97.7757125 136.610761,97.2141947 136.167236,96.8154297 C135.723712,96.4166647 135.123539,96.2172852 134.366699,96.2172852 C133.601721,96.2172852 132.997479,96.3861474 132.553955,96.723877 C132.110431,97.0616065 131.888672,97.4908828 131.888672,98.0117188 C131.888672,98.4674502 132.13281,98.8804506 132.621094,99.2507324 C133.109377,99.6210142 133.96793,100.003497 135.196777,100.398193 C136.425625,100.792889 137.434729,101.218097 138.224121,101.673828 C140.144704,102.780604 141.10498,104.306468 141.10498,106.251465 C141.10498,107.805835 140.519049,109.026526 139.347168,109.913574 C138.175287,110.800623 136.568044,111.244141 134.525391,111.244141 C133.084954,111.244141 131.780849,110.985761 130.613037,110.468994 C129.445225,109.952227 128.566328,109.244227 127.976318,108.344971 C127.386309,107.445715 127.091309,106.410162 127.091309,105.238281 L131.388184,105.238281 C131.388184,106.190434 131.634356,106.892332 132.126709,107.343994 C132.619062,107.795657 133.418614,108.021484 134.525391,108.021484 C135.233402,108.021484 135.792885,107.868898 136.203857,107.563721 C136.61483,107.258543 136.820312,106.829267 136.820312,106.275879 Z" id="TRANSFERS"></path>
                        <path d="M76.0453108,14.5576923 C75.0796224,14.5576923 74.2770868,15.3704054 74.2770868,16.3434344 L74.2770868,57.3242125 L67.6407349,57.3242125 C65.861487,57.3242125 64.7789459,59.4194536 65.8967633,60.8133121 L81.7049504,80.5856191 C82.6199292,81.7278706 84.2646862,81.7278706 85.1796649,80.5856191 L100.987852,60.8133121 C102.105669,59.4194536 101.023128,57.3242125 99.2438805,57.3242125 L92.6075286,57.3242125 L92.6075286,16.3434344 C92.6075286,15.3681788 91.8071978,14.5576923 90.8393046,14.5576923 L76.0453108,14.5576923 Z" id="Path" transform="translate(83.442308, 48.000000) rotate(-90.000000) translate(-83.442308, -48.000000) "></path>
                        <path d="M49.37942,-15.3511683 C48.4137316,-15.3511683 47.611196,-14.5384552 47.611196,-13.5654262 L47.611196,27.4153519 L40.9748441,27.4153519 C39.1955963,27.4153519 38.1130551,29.510593 39.2308725,30.9044515 L55.0390597,50.6767585 C55.9540384,51.81901 57.5987954,51.81901 58.5137742,50.6767585 L74.3219613,30.9044515 C75.4397787,29.510593 74.3572376,27.4153519 72.5779897,27.4153519 L65.9416378,27.4153519 L65.9416378,-13.5654262 C65.9416378,-14.5406818 65.141307,-15.3511683 64.1734138,-15.3511683 L49.37942,-15.3511683 Z" id="Path-Copy" transform="translate(56.776417, 18.091139) rotate(-270.000000) translate(-56.776417, -18.091139) "></path>
                    </g>
                </g>
            </g>
        </g>
    </g>
</svg>