<?xml version="1.0" encoding="UTF-8"?>
<svg width="141px" height="113px" viewBox="0 0 141 113" version="1.1" xmlns="http://www.w3.org/2000/svg" xmlns:xlink="http://www.w3.org/1999/xlink">
    <!-- Generator: Sketch 52.6 (67491) - http://www.bohemiancoding.com/sketch -->
    <title>Group 11</title>
    <desc>Created with Sketch.</desc>
    <g id="Page-1" stroke="none" stroke-width="1" fill="none" fill-rule="evenodd">
        <g id="Artboard" transform="translate(-480.000000, -391.000000)" fill="#FFFFFF">
            <g id="Group-7-Copy-3" transform="translate(282.000000, 391.000000)">
                <g id="Group-4" transform="translate(197.666667, 0.000000)">
                    <g id="Group-11">
                        <path d="M15.3359375,97.534668 L10.0014648,97.534668 L10.0014648,112 L5.71679688,112 L5.71679688,97.534668 L0.479980469,97.534668 L0.479980469,94.2265625 L15.3359375,94.2265625 L15.3359375,97.534668 Z M23.746582,105.725586 L21.4272461,105.725586 L21.4272461,112 L17.1425781,112 L17.1425781,94.2265625 L24.137207,94.2265625 C26.244965,94.2265625 27.8928977,94.694494 29.0810547,95.6303711 C30.2692117,96.5662482 30.8632812,97.8886633 30.8632812,99.5976562 C30.8632812,100.834642 30.6130396,101.860022 30.1125488,102.673828 C29.612058,103.487634 28.8287814,104.146807 27.7626953,104.651367 L31.4736328,111.816895 L31.4736328,112 L26.8837891,112 L23.746582,105.725586 Z M21.4272461,102.41748 L24.137207,102.41748 C24.9510132,102.41748 25.5633931,102.20386 25.9743652,101.776611 C26.3853373,101.349363 26.5908203,100.753259 26.5908203,99.9882812 C26.5908203,99.2233035 26.3833029,98.6231304 25.9682617,98.1877441 C25.5532206,97.7523578 24.9428751,97.534668 24.137207,97.534668 L21.4272461,97.534668 L21.4272461,102.41748 Z M43.5463867,108.679688 L37.6748047,108.679688 L36.6494141,112 L32.0717773,112 L38.590332,94.2265625 L42.6186523,94.2265625 L49.1860352,112 L44.5839844,112 L43.5463867,108.679688 Z M38.7001953,105.371582 L42.5209961,105.371582 L40.6044922,99.2070312 L38.7001953,105.371582 Z M65.3237305,112 L61.0634766,112 L54.7646484,100.94043 L54.7646484,112 L50.4799805,112 L50.4799805,94.2265625 L54.7646484,94.2265625 L61.0512695,105.286133 L61.0512695,94.2265625 L65.3237305,94.2265625 L65.3237305,112 Z M77.2011719,107.275879 C77.2011719,106.649248 76.979413,106.160972 76.5358887,105.811035 C76.0923643,105.461099 75.3131566,105.09896 74.1982422,104.724609 C73.0833278,104.350259 72.1718785,103.98812 71.4638672,103.638184 C69.1607958,102.506993 68.0092773,100.952647 68.0092773,98.9750977 C68.0092773,97.9903922 68.2961397,97.1216672 68.869873,96.3688965 C69.4436064,95.6161258 70.2553658,95.0301942 71.3051758,94.611084 C72.3549857,94.1919738 73.5349869,93.9824219 74.8452148,93.9824219 C76.1228905,93.9824219 77.2683055,94.2102842 78.2814941,94.6660156 C79.2946828,95.1217471 80.0820284,95.7707477 80.6435547,96.6130371 C81.2050809,97.4553265 81.4858398,98.4176378 81.4858398,99.5 L77.2133789,99.5 C77.2133789,98.7757125 76.9916201,98.2141947 76.5480957,97.8154297 C76.1045714,97.4166647 75.5043983,97.2172852 74.7475586,97.2172852 C73.9825808,97.2172852 73.3783388,97.3861474 72.9348145,97.723877 C72.4912901,98.0616065 72.2695312,98.4908828 72.2695312,99.0117188 C72.2695312,99.4674502 72.5136694,99.8804506 73.0019531,100.250732 C73.4902368,100.621014 74.3487894,101.003497 75.5776367,101.398193 C76.806484,101.792889 77.8155885,102.218097 78.6049805,102.673828 C80.525563,103.780604 81.4858398,105.306468 81.4858398,107.251465 C81.4858398,108.805835 80.8999082,110.026526 79.7280273,110.913574 C78.5561465,111.800623 76.9489034,112.244141 74.90625,112.244141 C73.4658131,112.244141 72.1617083,111.985761 70.9938965,111.468994 C69.8260847,110.952227 68.9471872,110.244227 68.3571777,109.344971 C67.7671683,108.445715 67.472168,107.410162 67.472168,106.238281 L71.769043,106.238281 C71.769043,107.190434 72.0152156,107.892332 72.5075684,108.343994 C72.9999211,108.795657 73.7994736,109.021484 74.90625,109.021484 C75.6142614,109.021484 76.1737447,108.868898 76.5847168,108.563721 C76.9956889,108.258543 77.2011719,107.829267 77.2011719,107.275879 Z M94.8769531,104.919922 L87.9677734,104.919922 L87.9677734,112 L83.6831055,112 L83.6831055,94.2265625 L95.5727539,94.2265625 L95.5727539,97.534668 L87.9677734,97.534668 L87.9677734,101.624023 L94.8769531,101.624023 L94.8769531,104.919922 Z M108.37793,104.468262 L101.639648,104.468262 L101.639648,108.704102 L109.598633,108.704102 L109.598633,112 L97.3549805,112 L97.3549805,94.2265625 L109.623047,94.2265625 L109.623047,97.534668 L101.639648,97.534668 L101.639648,101.282227 L108.37793,101.282227 L108.37793,104.468262 Z M117.948242,105.725586 L115.628906,105.725586 L115.628906,112 L111.344238,112 L111.344238,94.2265625 L118.338867,94.2265625 C120.446625,94.2265625 122.094558,94.694494 123.282715,95.6303711 C124.470872,96.5662482 125.064941,97.8886633 125.064941,99.5976562 C125.064941,100.834642 124.8147,101.860022 124.314209,102.673828 C123.813718,103.487634 123.030442,104.146807 121.964355,104.651367 L125.675293,111.816895 L125.675293,112 L121.085449,112 L117.948242,105.725586 Z M115.628906,102.41748 L118.338867,102.41748 C119.152673,102.41748 119.765053,102.20386 120.176025,101.776611 C120.586997,101.349363 120.79248,100.753259 120.79248,99.9882812 C120.79248,99.2233035 120.584963,98.6231304 120.169922,98.1877441 C119.754881,97.7523578 119.144535,97.534668 118.338867,97.534668 L115.628906,97.534668 L115.628906,102.41748 Z M136.820312,107.275879 C136.820312,106.649248 136.598554,106.160972 136.155029,105.811035 C135.711505,105.461099 134.932297,105.09896 133.817383,104.724609 C132.702468,104.350259 131.791019,103.98812 131.083008,103.638184 C128.779936,102.506993 127.628418,100.952647 127.628418,98.9750977 C127.628418,97.9903922 127.91528,97.1216672 128.489014,96.3688965 C129.062747,95.6161258 129.874506,95.0301942 130.924316,94.611084 C131.974126,94.1919738 133.154128,93.9824219 134.464355,93.9824219 C135.742031,93.9824219 136.887446,94.2102842 137.900635,94.6660156 C138.913823,95.1217471 139.701169,95.7707477 140.262695,96.6130371 C140.824222,97.4553265 141.10498,98.4176378 141.10498,99.5 L136.83252,99.5 C136.83252,98.7757125 136.610761,98.2141947 136.167236,97.8154297 C135.723712,97.4166647 135.123539,97.2172852 134.366699,97.2172852 C133.601721,97.2172852 132.997479,97.3861474 132.553955,97.723877 C132.110431,98.0616065 131.888672,98.4908828 131.888672,99.0117188 C131.888672,99.4674502 132.13281,99.8804506 132.621094,100.250732 C133.109377,100.621014 133.96793,101.003497 135.196777,101.398193 C136.425625,101.792889 137.434729,102.218097 138.224121,102.673828 C140.144704,103.780604 141.10498,105.306468 141.10498,107.251465 C141.10498,108.805835 140.519049,110.026526 139.347168,110.913574 C138.175287,111.800623 136.568044,112.244141 134.525391,112.244141 C133.084954,112.244141 131.780849,111.985761 130.613037,111.468994 C129.445225,110.952227 128.566328,110.244227 127.976318,109.344971 C127.386309,108.445715 127.091309,107.410162 127.091309,106.238281 L131.388184,106.238281 C131.388184,107.190434 131.634356,107.892332 132.126709,108.343994 C132.619062,108.795657 133.418614,109.021484 134.525391,109.021484 C135.233402,109.021484 135.792885,108.868898 136.203857,108.563721 C136.61483,108.258543 136.820312,107.829267 136.820312,107.275879 Z" id="TRANSFERS-Copy"></path>
                        <path d="M77.0453108,15.5576923 C76.0796224,15.5576923 75.2770868,16.3704054 75.2770868,17.3434344 L75.2770868,58.3242125 L68.6407349,58.3242125 C66.861487,58.3242125 65.7789459,60.4194536 66.8967633,61.8133121 L82.7049504,81.5856191 C83.6199292,82.7278706 85.2646862,82.7278706 86.1796649,81.5856191 L101.987852,61.8133121 C103.105669,60.4194536 102.023128,58.3242125 100.243881,58.3242125 L93.6075286,58.3242125 L93.6075286,17.3434344 C93.6075286,16.3681788 92.8071978,15.5576923 91.8393046,15.5576923 L77.0453108,15.5576923 Z" id="Path-Copy-2" transform="translate(84.442308, 49.000000) rotate(-90.000000) translate(-84.442308, -49.000000) "></path>
                        <path d="M50.7576576,-14.7294059 C49.7919692,-14.7294059 48.9894336,-13.9166928 48.9894336,-12.9436638 L48.9894336,28.0371143 L42.3530817,28.0371143 C40.5738339,28.0371143 39.4912927,30.1323554 40.6091101,31.5262139 L56.4172973,51.2985209 C57.332276,52.4407724 58.977033,52.4407724 59.8920117,51.2985209 L75.7001989,31.5262139 C76.8180163,30.1323554 75.7354752,28.0371143 73.9562273,28.0371143 L67.3198754,28.0371143 L67.3198754,-12.9436638 C67.3198754,-13.9189194 66.5195446,-14.7294059 65.5516514,-14.7294059 L50.7576576,-14.7294059 Z" id="Path-Copy-3" transform="translate(58.154655, 18.712902) rotate(-270.000000) translate(-58.154655, -18.712902) "></path>
                    </g>
                </g>
            </g>
        </g>
    </g>
</svg>