<?xml version="1.0" encoding="UTF-8"?>
<svg width="480px" height="115px" viewBox="0 0 480 115" version="1.1" xmlns="http://www.w3.org/2000/svg" xmlns:xlink="http://www.w3.org/1999/xlink">
    <!-- Generator: Sketch 52.6 (67491) - http://www.bohemiancoding.com/sketch -->
    <title>Artboard Copy 2</title>
    <desc>Created with Sketch.</desc>
    <g id="Artboard-Copy-2" stroke="none" stroke-width="1" fill="none" fill-rule="evenodd">
        <g id="Group-3-Copy" transform="translate(5.500000, -13.000000)">
            <g id="noun_chevron_152837" transform="translate(0.000000, 27.000000)" fill="#D54343" fill-rule="nonzero">
                <path d="M51.363,74.638 C54.879,78.151 54.879,83.852 51.363,87.365 C49.605,89.122 47.303,90.001 45,90.001 C42.697,90.001 40.395,89.122 38.637,87.364 L2.637,51.364 C-0.879,47.851 -0.879,42.15 2.637,38.637 L38.637,2.637 C42.153,-0.879 47.848,-0.879 51.364,2.637 C54.88,6.15 54.88,11.851 51.364,15.364 L21.727,45.001 L51.363,74.638 Z" id="Shape"></path>
                <path d="M102.363,74.638 C105.879,78.151 105.879,83.852 102.363,87.365 C100.605,89.122 98.303,90.001 96,90.001 C93.697,90.001 91.395,89.122 89.637,87.364 L53.637,51.364 C50.121,47.851 50.121,42.15 53.637,38.637 L89.637,2.637 C93.153,-0.879 98.848,-0.879 102.364,2.637 C105.88,6.15 105.88,11.851 102.364,15.364 L72.727,45.001 L102.363,74.638 Z" id="Shape-Copy"></path>
            </g>
            <path d="M234.849609,89.5742188 C234.849609,94.8994407 233.478285,99.6840608 230.735596,103.928223 C227.992906,108.172385 223.97903,111.495593 218.693848,113.897949 C213.408665,116.300305 207.142614,117.501465 199.895508,117.501465 C191.206988,117.501465 184.040067,115.85988 178.394531,112.57666 C174.390605,110.214344 171.137464,107.061299 168.63501,103.117432 C166.132556,99.1735643 164.881348,95.3398624 164.881348,91.6162109 C164.881348,89.4540908 165.632073,87.6023026 167.133545,86.060791 C168.635017,84.5192794 170.546863,83.7485352 172.869141,83.7485352 C174.750986,83.7485352 176.342523,84.3491151 177.643799,85.550293 C178.945075,86.7514708 180.056148,88.5331913 180.977051,90.8955078 C182.09815,93.6982562 183.30932,96.0405179 184.610596,97.9223633 C185.911872,99.8042086 187.743641,101.355707 190.105957,102.576904 C192.468274,103.798102 195.57127,104.408691 199.415039,104.408691 C204.700222,104.408691 208.994368,103.177503 212.297607,100.715088 C215.600847,98.2526732 217.252441,95.1797059 217.252441,91.4960938 C217.252441,88.5732276 216.361581,86.2009368 214.579834,84.3791504 C212.798087,82.5573639 210.495864,81.1660204 207.673096,80.2050781 C204.850328,79.2441358 201.076684,78.2231499 196.352051,77.1420898 C190.025847,75.6606371 184.730734,73.928965 180.466553,71.9470215 C176.202371,69.965078 172.819104,67.2624683 170.31665,63.8391113 C167.814196,60.4157544 166.562988,56.1616465 166.562988,51.0766602 C166.562988,46.2319094 167.884264,41.9277532 170.526855,38.1640625 C173.169447,34.4003718 176.993139,31.5075785 181.998047,29.4855957 C187.002955,27.4636129 192.888638,26.4526367 199.655273,26.4526367 C205.060574,26.4526367 209.735088,27.1232843 213.678955,28.4645996 C217.622822,29.8059149 220.895983,31.5876354 223.498535,33.8098145 C226.101087,36.0319935 228.002924,38.3642456 229.204102,40.8066406 C230.405279,43.2490356 231.005859,45.631336 231.005859,47.9536133 C231.005859,50.0756942 230.255134,51.9875403 228.753662,53.689209 C227.25219,55.3908776 225.380382,56.2416992 223.138184,56.2416992 C221.096181,56.2416992 219.544683,55.7312063 218.483643,54.7102051 C217.422602,53.6892039 216.271491,52.0175897 215.030273,49.6953125 C213.428703,46.3720537 211.506847,43.7795503 209.264648,41.9177246 C207.02245,40.0558989 203.41897,39.125 198.454102,39.125 C193.849586,39.125 190.136,40.1359762 187.313232,42.157959 C184.490464,44.1799418 183.079102,46.6122905 183.079102,49.4550781 C183.079102,51.2168057 183.559566,52.7382748 184.520508,54.0195312 C185.48145,55.3007877 186.802726,56.4018509 188.484375,57.3227539 C190.166024,58.2436569 191.867667,58.9643529 193.589355,59.4848633 C195.311044,60.0053737 198.153789,60.7661083 202.117676,61.7670898 C207.082544,62.9282285 211.576884,64.2094656 215.60083,65.6108398 C219.624776,67.012214 223.048082,68.7138572 225.87085,70.7158203 C228.693618,72.7177834 230.895744,75.2502288 232.477295,78.3132324 C234.058846,81.376236 234.849609,85.1298606 234.849609,89.5742188 Z M308.000977,41.7075195 L267.821777,41.7075195 L267.821777,63.3286133 L304.817871,63.3286133 C307.540541,63.3286133 309.572503,63.9392029 310.913818,65.1604004 C312.255134,66.3815979 312.925781,67.9931541 312.925781,69.9951172 C312.925781,71.9970803 312.265143,73.6286558 310.943848,74.8898926 C309.622552,76.1511294 307.58058,76.7817383 304.817871,76.7817383 L267.821777,76.7817383 L267.821777,101.826172 L309.382324,101.826172 C312.185073,101.826172 314.297112,102.4768 315.718506,103.778076 C317.1399,105.079352 317.850586,106.811024 317.850586,108.973145 C317.850586,111.055186 317.1399,112.74682 315.718506,114.048096 C314.297112,115.349372 312.185073,116 309.382324,116 L260.915039,116 C257.031231,116 254.238534,115.139169 252.536865,113.41748 C250.835197,111.695792 249.984375,108.913105 249.984375,105.069336 L249.984375,38.8847656 C249.984375,36.3222528 250.364742,34.2302327 251.125488,32.6086426 C251.886234,30.9870524 253.077384,29.8059119 254.698975,29.0651855 C256.320565,28.3244592 258.392566,27.9541016 260.915039,27.9541016 L308.000977,27.9541016 C310.843764,27.9541016 312.955804,28.5847105 314.337158,29.8459473 C315.718513,31.107184 316.40918,32.7587789 316.40918,34.8007812 C316.40918,36.8828229 315.718513,38.5544371 314.337158,39.8156738 C312.955804,41.0769106 310.843764,41.7075195 308.000977,41.7075195 Z M349.501465,37.2631836 L349.501465,101.345703 L385.656738,101.345703 C388.539565,101.345703 390.751701,102.04638 392.293213,103.447754 C393.834725,104.849128 394.605469,106.610829 394.605469,108.73291 C394.605469,110.89503 393.844734,112.646722 392.323242,113.988037 C390.80175,115.329352 388.579604,116 385.656738,116 L342.594727,116 C338.710918,116 335.918221,115.139169 334.216553,113.41748 C332.514884,111.695792 331.664062,108.913105 331.664062,105.069336 L331.664062,37.2631836 C331.664062,33.65965 332.474845,30.9570403 334.096436,29.1552734 C335.718026,27.3535066 337.850084,26.4526367 340.492676,26.4526367 C343.175306,26.4526367 345.347404,27.343497 347.009033,29.1252441 C348.670663,30.9069913 349.501465,33.6196107 349.501465,37.2631836 Z M423.793945,37.2631836 L423.793945,101.345703 L459.949219,101.345703 C462.832046,101.345703 465.044182,102.04638 466.585693,103.447754 C468.127205,104.849128 468.897949,106.610829 468.897949,108.73291 C468.897949,110.89503 468.137215,112.646722 466.615723,113.988037 C465.094231,115.329352 462.872085,116 459.949219,116 L416.887207,116 C413.003399,116 410.210702,115.139169 408.509033,113.41748 C406.807365,111.695792 405.956543,108.913105 405.956543,105.069336 L405.956543,37.2631836 C405.956543,33.65965 406.767326,30.9570403 408.388916,29.1552734 C410.010506,27.3535066 412.142565,26.4526367 414.785156,26.4526367 C417.467787,26.4526367 419.639884,27.343497 421.301514,29.1252441 C422.963143,30.9069913 423.793945,33.6196107 423.793945,37.2631836 Z" id="SELL" fill="#D7423E"></path>
        </g>
    </g>
</svg>