<?xml version="1.0" standalone="no"?>
<!DOCTYPE svg PUBLIC "-//W3C//DTD SVG 20010904//EN"
 "http://www.w3.org/TR/2001/REC-SVG-20010904/DTD/svg10.dtd">
<svg version="1.0" xmlns="http://www.w3.org/2000/svg"
 width="450.000000pt" height="450.000000pt" viewBox="0 0 450.000000 450.000000"
 preserveAspectRatio="xMidYMid meet">
<metadata>
Created by potrace 1.11, written by Peter Selinger 2001-2013
</metadata>
<g transform="translate(0.000000,450.000000) scale(0.100000,-0.100000)"
fill="#000000" stroke="none">
<path d="M2088 4465 c-2 -1 -37 -6 -78 -9 -155 -15 -521 -105 -554 -137 -6 -5
-16 -9 -23 -9 -14 0 -230 -104 -298 -143 -96 -55 -238 -155 -314 -221 -73 -62
-249 -243 -303 -311 -211 -265 -392 -649 -442 -940 -19 -110 -26 -155 -32
-190 -3 -22 -7 -121 -9 -220 -3 -186 10 -344 40 -485 1 -3 7 -31 14 -62 7 -32
12 -60 12 -63 -1 -26 105 -300 159 -410 99 -200 179 -320 331 -494 322 -368
800 -638 1269 -714 52 -9 113 -19 135 -23 60 -9 402 -13 470 -4 33 4 85 11
115 14 30 4 62 9 70 11 8 2 31 7 50 10 65 11 225 56 319 91 314 116 569 281
805 519 71 71 134 137 141 145 127 160 193 263 272 420 94 185 147 331 187
514 43 195 51 279 50 516 0 155 -5 223 -23 330 -61 361 -193 674 -409 969 -72
98 -96 126 -227 256 -351 352 -797 567 -1300 629 -93 12 -417 20 -427 11z"/>
</g>
</svg>
