<?xml version="1.0" encoding="UTF-8"?>
<svg width="420px" height="99px" viewBox="0 0 420 99" version="1.1" xmlns="http://www.w3.org/2000/svg" xmlns:xlink="http://www.w3.org/1999/xlink">
    <!-- Generator: Sketch 52.6 (67491) - http://www.bohemiancoding.com/sketch -->
    <title>Group</title>
    <desc>Created with Sketch.</desc>
    <g id="Page-1" stroke="none" stroke-width="1" fill="none" fill-rule="evenodd">
        <g id="Artboard-Copy-3" transform="translate(-28.000000, -18.000000)" fill="#000000">
            <g id="Group" transform="translate(28.000000, 18.000000)">
                <path d="M15.853,57.332 C12.7449845,57.332 10.0070118,56.7893388 7.639,55.704 C5.27098816,54.6186612 3.44567308,53.1016764 2.163,51.153 C0.88032692,49.2043236 0.239,46.9473462 0.239,44.382 C0.239,42.2113225 0.69532877,40.2380089 1.608,38.462 C2.52067123,36.6859911 3.75399223,35.2800052 5.308,34.244 C6.86200777,33.2079948 8.57632396,32.69 10.451,32.69 C12.1776753,32.69 13.6329941,33.1216623 14.817,33.985 C16.0010059,34.8483377 16.7409985,36.044659 17.037,37.574 C14.4716538,37.574 12.424341,38.2523265 10.895,39.609 C9.36565902,40.9656734 8.601,42.8033217 8.601,45.122 C8.601,47.2433439 9.24232692,48.9453269 10.525,50.228 C11.8076731,51.5106731 13.5096561,52.152 15.631,52.152 C18.2456797,52.152 20.4039915,51.2763421 22.106,49.525 C23.8080085,47.7736579 24.659,45.5660133 24.659,42.902 C24.659,40.5833217 24.0176731,38.3880104 22.735,36.316 C21.4523269,34.2439896 19.5283462,31.7280148 16.963,28.768 C14.2989867,25.709318 12.2886734,23.0823443 10.932,20.887 C9.57532655,18.6916557 8.897,16.2866797 8.897,13.672 C8.897,11.1066538 9.61232618,8.80034357 11.043,6.753 C12.4736738,4.70565643 14.4469874,3.09000592 16.963,1.906 C19.4790126,0.72199408 22.3156509,0.13 25.473,0.13 C29.46902,0.13 32.6633214,1.06732396 35.056,2.942 C37.4486786,4.81667604 38.645,7.33265088 38.645,10.49 C38.645,12.5620104 38.1270052,14.2393269 37.091,15.522 C36.0549948,16.8046731 34.6983417,17.446 33.021,17.446 C31.146324,17.446 29.6416723,16.681341 28.507,15.152 C29.444338,14.4613299 30.1843306,13.5486723 30.727,12.414 C31.2696694,11.2793277 31.541,10.0953395 31.541,8.862 C31.541,7.28332544 31.072338,6.02533802 30.135,5.088 C29.197662,4.15066198 27.9150081,3.682 26.287,3.682 C24.3136568,3.682 22.6980063,4.38499297 21.44,5.791 C20.1819937,7.19700703 19.553,8.98532248 19.553,11.156 C19.553,13.1293432 20.1203277,14.9669915 21.255,16.669 C22.3896723,18.3710085 24.1656546,20.5539867 26.583,23.218 C28.5563432,25.3393439 30.1473273,27.164659 31.356,28.694 C32.5646727,30.223341 33.6006623,31.98699 34.464,33.985 C35.3273376,35.98301 35.759,38.1413217 35.759,40.46 C35.759,43.6173491 34.8833421,46.4786538 33.132,49.044 C31.3806579,51.6093462 28.9880152,53.6319926 25.954,55.112 C22.9199848,56.5920074 19.5530185,57.332 15.853,57.332 Z M78.827,42.754 L83.859,19 L94.515,19 L89.187,44.16 C89.0389993,44.752003 88.965,45.3686635 88.965,46.01 C88.965,48.1806775 89.7049926,49.266 91.185,49.266 C92.5663402,49.266 93.7503284,48.6863391 94.737,47.527 C95.7236716,46.3676609 96.512997,44.7766768 97.105,42.754 L102.137,19 L112.867,19 L103.839,61.92 C102.852328,66.6560237 101.113346,69.9366575 98.622,71.762 C96.1306542,73.5873425 93.3803484,74.5 90.371,74.5 C88.0523217,74.5 86.0173421,73.7476742 84.266,72.243 C82.5146579,70.7383258 81.639,68.8266783 81.639,66.508 C81.639,64.3373225 82.1816612,62.5613402 83.267,61.18 C84.3523388,59.7986598 85.7583247,58.7133373 87.485,57.924 C89.2116753,57.1346627 91.5303188,56.2960044 94.441,55.408 L95.181,52.152 C92.6649874,55.0133476 89.6556842,56.444 86.153,56.444 C83.7849882,56.444 81.8733406,55.7040074 80.418,54.224 C79.416051,53.2050688 78.7590099,51.8354049 78.4468695,50.1149865 C77.435308,51.6035256 76.3410201,52.7635271 75.164,53.595 C72.4753199,55.4943428 69.7743469,56.444 67.061,56.444 C64.9889896,56.444 63.3240063,55.8643391 62.066,54.705 C60.8079937,53.5456609 60.0556679,51.8560111 59.809,49.636 C58.3783262,51.6586768 56.7873421,53.2989937 55.036,54.557 C53.2846579,55.8150063 51.2003454,56.444 48.783,56.444 C45.9709859,56.444 43.627676,55.4820096 41.753,53.558 C39.878324,51.6339904 38.941,48.6246871 38.941,44.53 C38.941,40.8793151 39.6686594,37.0436868 41.124,33.023 C42.5793406,29.0023132 44.7499856,25.5983473 47.636,22.811 C50.5220144,20.0236527 53.96298,18.63 57.959,18.63 C59.9816768,18.63 61.4863284,18.9753299 62.473,19.666 C63.4596716,20.3566701 63.953,21.2693277 63.953,22.404 L63.953,22.922 L64.767,19 L75.423,19 L70.095,44.16 C69.8976657,44.9000037 69.799,45.6893291 69.799,46.528 C69.799,48.6493439 70.8103232,49.71 72.833,49.71 C74.2143402,49.71 75.4106616,49.0686731 76.422,47.786 C77.4333384,46.5033269 78.234997,44.8260104 78.827,42.754 Z M53.593,49.266 C54.8263395,49.266 56.0473273,48.6863391 57.256,47.527 C58.4646727,46.3676609 59.2909978,44.7766768 59.735,42.754 L63.287,26.03 C63.287,25.3886635 63.0403358,24.7596698 62.547,24.143 C62.0536642,23.5263303 61.2890052,23.218 60.253,23.218 C58.2796568,23.218 56.5036746,24.3649885 54.925,26.659 C53.3463254,28.9530115 52.1130044,31.7156505 51.225,34.947 C50.3369956,38.1783495 49.893,41.027321 49.893,43.494 C49.893,45.960679 50.2506631,47.5393299 50.966,48.23 C51.6813369,48.9206701 52.5569948,49.266 53.593,49.266 Z M88.669,67.914 C89.5570044,67.914 90.3956627,67.4576712 91.185,66.545 C91.9743373,65.6323288 92.5909978,64.1646768 93.035,62.142 L93.923,57.776 C91.3083203,58.6640044 89.2856738,59.6999941 87.855,60.884 C86.4243262,62.0680059 85.709,63.597324 85.709,65.472 C85.709,66.064003 86.004997,66.6189974 86.597,67.137 C87.189003,67.6550026 87.8796627,67.914 88.669,67.914 Z M183.613976,44.9261945 C183.611992,44.7952784 183.611,44.6632136 183.611,44.53 C183.611,40.8793151 184.338659,37.0436868 185.794,33.023 C187.249341,29.0023132 189.419986,25.5983473 192.306,22.811 C195.192014,20.0236527 198.63298,18.63 202.629,18.63 C204.651677,18.63 206.156328,18.9753299 207.143,19.666 C208.129672,20.3566701 208.623,21.2693277 208.623,22.404 L208.623,22.922 L209.437,19 L220.093,19 L214.765,44.16 C214.567666,44.9000037 214.469,45.6893291 214.469,46.528 C214.469,47.5146716 214.703331,48.2176646 215.172,48.637 C215.640669,49.0563354 216.417661,49.266 217.503,49.266 C218.19367,49.266 218.736331,49.1673343 219.131,48.97 C218.045661,51.7326805 217.009672,53.6689945 216.023,54.779 C215.036328,55.8890056 213.605676,56.444 211.731,56.444 C209.708323,56.444 208.068006,55.8396727 206.81,54.631 C205.551994,53.4223273 204.775001,51.7326775 204.479,49.562 C201.469652,54.1500229 197.794355,56.444 193.453,56.444 C190.640986,56.444 188.297676,55.4820096 186.423,53.558 C185.538712,52.6504409 184.862987,51.501401 184.395822,50.1108709 C183.438694,51.655057 182.424755,52.8410968 181.354,53.669 C178.961321,55.5190093 176.482346,56.444 173.917,56.444 C170.907652,56.444 168.700007,55.6423414 167.294,54.039 C165.887993,52.4356587 165.185,50.4500118 165.185,48.082 C165.185,47.0459948 165.308332,45.8743399 165.555,44.567 C165.801668,43.2596601 166.060665,41.9893395 166.332,40.756 C166.603335,39.5226605 166.788333,38.7333351 166.887,38.388 C167.281669,36.6613247 167.651665,34.9593417 167.997,33.282 C168.342335,31.6046583 168.515,30.2480052 168.515,29.212 C168.515,26.6959874 167.627009,25.438 165.851,25.438 C164.568327,25.438 163.433672,26.0669937 162.447,27.325 C161.460328,28.5830063 160.671003,30.2233232 160.079,32.246 L155.047,56 L144.391,56 L149.793,30.47 C149.941001,29.877997 150.015,29.2613365 150.015,28.62 C150.015,26.4493225 149.275007,25.364 147.795,25.364 C146.41366,25.364 145.217338,25.9929937 144.206,27.251 C143.194662,28.5090063 142.393003,30.1739896 141.801,32.246 L136.769,56 L126.113,56 L133.957,19 L144.613,19 L143.799,22.848 C146.315013,20.0359859 149.324316,18.63 152.827,18.63 C157.168355,18.63 159.708996,20.7513121 160.449,24.994 C163.162347,20.8006457 166.590979,18.704 170.735,18.704 C173.251013,18.704 175.248993,19.3946598 176.729,20.776 C178.209007,22.1573402 178.949,24.2539859 178.949,27.066 C178.949,28.4966738 178.776335,30.0876579 178.431,31.839 C178.085665,33.5903421 177.592337,35.7239874 176.951,38.24 C176.556331,39.769341 176.198668,41.2616594 175.878,42.717 C175.557332,44.1723406 175.397,45.3193291 175.397,46.158 C175.397,47.1446716 175.618998,47.9093306 176.063,48.452 C176.507002,48.9946694 177.271661,49.266 178.357,49.266 C179.837007,49.266 181.020996,48.735672 181.909,47.675 C182.477329,46.9961631 183.045652,46.0798989 183.613976,44.9261945 Z M198.263,49.266 C199.496339,49.266 200.717327,48.6863391 201.926,47.527 C203.134673,46.3676609 203.960998,44.7766768 204.405,42.754 L207.957,26.03 C207.957,25.3886635 207.710336,24.7596698 207.217,24.143 C206.723664,23.5263303 205.959005,23.218 204.923,23.218 C202.949657,23.218 201.173675,24.3649885 199.595,26.659 C198.016325,28.9530115 196.783004,31.7156505 195.895,34.947 C195.006996,38.1783495 194.563,41.027321 194.563,43.494 C194.563,45.960679 194.920663,47.5393299 195.636,48.23 C196.351337,48.9206701 197.226995,49.266 198.263,49.266 Z M253.171,5.31 C249.816317,6.49400592 247.263342,8.35632063 245.512,10.897 C243.760658,13.4376794 242.885,16.5086487 242.885,20.11 C242.885,21.6886746 243.057665,23.1316601 243.403,24.439 C243.748335,25.7463399 244.241663,26.8193291 244.883,27.658 C241.725651,27.658 239.394674,27.0043399 237.89,25.697 C236.385326,24.3896601 235.633,22.3793469 235.633,19.666 C235.633,16.2126494 236.644323,12.9936816 238.667,10.009 C240.689677,7.02431841 243.427649,4.64400888 246.881,2.868 C250.334351,1.09199112 254.083646,0.204 258.129,0.204 C259.263672,0.204 260.250329,0.27799926 261.089,0.426 C261.927671,0.57400074 262.889661,0.84533136 263.975,1.24 L272.855,40.83 L281.143,0.648 L288.321,0.648 L276.259,56 L266.047,56 L257.463,19.296 L249.027,56 L241.997,56 L253.171,5.31 Z M378.989812,50.1527243 C378.040329,51.6765036 377.035061,52.8485923 375.974,53.669 C373.581321,55.5190093 371.102346,56.444 368.537,56.444 C365.527652,56.444 363.320007,55.6423414 361.914,54.039 C360.507993,52.4356587 359.805,50.4500118 359.805,48.082 C359.805,47.0459948 359.928332,45.8743399 360.175,44.567 C360.421668,43.2596601 360.680665,41.9893395 360.952,40.756 C361.223335,39.5226605 361.408333,38.7333351 361.507,38.388 C361.901669,36.6613247 362.271665,34.9593417 362.617,33.282 C362.962335,31.6046583 363.135,30.2480052 363.135,29.212 C363.135,26.6959874 362.247009,25.438 360.471,25.438 C359.188327,25.438 358.053672,26.0669937 357.067,27.325 C356.080328,28.5830063 355.291003,30.2233232 354.699,32.246 L349.667,56 L339.011,56 L344.413,30.47 C344.561001,29.877997 344.635,29.2613365 344.635,28.62 C344.635,26.4493225 343.895007,25.364 342.415,25.364 C341.03366,25.364 339.837338,25.9929937 338.826,27.251 C337.814662,28.5090063 337.013003,30.1739896 336.421,32.246 L331.389,56 L320.733,56 L321.55201,52.1367452 C321.015188,52.70165 320.458519,53.1877346 319.882,53.595 C317.19332,55.4943428 314.492347,56.444 311.779,56.444 C309.70699,56.444 308.042006,55.8643391 306.784,54.705 C305.525994,53.5456609 304.773668,51.8560111 304.527,49.636 C303.096326,51.6586768 301.505342,53.2989937 299.754,54.557 C298.002658,55.8150063 295.918345,56.444 293.501,56.444 C290.688986,56.444 288.345676,55.4820096 286.471,53.558 C284.596324,51.6339904 283.659,48.6246871 283.659,44.53 C283.659,40.8793151 284.386659,37.0436868 285.842,33.023 C287.297341,29.0023132 289.467986,25.5983473 292.354,22.811 C295.240014,20.0236527 298.68098,18.63 302.677,18.63 C304.699677,18.63 306.204328,18.9753299 307.191,19.666 C308.177672,20.3566701 308.671,21.2693277 308.671,22.404 L308.671,22.922 L309.485,19 L320.141,19 L314.813,44.16 C314.615666,44.9000037 314.517,45.6893291 314.517,46.528 C314.517,48.6493439 315.528323,49.71 317.551,49.71 C318.93234,49.71 320.128662,49.0686731 321.14,47.786 C322.142978,46.5139303 322.939729,44.853715 323.530275,42.8053048 L328.577,19 L339.233,19 L338.419,22.848 C340.935013,20.0359859 343.944316,18.63 347.447,18.63 C351.788355,18.63 354.328996,20.7513121 355.069,24.994 C357.782347,20.8006457 361.210979,18.704 365.355,18.704 C367.871013,18.704 369.868993,19.3946598 371.349,20.776 C372.829007,22.1573402 373.569,24.2539859 373.569,27.066 C373.569,28.4966738 373.396335,30.0876579 373.051,31.839 C372.705665,33.5903421 372.212337,35.7239874 371.571,38.24 C371.176331,39.769341 370.818668,41.2616594 370.498,42.717 C370.177332,44.1723406 370.017,45.3193291 370.017,46.158 C370.017,47.1446716 370.238998,47.9093306 370.683,48.452 C371.127002,48.9946694 371.891661,49.266 372.977,49.266 C374.457007,49.266 375.640996,48.735672 376.529,47.675 C377.072768,47.0254995 377.616531,46.1586493 378.160295,45.0744382 C378.158098,44.9434574 378.157,44.8113114 378.157,44.678 C378.157,41.273983 378.822993,37.5246871 380.155,33.43 C381.487007,29.3353129 383.657652,25.7956816 386.667,22.811 C389.676348,19.8263184 393.499643,18.334 398.137,18.334 C403.563694,18.334 406.277,20.7019763 406.277,25.438 C406.277,28.2006805 405.487675,30.7413217 403.909,33.06 C402.330325,35.3786783 400.23368,37.240993 397.619,38.647 C395.00432,40.053007 392.217015,40.8546657 389.257,41.052 C389.158333,42.1373388 389.109,42.8773314 389.109,43.272 C389.109,47.3666871 390.638318,49.414 393.697,49.414 C395.07834,49.414 396.558325,49.0440037 398.137,48.304 C399.715675,47.5639963 401.146327,46.6266723 402.429,45.492 C401.096993,52.7933698 396.829703,56.444 389.627,56.444 C386.025649,56.444 383.213677,55.4943428 381.191,53.595 C380.228048,52.6907648 379.49432,51.5433427 378.989812,50.1527243 Z M298.311,49.266 C299.544339,49.266 300.765327,48.6863391 301.974,47.527 C303.182673,46.3676609 304.008998,44.7766768 304.453,42.754 L308.005,26.03 C308.005,25.3886635 307.758336,24.7596698 307.265,24.143 C306.771664,23.5263303 306.007005,23.218 304.971,23.218 C302.997657,23.218 301.221675,24.3649885 299.643,26.659 C298.064325,28.9530115 296.831004,31.7156505 295.943,34.947 C295.054996,38.1783495 294.611,41.027321 294.611,43.494 C294.611,45.960679 294.968663,47.5393299 295.684,48.23 C296.399337,48.9206701 297.274995,49.266 298.311,49.266 Z M389.775,37.5 C391.649676,37.4506664 393.413325,36.8340059 395.066,35.65 C396.718675,34.4659941 398.050662,32.9490093 399.062,31.099 C400.073338,29.2489908 400.579,27.3126768 400.579,25.29 C400.579,23.2673232 399.962339,22.256 398.729,22.256 C397.002325,22.256 395.288009,23.8223177 393.586,26.955 C391.883991,30.0876823 390.613671,33.6026472 389.775,37.5 Z" id="Say-ma-Name"></path>
                <path d="M6.87157607,85.0357317 C127.597979,79.0119106 210.86859,76 256.683407,76 C301.099545,76 352.891397,78.8308167 412.058962,84.4924502 L412.058959,84.4924762 C416.288766,84.8972185 419.518177,88.4503966 419.518177,92.699524 L419.518177,92.699524 C419.518177,96.12404 416.742058,98.9001588 413.317542,98.9001588 C412.941387,98.9001588 412.566013,98.8659303 412.196061,98.7978968 C363.257719,89.7982169 311.770233,85.2983743 257.733602,85.2983743 C201.615561,85.2983743 118.937816,87.4574962 9.70036742,91.7757402 L9.70036716,91.7757335 C7.51406131,91.8621599 5.50309991,90.5844906 4.65252328,88.5685734 L4.65252328,88.5685734 C4.1058589,87.2729463 4.71301315,85.779474 6.00864027,85.2328096 C6.2825711,85.1172299 6.57462812,85.05052 6.87157466,85.0357034 Z" id="Rectangle"></path>
            </g>
        </g>
    </g>
</svg>