<?xml version="1.0" encoding="UTF-8"?>
<svg width="74px" height="36px" viewBox="0 0 74 36" version="1.1" xmlns="http://www.w3.org/2000/svg" xmlns:xlink="http://www.w3.org/1999/xlink">
    <!-- Generator: Sketch 52.6 (67491) - http://www.bohemiancoding.com/sketch -->
    <title>Group 3</title>
    <desc>Created with Sketch.</desc>
    <g id="Page-1" stroke="none" stroke-width="1" fill="none" fill-rule="evenodd">
        <g id="Artboard" transform="translate(-322.000000, -417.000000)">
            <g id="Group-3" transform="translate(322.000000, 418.000000)">
                <g id="coffee" transform="translate(50.000000, 0.000000)">
                    <g id="Group-3">
                        <polygon id="Fill-1" fill="#FF9100" points="11.7213115 7.0524438 3 7 7.28278689 34 8.21721311 34 16.7827869 34 17.7172131 34 22 7"></polygon>
                        <polygon id="Fill-2" fill="#FFDD00" points="11.8148148 7.0524438 3 7 7.3287037 34 8.27314814 34 14.7268519 34 15.6712963 34 20 7"></polygon>
                        <polygon id="Fill-3" fill="#FFFFFF" points="0 7 23 7 23 4 0 4"></polygon>
                        <polygon id="Stroke-4" stroke="#000000" stroke-width="1.17043743" points="0 7 23 7 23 4 0 4"></polygon>
                        <polygon id="Fill-6" fill="#FFFFFF" points="18.3846154 0 13.076923 0 9.9230769 0 4.61538461 0 3 4 9.9230769 4 13.076923 4 20 4"></polygon>
                        <polygon id="Stroke-7" stroke="#050505" stroke-width="1.5" points="18.3846154 0 13.0769231 0 9.92307693 0 4.61538461 0 3 4 9.92307693 4 13.0769231 4 20 4"></polygon>
                        <polygon id="Stroke-9" stroke="#000000" stroke-width="1.5" points="11.5 7.0524438 1 7 5.375 34 6.32954545 34 16.6704545 34 17.625 34 22 7"></polygon>
                        <polygon id="Fill-12" fill="#FFFFFF" points="22 14 11.8645385 14 11.1354615 14 1 14 2.89584615 25 11.5 24.9041088 20.1041538 25"></polygon>
                        <polygon id="Stroke-13" stroke="#000000" stroke-width="1.5" points="22 14 11.8645385 14 11.1354615 14 1 14 2.89584615 25 11.5 24.9041088 20.1041538 25"></polygon>
                    </g>
                </g>
                <path d="M7.16796875,13.2695312 C7.16796875,12.6901013 7.01985825,12.2522801 6.72363281,11.9560547 C6.42740737,11.6598292 5.88867578,11.3522151 5.10742188,11.0332031 C3.6816335,10.4928358 2.65625313,9.85970415 2.03125,9.13378906 C1.40624687,8.40787397 1.09375,7.55013516 1.09375,6.56054688 C1.09375,5.36262422 1.51855044,4.40071978 2.36816406,3.67480469 C3.21777769,2.9488896 4.29686846,2.5859375 5.60546875,2.5859375 C6.47786895,2.5859375 7.25585596,2.76985493 7.93945312,3.13769531 C8.62305029,3.50553569 9.14876118,4.02473623 9.51660156,4.6953125 C9.88444194,5.36588877 10.0683594,6.1275999 10.0683594,6.98046875 L7.20703125,6.98046875 C7.20703125,6.31640293 7.0654311,5.8102231 6.78222656,5.46191406 C6.49902202,5.11360503 6.09049746,4.93945312 5.55664062,4.93945312 C5.05533604,4.93945312 4.66471494,5.08756362 4.38476562,5.38378906 C4.10481631,5.6800145 3.96484375,6.07877354 3.96484375,6.58007812 C3.96484375,6.97070508 4.12109219,7.32389165 4.43359375,7.63964844 C4.74609531,7.95540522 5.2994752,8.28255039 6.09375,8.62109375 C7.48047568,9.12239834 8.48795259,9.73762656 9.11621094,10.4667969 C9.74446929,11.1959672 10.0585938,12.1236923 10.0585938,13.25 C10.0585938,14.4869854 9.66471748,15.4537726 8.87695312,16.1503906 C8.08918877,16.8470087 7.01823594,17.1953125 5.6640625,17.1953125 C4.74608916,17.1953125 3.90950898,17.0065123 3.15429688,16.6289062 C2.39908477,16.2513002 1.80827036,15.710941 1.38183594,15.0078125 C0.955401514,14.304684 0.7421875,13.4746142 0.7421875,12.5175781 L3.62304688,12.5175781 C3.62304688,13.3378947 3.78255049,13.9335919 4.1015625,14.3046875 C4.42057451,14.6757831 4.94140264,14.8613281 5.6640625,14.8613281 C6.66667168,14.8613281 7.16796875,14.3307345 7.16796875,13.2695312 Z M21.2109375,2.78125 L21.2109375,12.625 C21.1979166,14.102872 20.7910196,15.2340456 19.9902344,16.0185547 C19.1894491,16.8030638 18.0403721,17.1953125 16.5429688,17.1953125 C15.0195236,17.1953125 13.8557983,16.7981811 13.0517578,16.0039062 C12.2477173,15.2096314 11.8457031,14.0605544 11.8457031,12.5566406 L11.8457031,2.78125 L14.7363281,2.78125 L14.7363281,12.5664062 C14.7363281,13.373702 14.8665352,13.9498681 15.1269531,14.2949219 C15.3873711,14.6399757 15.8593716,14.8125 16.5429688,14.8125 C17.2265659,14.8125 17.6953112,14.6416033 17.9492188,14.2998047 C18.2031263,13.9580061 18.3333333,13.3964883 18.3398438,12.6152344 L18.3398438,2.78125 L21.2109375,2.78125 Z M26.2597656,12 L26.2597656,17 L23.3886719,17 L23.3886719,2.78125 L28.2324219,2.78125 C29.6386789,2.78125 30.760087,3.21744355 31.5966797,4.08984375 C32.4332724,4.96224395 32.8515625,6.09504512 32.8515625,7.48828125 C32.8515625,8.88151738 32.4381552,9.9817668 31.6113281,10.7890625 C30.7845011,11.5963582 29.6386792,12 28.1738281,12 L26.2597656,12 Z M26.2597656,9.60742188 L28.2324219,9.60742188 C28.7792996,9.60742188 29.2024725,9.42838721 29.5019531,9.0703125 C29.8014338,8.71223779 29.9511719,8.19140967 29.9511719,7.5078125 C29.9511719,6.79817354 29.7981786,6.23340054 29.4921875,5.81347656 C29.1861964,5.39355259 28.7760442,5.18033857 28.2617188,5.17382812 L26.2597656,5.17382812 L26.2597656,9.60742188 Z M37.6367188,12 L37.6367188,17 L34.765625,17 L34.765625,2.78125 L39.609375,2.78125 C41.015632,2.78125 42.1370401,3.21744355 42.9736328,4.08984375 C43.8102255,4.96224395 44.2285156,6.09504512 44.2285156,7.48828125 C44.2285156,8.88151738 43.8151083,9.9817668 42.9882812,10.7890625 C42.1614542,11.5963582 41.0156323,12 39.5507812,12 L37.6367188,12 Z M37.6367188,9.60742188 L39.609375,9.60742188 C40.1562527,9.60742188 40.5794256,9.42838721 40.8789062,9.0703125 C41.1783869,8.71223779 41.328125,8.19140967 41.328125,7.5078125 C41.328125,6.79817354 41.1751317,6.23340054 40.8691406,5.81347656 C40.5631495,5.39355259 40.1529974,5.18033857 39.6386719,5.17382812 L37.6367188,5.17382812 L37.6367188,9.60742188 Z M22.6367188,27.1699219 C22.6367188,29.0774835 22.1858769,30.5585885 21.2841797,31.6132812 C20.3824825,32.667974 19.1308674,33.1953125 17.5292969,33.1953125 C15.9342368,33.1953125 14.6809941,32.6728568 13.7695312,31.6279297 C12.8580684,30.5830026 12.3958334,29.1198011 12.3828125,27.2382812 L12.3828125,24.8066406 C12.3828125,22.8535059 12.8352819,21.328456 13.7402344,20.2314453 C14.6451868,19.1344346 15.9016847,18.5859375 17.5097656,18.5859375 C19.0918048,18.5859375 20.3385371,19.1246691 21.25,20.2021484 C22.1614629,21.2796278 22.6236979,22.7916569 22.6367188,24.7382812 L22.6367188,27.1699219 Z M19.7558594,24.7871094 C19.7558594,23.5045509 19.5735695,22.5507844 19.2089844,21.9257812 C18.8443992,21.3007781 18.2779986,20.9882812 17.5097656,20.9882812 C16.7480431,20.9882812 16.1848977,21.289385 15.8203125,21.8916016 C15.4557273,22.4938181 15.2669271,23.4101501 15.2539062,24.640625 L15.2539062,27.1699219 C15.2539062,28.4134177 15.4394513,29.3297497 15.8105469,29.9189453 C16.1816425,30.508141 16.7545534,30.8027344 17.5292969,30.8027344 C18.2779985,30.8027344 18.8346336,30.5146513 19.1992188,29.9384766 C19.5638039,29.3623018 19.7493489,28.4687561 19.7558594,27.2578125 L19.7558594,24.7871094 Z M29.0039062,27.8046875 L27.578125,27.8046875 L27.578125,33 L24.7070312,33 L24.7070312,18.78125 L29.2871094,18.78125 C30.7259187,18.78125 31.8375612,19.1539676 32.6220703,19.8994141 C33.4065794,20.6448605 33.7988281,21.7044202 33.7988281,23.078125 C33.7988281,24.9661553 33.111986,26.2877566 31.7382812,27.0429688 L34.2285156,32.8632812 L34.2285156,33 L31.1425781,33 L29.0039062,27.8046875 Z M27.578125,25.4121094 L29.2089844,25.4121094 C29.7819039,25.4121094 30.2115871,25.2216816 30.4980469,24.8408203 C30.7845066,24.459959 30.9277344,23.950524 30.9277344,23.3125 C30.9277344,21.8867116 30.3710993,21.1738281 29.2578125,21.1738281 L27.578125,21.1738281 L27.578125,25.4121094 Z M44.4921875,21.1738281 L40.9765625,21.1738281 L40.9765625,33 L38.0957031,33 L38.0957031,21.1738281 L34.6386719,21.1738281 L34.6386719,18.78125 L44.4921875,18.78125 L44.4921875,21.1738281 Z" id="SUPP-ORT" fill="#000000"></path>
            </g>
        </g>
    </g>
</svg>