<?xml version="1.0" encoding="UTF-8"?>
<svg width="25px" height="36px" viewBox="0 0 25 36" version="1.1" xmlns="http://www.w3.org/2000/svg" xmlns:xlink="http://www.w3.org/1999/xlink">
    <!-- Generator: Sketch 52.6 (67491) - http://www.bohemiancoding.com/sketch -->
    <title>coffee</title>
    <desc>Created with Sketch.</desc>
    <g id="Page-1" stroke="none" stroke-width="1" fill="none" fill-rule="evenodd">
        <g id="Artboard" transform="translate(-371.000000, -417.000000)">
            <g id="coffee" transform="translate(372.000000, 418.000000)">
                <g id="Group-3">
                    <polygon id="Fill-1" fill="#FF9100" points="11.7213115 7.0524438 3 7 7.28278689 34 8.21721311 34 16.7827869 34 17.7172131 34 22 7"></polygon>
                    <polygon id="Fill-2" fill="#FFDD00" points="11.8148148 7.0524438 3 7 7.3287037 34 8.27314814 34 14.7268519 34 15.6712963 34 20 7"></polygon>
                    <polygon id="Fill-3" fill="#FFFFFF" points="0 7 23 7 23 4 0 4"></polygon>
                    <polygon id="Stroke-4" stroke="#000000" stroke-width="1.17043743" points="0 7 23 7 23 4 0 4"></polygon>
                    <polygon id="Fill-6" fill="#FFFFFF" points="18.3846154 0 13.076923 0 9.9230769 0 4.61538461 0 3 4 9.9230769 4 13.076923 4 20 4"></polygon>
                    <polygon id="Stroke-7" stroke="#050505" stroke-width="1.5" points="18.3846154 0 13.0769231 0 9.92307693 0 4.61538461 0 3 4 9.92307693 4 13.0769231 4 20 4"></polygon>
                    <polygon id="Stroke-9" stroke="#000000" stroke-width="1.5" points="11.5 7.0524438 1 7 5.375 34 6.32954545 34 16.6704545 34 17.625 34 22 7"></polygon>
                    <polygon id="Fill-12" fill="#FFFFFF" points="22 14 11.8645385 14 11.1354615 14 1 14 2.89584615 25 11.5 24.9041088 20.1041538 25"></polygon>
                    <polygon id="Stroke-13" stroke="#000000" stroke-width="1.5" points="22 14 11.8645385 14 11.1354615 14 1 14 2.89584615 25 11.5 24.9041088 20.1041538 25"></polygon>
                </g>
            </g>
        </g>
    </g>
</svg>