<?xml version="1.0" encoding="UTF-8"?>
<svg width="221px" height="202px" viewBox="0 0 221 202" version="1.1" xmlns="http://www.w3.org/2000/svg" xmlns:xlink="http://www.w3.org/1999/xlink">
    <!-- Generator: Sketch 52.6 (67491) - http://www.bohemiancoding.com/sketch -->
    <title>outlines</title>
    <desc>Created with Sketch.</desc>
    <defs>
        <path d="M16.426,57.832 C13.3179845,57.832 10.5800118,57.2893388 8.212,56.204 C5.84398816,55.1186612 4.01867308,53.6016764 2.736,51.653 C1.45332692,49.7043236 0.812,47.4473462 0.812,44.882 C0.812,42.7113225 1.26832877,40.7380089 2.181,38.962 C3.09367123,37.1859911 4.32699223,35.7800052 5.881,34.744 C7.43500777,33.7079948 9.14932396,33.19 11.024,33.19 C12.7506753,33.19 14.2059941,33.6216624 15.39,34.485 C16.5740059,35.3483376 17.3139985,36.544659 17.61,38.074 C15.0446538,38.074 12.997341,38.7523266 11.468,40.109 C9.93865902,41.4656735 9.174,43.3033217 9.174,45.622 C9.174,47.7433439 9.81532692,49.4453269 11.098,50.728 C12.3806731,52.0106731 14.0826561,52.652 16.204,52.652 C18.8186797,52.652 20.9769915,51.7763421 22.679,50.025 C24.3810085,48.2736579 25.232,46.0660133 25.232,43.402 C25.232,41.0833217 24.5906731,38.8880104 23.308,36.816 C22.0253269,34.7439896 20.1013462,32.2280148 17.536,29.268 C14.8719867,26.209318 12.8616734,23.5823443 11.505,21.387 C10.1483265,19.1916557 9.47,16.7866797 9.47,14.172 C9.47,11.6066538 10.1853262,9.30034357 11.616,7.253 C13.0466738,5.20565643 15.0199874,3.59000592 17.536,2.406 C20.0520126,1.22199408 22.8886509,0.63 26.046,0.63 C30.04202,0.63 33.2363214,1.56732396 35.629,3.442 C38.0216786,5.31667604 39.218,7.83265088 39.218,10.99 C39.218,13.0620104 38.7000052,14.7393269 37.664,16.022 C36.6279948,17.3046731 35.2713417,17.946 33.594,17.946 C31.719324,17.946 30.2146723,17.181341 29.08,15.652 C30.017338,14.9613299 30.7573306,14.0486723 31.3,12.914 C31.8426694,11.7793277 32.114,10.5953395 32.114,9.362 C32.114,7.78332544 31.645338,6.52533802 30.708,5.588 C29.770662,4.65066198 28.4880081,4.182 26.86,4.182 C24.8866568,4.182 23.2710063,4.88499297 22.013,6.291 C20.7549937,7.69700703 20.126,9.48532248 20.126,11.656 C20.126,13.6293432 20.6933277,15.4669915 21.828,17.169 C22.9626723,18.8710085 24.7386546,21.0539867 27.156,23.718 C29.1293432,25.8393439 30.7203273,27.664659 31.929,29.194 C33.1376727,30.723341 34.1736623,32.48699 35.037,34.485 C35.9003376,36.48301 36.332,38.6413217 36.332,40.96 C36.332,44.1173491 35.4563421,46.9786538 33.705,49.544 C31.9536579,52.1093462 29.5610152,54.1319926 26.527,55.612 C23.4929848,57.0920074 20.1260185,57.832 16.426,57.832 Z M79.4,43.254 L84.432,19.5 L95.088,19.5 L89.76,44.66 C89.6119993,45.252003 89.538,45.8686635 89.538,46.51 C89.538,48.6806775 90.2779926,49.766 91.758,49.766 C93.1393402,49.766 94.3233284,49.1863391 95.31,48.027 C96.2966716,46.8676609 97.085997,45.2766768 97.678,43.254 L102.71,19.5 L113.44,19.5 L104.412,62.42 C103.425328,67.1560237 101.686346,70.4366575 99.195,72.262 C96.7036542,74.0873425 93.9533484,75 90.944,75 C88.6253217,75 86.5903421,74.2476742 84.839,72.743 C83.0876579,71.2383258 82.212,69.3266783 82.212,67.008 C82.212,64.8373225 82.7546612,63.0613402 83.84,61.68 C84.9253388,60.2986598 86.3313247,59.2133373 88.058,58.424 C89.7846753,57.6346627 92.1033188,56.7960044 95.014,55.908 L95.754,52.652 C93.2379874,55.5133476 90.2286842,56.944 86.726,56.944 C84.3579882,56.944 82.4463406,56.2040074 80.991,54.724 C79.989051,53.7050688 79.3320099,52.3354049 79.0198695,50.6149865 C78.008308,52.1035256 76.9140201,53.2635271 75.737,54.095 C73.0483199,55.9943428 70.3473469,56.944 67.634,56.944 C65.5619896,56.944 63.8970063,56.3643391 62.639,55.205 C61.3809937,54.0456609 60.6286679,52.3560111 60.382,50.136 C58.9513262,52.1586768 57.3603421,53.7989937 55.609,55.057 C53.8576579,56.3150063 51.7733454,56.944 49.356,56.944 C46.5439859,56.944 44.200676,55.9820096 42.326,54.058 C40.451324,52.1339904 39.514,49.1246871 39.514,45.03 C39.514,41.3793151 40.2416594,37.5436868 41.697,33.523 C43.1523406,29.5023132 45.3229856,26.0983473 48.209,23.311 C51.0950144,20.5236527 54.53598,19.13 58.532,19.13 C60.5546768,19.13 62.0593284,19.4753299 63.046,20.166 C64.0326716,20.8566701 64.526,21.7693277 64.526,22.904 L64.526,23.422 L65.34,19.5 L75.996,19.5 L70.668,44.66 C70.4706657,45.4000037 70.372,46.1893291 70.372,47.028 C70.372,49.1493439 71.3833232,50.21 73.406,50.21 C74.7873402,50.21 75.9836616,49.5686731 76.995,48.286 C78.0063384,47.0033269 78.807997,45.3260104 79.4,43.254 Z M54.166,49.766 C55.3993395,49.766 56.6203273,49.1863391 57.829,48.027 C59.0376727,46.8676609 59.8639978,45.2766768 60.308,43.254 L63.86,26.53 C63.86,25.8886635 63.6133358,25.2596698 63.12,24.643 C62.6266642,24.0263303 61.8620052,23.718 60.826,23.718 C58.8526568,23.718 57.0766746,24.8649885 55.498,27.159 C53.9193254,29.4530115 52.6860044,32.2156505 51.798,35.447 C50.9099956,38.6783495 50.466,41.527321 50.466,43.994 C50.466,46.460679 50.8236631,48.0393299 51.539,48.73 C52.2543369,49.4206701 53.1299948,49.766 54.166,49.766 Z M89.242,68.414 C90.1300044,68.414 90.9686627,67.9576712 91.758,67.045 C92.5473373,66.1323288 93.1639978,64.6646768 93.608,62.642 L94.496,58.276 C91.8813203,59.1640044 89.8586738,60.1999941 88.428,61.384 C86.9973262,62.5680059 86.282,64.097324 86.282,65.972 C86.282,66.564003 86.577997,67.1189974 87.17,67.637 C87.762003,68.1550026 88.4526627,68.414 89.242,68.414 Z M184.186976,45.4261945 C184.184992,45.2952784 184.184,45.1632136 184.184,45.03 C184.184,41.3793151 184.911659,37.5436868 186.367,33.523 C187.822341,29.5023132 189.992986,26.0983473 192.879,23.311 C195.765014,20.5236527 199.20598,19.13 203.202,19.13 C205.224677,19.13 206.729328,19.4753299 207.716,20.166 C208.702672,20.8566701 209.196,21.7693277 209.196,22.904 L209.196,23.422 L210.01,19.5 L220.666,19.5 L215.338,44.66 C215.140666,45.4000037 215.042,46.1893291 215.042,47.028 C215.042,48.0146716 215.276331,48.7176646 215.745,49.137 C216.213669,49.5563354 216.990661,49.766 218.076,49.766 C218.76667,49.766 219.309331,49.6673343 219.704,49.47 C218.618661,52.2326805 217.582672,54.1689944 216.596,55.279 C215.609328,56.3890056 214.178676,56.944 212.304,56.944 C210.281323,56.944 208.641006,56.3396727 207.383,55.131 C206.124994,53.9223273 205.348001,52.2326775 205.052,50.062 C202.042652,54.6500229 198.367355,56.944 194.026,56.944 C191.213986,56.944 188.870676,55.9820096 186.996,54.058 C186.111712,53.1504409 185.435987,52.001401 184.968822,50.6108709 C184.011694,52.155057 182.997755,53.3410968 181.927,54.169 C179.534321,56.0190093 177.055346,56.944 174.49,56.944 C171.480652,56.944 169.273007,56.1423414 167.867,54.539 C166.460993,52.9356586 165.758,50.9500118 165.758,48.582 C165.758,47.5459948 165.881332,46.3743399 166.128,45.067 C166.374668,43.7596601 166.633665,42.4893395 166.905,41.256 C167.176335,40.0226605 167.361333,39.2333351 167.46,38.888 C167.854669,37.1613247 168.224665,35.4593417 168.57,33.782 C168.915335,32.1046583 169.088,30.7480052 169.088,29.712 C169.088,27.1959874 168.200009,25.938 166.424,25.938 C165.141327,25.938 164.006672,26.5669937 163.02,27.825 C162.033328,29.0830063 161.244003,30.7233232 160.652,32.746 L155.62,56.5 L144.964,56.5 L150.366,30.97 C150.514001,30.377997 150.588,29.7613365 150.588,29.12 C150.588,26.9493225 149.848007,25.864 148.368,25.864 C146.98666,25.864 145.790338,26.4929937 144.779,27.751 C143.767662,29.0090063 142.966003,30.6739896 142.374,32.746 L137.342,56.5 L126.686,56.5 L134.53,19.5 L145.186,19.5 L144.372,23.348 C146.888013,20.5359859 149.897316,19.13 153.4,19.13 C157.741355,19.13 160.281996,21.2513121 161.022,25.494 C163.735347,21.3006457 167.163979,19.204 171.308,19.204 C173.824013,19.204 175.821993,19.8946598 177.302,21.276 C178.782007,22.6573402 179.522,24.7539859 179.522,27.566 C179.522,28.9966738 179.349335,30.5876579 179.004,32.339 C178.658665,34.0903421 178.165337,36.2239874 177.524,38.74 C177.129331,40.269341 176.771668,41.7616594 176.451,43.217 C176.130332,44.6723406 175.97,45.8193291 175.97,46.658 C175.97,47.6446716 176.191998,48.4093306 176.636,48.952 C177.080002,49.4946694 177.844661,49.766 178.93,49.766 C180.410007,49.766 181.593996,49.235672 182.482,48.175 C183.050329,47.4961631 183.618652,46.5798989 184.186976,45.4261945 Z M198.836,49.766 C200.069339,49.766 201.290327,49.1863391 202.499,48.027 C203.707673,46.8676609 204.533998,45.2766768 204.978,43.254 L208.53,26.53 C208.53,25.8886635 208.283336,25.2596698 207.79,24.643 C207.296664,24.0263303 206.532005,23.718 205.496,23.718 C203.522657,23.718 201.746675,24.8649885 200.168,27.159 C198.589325,29.4530115 197.356004,32.2156505 196.468,35.447 C195.579996,38.6783495 195.136,41.527321 195.136,43.994 C195.136,46.460679 195.493663,48.0393299 196.209,48.73 C196.924337,49.4206701 197.799995,49.766 198.836,49.766 Z M41.438,81.81 C38.0833166,82.9940059 35.5303421,84.8563206 33.779,87.397 C32.0276579,89.9376794 31.152,93.0086487 31.152,96.61 C31.152,98.1886746 31.3246649,99.6316601 31.67,100.939 C32.0153351,102.24634 32.5086635,103.319329 33.15,104.158 C29.9926509,104.158 27.6616742,103.50434 26.157,102.197 C24.6523258,100.88966 23.9,98.8793469 23.9,96.166 C23.9,92.7126494 24.9113232,89.4936816 26.934,86.509 C28.9566768,83.5243184 31.6946494,81.1440089 35.148,79.368 C38.6013506,77.5919911 42.3506464,76.704 46.396,76.704 C47.5306723,76.704 48.5173291,76.7779993 49.356,76.926 C50.1946709,77.0740007 51.1566612,77.3453314 52.242,77.74 L61.122,117.33 L69.41,77.148 L76.588,77.148 L64.526,132.5 L54.314,132.5 L45.73,95.796 L37.294,132.5 L30.264,132.5 L41.438,81.81 Z M166.427295,121.574438 C166.425098,121.443457 166.424,121.311311 166.424,121.178 C166.424,117.773983 167.089993,114.024687 168.422,109.93 C169.754007,105.835313 171.924652,102.295682 174.934,99.311 C177.943348,96.3263184 181.766643,94.834 186.404,94.834 C191.830694,94.834 194.544,97.2019763 194.544,101.938 C194.544,104.70068 193.754675,107.241322 192.176,109.56 C190.597325,111.878678 188.50068,113.740993 185.886,115.147 C183.27132,116.553007 180.484015,117.354666 177.524,117.552 C177.425333,118.637339 177.376,119.377331 177.376,119.772 C177.376,123.866687 178.905318,125.914 181.964,125.914 C183.34534,125.914 184.825325,125.544004 186.404,124.804 C187.982675,124.063996 189.413327,123.126672 190.696,121.992 C189.363993,129.29337 185.096703,132.944 177.894,132.944 C174.292649,132.944 171.480677,131.994343 169.458,130.095 C168.495048,129.190765 167.76132,128.043343 167.256812,126.652724 C166.307329,128.176504 165.302061,129.348592 164.241,130.169 C161.848321,132.019009 159.369346,132.944 156.804,132.944 C153.794652,132.944 151.587007,132.142341 150.181,130.539 C148.774993,128.935659 148.072,126.950012 148.072,124.582 C148.072,123.545995 148.195332,122.37434 148.442,121.067 C148.688668,119.75966 148.947665,118.489339 149.219,117.256 C149.490335,116.022661 149.675333,115.233335 149.774,114.888 C150.168669,113.161325 150.538665,111.459342 150.884,109.782 C151.229335,108.104658 151.402,106.748005 151.402,105.712 C151.402,103.195987 150.514009,101.938 148.738,101.938 C147.455327,101.938 146.320672,102.566994 145.334,103.825 C144.347328,105.083006 143.558003,106.723323 142.966,108.746 L137.934,132.5 L127.278,132.5 L132.68,106.97 C132.828001,106.377997 132.902,105.761337 132.902,105.12 C132.902,102.949322 132.162007,101.864 130.682,101.864 C129.30066,101.864 128.104338,102.492994 127.093,103.751 C126.081662,105.009006 125.280003,106.67399 124.688,108.746 L119.656,132.5 L109,132.5 L109.81901,128.636745 C109.282188,129.20165 108.725519,129.687735 108.149,130.095 C105.46032,131.994343 102.759347,132.944 100.046,132.944 C97.9739896,132.944 96.3090063,132.364339 95.051,131.205 C93.7929937,130.045661 93.0406679,128.356011 92.794,126.136 C91.3633262,128.158677 89.7723421,129.798994 88.021,131.057 C86.2696579,132.315006 84.1853454,132.944 81.768,132.944 C78.9559859,132.944 76.612676,131.98201 74.738,130.058 C72.863324,128.13399 71.926,125.124687 71.926,121.03 C71.926,117.379315 72.6536594,113.543687 74.109,109.523 C75.5643406,105.502313 77.7349856,102.098347 80.621,99.311 C83.5070144,96.5236527 86.94798,95.13 90.944,95.13 C92.9666768,95.13 94.4713284,95.4753299 95.458,96.166 C96.4446716,96.8566701 96.938,97.7693277 96.938,98.904 L96.938,99.422 L97.752,95.5 L108.408,95.5 L103.08,120.66 C102.882666,121.400004 102.784,122.189329 102.784,123.028 C102.784,125.149344 103.795323,126.21 105.818,126.21 C107.19934,126.21 108.395662,125.568673 109.407,124.286 C110.409978,123.01393 111.206729,121.353715 111.797275,119.305305 L116.844,95.5 L127.5,95.5 L126.686,99.348 C129.202013,96.5359859 132.211316,95.13 135.714,95.13 C140.055355,95.13 142.595996,97.2513121 143.336,101.494 C146.049347,97.3006457 149.477979,95.204 153.622,95.204 C156.138013,95.204 158.135993,95.8946598 159.616,97.276 C161.096007,98.6573402 161.836,100.753986 161.836,103.566 C161.836,104.996674 161.663335,106.587658 161.318,108.339 C160.972665,110.090342 160.479337,112.223987 159.838,114.74 C159.443331,116.269341 159.085668,117.761659 158.765,119.217 C158.444332,120.672341 158.284,121.819329 158.284,122.658 C158.284,123.644672 158.505998,124.409331 158.95,124.952 C159.394002,125.494669 160.158661,125.766 161.244,125.766 C162.724007,125.766 163.907996,125.235672 164.796,124.175 C165.339768,123.525499 165.883531,122.658649 166.427295,121.574438 Z M86.578,125.766 C87.8113395,125.766 89.0323273,125.186339 90.241,124.027 C91.4496727,122.867661 92.2759978,121.276677 92.72,119.254 L96.272,102.53 C96.272,101.888663 96.0253358,101.25967 95.532,100.643 C95.0386642,100.02633 94.2740052,99.718 93.238,99.718 C91.2646568,99.718 89.4886746,100.864989 87.91,103.159 C86.3313254,105.453011 85.0980044,108.215651 84.21,111.447 C83.3219956,114.678349 82.878,117.527321 82.878,119.994 C82.878,122.460679 83.2356631,124.03933 83.951,124.73 C84.6663369,125.42067 85.5419948,125.766 86.578,125.766 Z M178.042,114 C179.916676,113.950666 181.680325,113.334006 183.333,112.15 C184.985675,110.965994 186.317662,109.449009 187.329,107.599 C188.340338,105.748991 188.846,103.812677 188.846,101.79 C188.846,99.7673232 188.229339,98.756 186.996,98.756 C185.269325,98.756 183.555009,100.322318 181.853,103.455 C180.150991,106.587682 178.880671,110.102647 178.042,114 Z" id="path-1"></path>
    </defs>
    <g id="Page-1" stroke="none" stroke-width="1" fill="none" fill-rule="evenodd">
        <g id="Artboard" transform="translate(-79.000000, -320.000000)">
            <g id="outlines" transform="translate(79.000000, 320.000000)">
                <g id="Say-ma-Name-Copy">
                    <use fill="#000000" xlink:href="#path-1"></use>
                    <use fill="#FFFFFF" xlink:href="#path-1"></use>
                </g>
                <path d="M36.8105469,187.335938 C38.065436,187.335938 39.0444301,187.580076 39.7475586,188.068359 C40.4506871,188.556643 40.8022461,189.286616 40.8022461,190.258301 C40.8022461,190.751467 40.6716322,191.192137 40.4104004,191.580322 C40.1491686,191.968508 39.7695337,192.260253 39.2714844,192.455566 C39.911136,192.592286 40.3908675,192.885252 40.7106934,193.334473 C41.0305192,193.783694 41.1904297,194.303708 41.1904297,194.894531 C41.1904297,195.915044 40.853519,196.687742 40.1796875,197.212646 C39.505856,197.737551 38.5512757,198 37.315918,198 L32.0717773,198 L32.0717773,196.718262 L33.2070312,196.498535 L33.2070312,188.844727 L32.0717773,188.625 L32.0717773,187.335938 L36.8105469,187.335938 Z M35.3457031,193.283203 L35.3457031,196.359375 L37.315918,196.359375 C37.8823271,196.359375 38.3144516,196.236085 38.6123047,195.989502 C38.9101577,195.742919 39.059082,195.377932 39.059082,194.894531 C39.059082,194.372068 38.9321302,193.972902 38.6782227,193.697021 C38.4243151,193.421141 38.0239285,193.283203 37.4770508,193.283203 L35.3457031,193.283203 Z M35.3457031,191.803711 L36.8837891,191.803711 C37.455081,191.803711 37.8945297,191.686525 38.2021484,191.452148 C38.5097672,191.217772 38.6635742,190.875979 38.6635742,190.426758 C38.6635742,189.933591 38.5085465,189.569825 38.1984863,189.335449 C37.8884262,189.101073 37.4257843,188.983887 36.8105469,188.983887 L35.3457031,188.983887 L35.3457031,191.803711 Z M47.0864258,198 C47.0278317,197.868163 46.9765627,197.732667 46.9326172,197.593506 C46.8886717,197.454345 46.8544923,197.313966 46.8300781,197.172363 C46.5761706,197.465333 46.2673358,197.702148 45.9035645,197.882812 C45.5397931,198.063477 45.1235375,198.153809 44.6547852,198.153809 C43.8784141,198.153809 43.2619652,197.942629 42.8054199,197.520264 C42.3488747,197.097898 42.1206055,196.522953 42.1206055,195.79541 C42.1206055,195.053219 42.4184541,194.479494 43.0141602,194.074219 C43.6098663,193.668943 44.483881,193.466309 45.6362305,193.466309 L46.7275391,193.466309 L46.7275391,192.689941 C46.7275391,192.30908 46.6176769,192.013673 46.3979492,191.803711 C46.1782216,191.593749 45.8535178,191.48877 45.4238281,191.48877 C45.1796863,191.48877 44.9624033,191.516845 44.7719727,191.572998 C44.581542,191.629151 44.427735,191.696289 44.3105469,191.774414 L44.1713867,192.624023 L42.5600586,192.624023 L42.5673828,190.866211 C42.9580098,190.602538 43.4060033,190.380372 43.911377,190.199707 C44.4167506,190.019042 44.9672822,189.928711 45.5629883,189.928711 C46.5444385,189.928711 47.3415497,190.169187 47.9543457,190.650146 C48.5671417,191.131106 48.8735352,191.815914 48.8735352,192.70459 L48.8735352,195.978516 C48.8735352,196.100587 48.8747558,196.215331 48.8771973,196.322754 C48.8796387,196.430176 48.8881835,196.532714 48.902832,196.630371 L49.5546875,196.718262 L49.5546875,198 L47.0864258,198 Z M45.2333984,196.571777 C45.5556657,196.571777 45.8486315,196.502198 46.1123047,196.363037 C46.3759779,196.223876 46.581054,196.049317 46.7275391,195.839355 L46.7275391,194.630859 L45.6362305,194.630859 C45.1821266,194.630859 44.8378918,194.737059 44.6035156,194.949463 C44.3691395,195.161866 44.2519531,195.416991 44.2519531,195.714844 C44.2519531,195.9834 44.3386222,196.193359 44.5119629,196.344727 C44.6853036,196.496095 44.9257797,196.571777 45.2333984,196.571777 Z M57.706543,194.257324 C57.706543,195.438971 57.4428737,196.383786 56.9155273,197.091797 C56.388181,197.799808 55.6264698,198.153809 54.6303711,198.153809 C54.1665016,198.153809 53.7636736,198.057374 53.421875,197.864502 C53.0800764,197.67163 52.7919934,197.392092 52.5576172,197.025879 L52.4038086,198 L50.5581055,198 L50.5581055,188.083008 L49.4228516,187.863281 L49.4228516,186.574219 L52.6894531,186.574219 L52.6894531,190.91748 C52.9189465,190.600096 53.1936019,190.355958 53.5134277,190.185059 C53.8332536,190.014159 54.2006815,189.928711 54.6157227,189.928711 C55.6215871,189.928711 56.388181,190.308346 56.9155273,191.067627 C57.4428737,191.826908 57.706543,192.838861 57.706543,194.103516 L57.706543,194.257324 Z M55.5751953,194.103516 C55.5751953,193.332027 55.4616711,192.720461 55.2346191,192.268799 C55.0075672,191.817136 54.6206082,191.591309 54.0737305,191.591309 C53.7416976,191.591309 53.4609386,191.660888 53.2314453,191.800049 C53.001952,191.93921 52.8212897,192.138182 52.6894531,192.396973 L52.6894531,195.744141 C52.8212897,195.988282 53.0031727,196.173827 53.2351074,196.300781 C53.4670422,196.427735 53.7514632,196.491211 54.0883789,196.491211 C54.6401395,196.491211 55.0258778,196.297121 55.2456055,195.908936 C55.4653331,195.52075 55.5751953,194.970218 55.5751953,194.257324 L55.5751953,194.103516 Z M66.8178711,191.364258 L66.078125,191.474121 L63.1630859,199.186523 C62.9335926,199.757815 62.6271992,200.236326 62.2438965,200.62207 C61.8605938,201.007814 61.283207,201.200684 60.5117188,201.200684 C60.3310538,201.200684 60.1613777,201.186035 60.0026855,201.156738 C59.8439933,201.127441 59.6572276,201.085938 59.4423828,201.032227 L59.6914062,199.472168 C59.759766,199.481934 59.830566,199.491699 59.9038086,199.501465 C59.9770511,199.511231 60.0405271,199.516113 60.0942383,199.516113 C60.4506854,199.516113 60.7241201,199.429444 60.9145508,199.256104 C61.1049814,199.082763 61.2514643,198.866701 61.3540039,198.60791 L61.5957031,198.007324 L59.0834961,191.481445 L58.34375,191.364258 L58.34375,190.075195 L62.2255859,190.075195 L62.2255859,191.364258 L61.3393555,191.510742 L62.4233398,194.674805 L62.5332031,195.246094 L62.5771484,195.253418 L63.8295898,191.510742 L62.9360352,191.364258 L62.9360352,190.075195 L66.8178711,190.075195 L66.8178711,191.364258 Z M82.015625,187.335938 L82.015625,188.625 L80.8730469,188.844727 L80.8730469,198 L78.7416992,198 L74.4350586,190.822266 L74.3911133,190.82959 L74.3911133,196.498535 L75.5336914,196.718262 L75.5336914,198 L71.1171875,198 L71.1171875,196.718262 L72.2524414,196.498535 L72.2524414,188.844727 L71.1171875,188.625 L71.1171875,187.335938 L74.3911133,187.335938 L78.6977539,194.513672 L78.7416992,194.506348 L78.7416992,188.844727 L77.5991211,188.625 L77.5991211,187.335938 L82.015625,187.335938 Z M87.8017578,198 C87.7431638,197.868163 87.6918948,197.732667 87.6479492,197.593506 C87.6040037,197.454345 87.5698243,197.313966 87.5454102,197.172363 C87.2915026,197.465333 86.9826678,197.702148 86.6188965,197.882812 C86.2551251,198.063477 85.8388695,198.153809 85.3701172,198.153809 C84.5937461,198.153809 83.9772972,197.942629 83.520752,197.520264 C83.0642067,197.097898 82.8359375,196.522953 82.8359375,195.79541 C82.8359375,195.053219 83.1337861,194.479494 83.7294922,194.074219 C84.3251983,193.668943 85.199213,193.466309 86.3515625,193.466309 L87.4428711,193.466309 L87.4428711,192.689941 C87.4428711,192.30908 87.3330089,192.013673 87.1132812,191.803711 C86.8935536,191.593749 86.5688498,191.48877 86.1391602,191.48877 C85.8950183,191.48877 85.6777353,191.516845 85.4873047,191.572998 C85.296874,191.629151 85.143067,191.696289 85.0258789,191.774414 L84.8867188,192.624023 L83.2753906,192.624023 L83.2827148,190.866211 C83.6733418,190.602538 84.1213354,190.380372 84.626709,190.199707 C85.1320826,190.019042 85.6826142,189.928711 86.2783203,189.928711 C87.2597705,189.928711 88.0568817,190.169187 88.6696777,190.650146 C89.2824738,191.131106 89.5888672,191.815914 89.5888672,192.70459 L89.5888672,195.978516 C89.5888672,196.100587 89.5900879,196.215331 89.5925293,196.322754 C89.5949707,196.430176 89.6035156,196.532714 89.6181641,196.630371 L90.2700195,196.718262 L90.2700195,198 L87.8017578,198 Z M85.9487305,196.571777 C86.2709977,196.571777 86.5639635,196.502198 86.8276367,196.363037 C87.0913099,196.223876 87.296386,196.049317 87.4428711,195.839355 L87.4428711,194.630859 L86.3515625,194.630859 C85.8974587,194.630859 85.5532238,194.737059 85.3188477,194.949463 C85.0844715,195.161866 84.9672852,195.416991 84.9672852,195.714844 C84.9672852,195.9834 85.0539542,196.193359 85.2272949,196.344727 C85.4006356,196.496095 85.6411117,196.571777 85.9487305,196.571777 Z M90.7460938,191.364258 L90.7460938,190.075195 L93.8735352,190.075195 L93.9614258,191.122559 C94.2153333,190.741697 94.5339336,190.447511 94.9172363,190.23999 C95.300539,190.03247 95.7436498,189.928711 96.246582,189.928711 C96.7543971,189.928711 97.188963,190.041015 97.550293,190.265625 C97.9116229,190.490235 98.1850577,190.829588 98.3706055,191.283691 C98.6147473,190.858885 98.932127,190.526857 99.3227539,190.287598 C99.7133809,190.048339 100.172361,189.928711 100.699707,189.928711 C101.480961,189.928711 102.09741,190.198484 102.549072,190.738037 C103.000735,191.277591 103.226562,192.099116 103.226562,193.202637 L103.226562,196.498535 L104.259277,196.718262 L104.259277,198 L100.165039,198 L100.165039,196.718262 L101.087891,196.498535 L101.087891,193.195312 C101.087891,192.594724 100.990235,192.177247 100.794922,191.942871 C100.599608,191.708495 100.309084,191.591309 99.9233398,191.591309 C99.620604,191.591309 99.3581554,191.658447 99.1359863,191.792725 C98.9138172,191.927003 98.7368171,192.113768 98.6049805,192.353027 C98.6049805,192.445801 98.6074219,192.525146 98.6123047,192.591064 C98.6171875,192.656983 98.6196289,192.724121 98.6196289,192.79248 L98.6196289,196.498535 L99.4838867,196.718262 L99.4838867,198 L95.6240234,198 L95.6240234,196.718262 L96.4882812,196.498535 L96.4882812,193.195312 C96.4882812,192.609372 96.390626,192.195558 96.1953125,191.953857 C95.999999,191.712157 95.7070332,191.591309 95.3164062,191.591309 C95.0283189,191.591309 94.7756359,191.64624 94.5583496,191.756104 C94.3410634,191.865967 94.1616218,192.020995 94.0200195,192.221191 L94.0200195,196.498535 L94.9428711,196.718262 L94.9428711,198 L90.855957,198 L90.855957,196.718262 L91.8886719,196.498535 L91.8886719,191.583984 L90.7460938,191.364258 Z M108.668457,198.153809 C107.525873,198.153809 106.612796,197.787601 105.929199,197.055176 C105.245602,196.32275 104.903809,195.392584 104.903809,194.264648 L104.903809,193.97168 C104.903809,192.794916 105.227292,191.825687 105.874268,191.063965 C106.521243,190.302242 107.389155,189.923828 108.478027,189.928711 C109.547369,189.928711 110.377438,190.250973 110.968262,190.895508 C111.559085,191.540042 111.854492,192.411616 111.854492,193.510254 L111.854492,194.674805 L107.123047,194.674805 L107.108398,194.71875 C107.147461,195.241214 107.32202,195.670897 107.63208,196.007812 C107.94214,196.344728 108.363279,196.513184 108.895508,196.513184 C109.369143,196.513184 109.762205,196.465577 110.074707,196.370361 C110.387209,196.275146 110.729002,196.125001 111.100098,195.919922 L111.678711,197.238281 C111.351561,197.497072 110.927981,197.714355 110.407959,197.890137 C109.887937,198.065919 109.308109,198.153809 108.668457,198.153809 Z M108.478027,191.57666 C108.082518,191.57666 107.770021,191.728026 107.540527,192.030762 C107.311034,192.333498 107.169434,192.731443 107.115723,193.224609 L107.137695,193.26123 L109.759766,193.26123 L109.759766,193.070801 C109.759766,192.616697 109.653566,192.254152 109.441162,191.983154 C109.228759,191.712157 108.907717,191.57666 108.478027,191.57666 Z M125.331055,196.813477 C124.984373,197.155275 124.479007,197.46411 123.814941,197.73999 C123.150876,198.015871 122.31104,198.153809 121.29541,198.153809 C119.854973,198.153809 118.68311,197.671636 117.779785,196.707275 C116.87646,195.742915 116.424805,194.489266 116.424805,192.946289 L116.424805,192.580078 C116.424805,190.98339 116.870357,189.684575 117.761475,188.683594 C118.652592,187.682612 119.815911,187.182129 121.251465,187.182129 C122.08643,187.182129 122.849362,187.315184 123.540283,187.581299 C124.231205,187.847413 124.80615,188.207517 125.265137,188.661621 L125.265137,190.807617 L123.683105,190.807617 L123.382812,189.379395 C123.187499,189.213378 122.929933,189.080323 122.610107,188.980225 C122.290282,188.880126 121.922854,188.830078 121.507812,188.830078 C120.575191,188.830078 119.8501,189.174313 119.33252,189.862793 C118.814939,190.551273 118.556152,191.452143 118.556152,192.56543 L118.556152,192.946289 C118.556152,194.030279 118.810056,194.895749 119.317871,195.542725 C119.825686,196.189701 120.558101,196.513184 121.515137,196.513184 C121.944826,196.513184 122.292723,196.476563 122.558838,196.40332 C122.824953,196.330078 123.033691,196.244629 123.185059,196.146973 L123.185059,194.337891 L121.661621,194.220703 L121.661621,192.719238 L125.331055,192.719238 L125.331055,196.813477 Z M130.245605,198.153809 C129.103022,198.153809 128.189945,197.787601 127.506348,197.055176 C126.82275,196.32275 126.480957,195.392584 126.480957,194.264648 L126.480957,193.97168 C126.480957,192.794916 126.80444,191.825687 127.451416,191.063965 C128.098392,190.302242 128.966303,189.923828 130.055176,189.928711 C131.124517,189.928711 131.954587,190.250973 132.54541,190.895508 C133.136233,191.540042 133.431641,192.411616 133.431641,193.510254 L133.431641,194.674805 L128.700195,194.674805 L128.685547,194.71875 C128.72461,195.241214 128.899168,195.670897 129.209229,196.007812 C129.519289,196.344728 129.940427,196.513184 130.472656,196.513184 C130.946291,196.513184 131.339354,196.465577 131.651855,196.370361 C131.964357,196.275146 132.30615,196.125001 132.677246,195.919922 L133.255859,197.238281 C132.928709,197.497072 132.50513,197.714355 131.985107,197.890137 C131.465085,198.065919 130.885257,198.153809 130.245605,198.153809 Z M130.055176,191.57666 C129.659666,191.57666 129.347169,191.728026 129.117676,192.030762 C128.888182,192.333498 128.746582,192.731443 128.692871,193.224609 L128.714844,193.26123 L131.336914,193.26123 L131.336914,193.070801 C131.336914,192.616697 131.230714,192.254152 131.018311,191.983154 C130.805907,191.712157 130.484865,191.57666 130.055176,191.57666 Z M134.325195,196.718262 L135.350586,196.498535 L135.350586,191.583984 L134.215332,191.364258 L134.215332,190.075195 L137.342773,190.075195 L137.437988,191.210449 C137.701661,190.805174 138.026365,190.490235 138.412109,190.265625 C138.797853,190.041015 139.229978,189.928711 139.708496,189.928711 C140.509281,189.928711 141.134275,190.180173 141.583496,190.683105 C142.032717,191.186038 142.257324,191.974604 142.257324,193.048828 L142.257324,196.498535 L143.282715,196.718262 L143.282715,198 L139.195801,198 L139.195801,196.718262 L140.111328,196.498535 L140.111328,193.056152 C140.111328,192.523923 140.003907,192.14673 139.789062,191.924561 C139.574218,191.702391 139.249514,191.591309 138.814941,191.591309 C138.531737,191.591309 138.277833,191.648681 138.053223,191.763428 C137.828612,191.878174 137.640626,192.040526 137.489258,192.250488 L137.489258,196.498535 L138.353516,196.718262 L138.353516,198 L134.325195,198 L134.325195,196.718262 Z M147.68457,198.153809 C146.541986,198.153809 145.62891,197.787601 144.945312,197.055176 C144.261715,196.32275 143.919922,195.392584 143.919922,194.264648 L143.919922,193.97168 C143.919922,192.794916 144.243405,191.825687 144.890381,191.063965 C145.537357,190.302242 146.405268,189.923828 147.494141,189.928711 C148.563482,189.928711 149.393552,190.250973 149.984375,190.895508 C150.575198,191.540042 150.870605,192.411616 150.870605,193.510254 L150.870605,194.674805 L146.13916,194.674805 L146.124512,194.71875 C146.163574,195.241214 146.338133,195.670897 146.648193,196.007812 C146.958254,196.344728 147.379392,196.513184 147.911621,196.513184 C148.385256,196.513184 148.778319,196.465577 149.09082,196.370361 C149.403322,196.275146 149.745115,196.125001 150.116211,195.919922 L150.694824,197.238281 C150.367674,197.497072 149.944094,197.714355 149.424072,197.890137 C148.90405,198.065919 148.324222,198.153809 147.68457,198.153809 Z M147.494141,191.57666 C147.098631,191.57666 146.786134,191.728026 146.556641,192.030762 C146.327147,192.333498 146.185547,192.731443 146.131836,193.224609 L146.153809,193.26123 L148.775879,193.26123 L148.775879,193.070801 C148.775879,192.616697 148.669679,192.254152 148.457275,191.983154 C148.244872,191.712157 147.92383,191.57666 147.494141,191.57666 Z M152.04248,196.718262 L153.067871,196.498535 L153.067871,191.583984 L151.932617,191.364258 L151.932617,190.075195 L155.060059,190.075195 L155.155273,191.232422 C155.340821,190.822264 155.580077,190.502443 155.873047,190.272949 C156.166017,190.043456 156.505369,189.928711 156.891113,189.928711 C157.003419,189.928711 157.121826,189.937256 157.246338,189.954346 C157.37085,189.971436 157.474609,189.992187 157.557617,190.016602 L157.330566,191.964844 L156.45166,191.942871 C156.139159,191.942871 155.880372,192.003906 155.675293,192.125977 C155.470214,192.248047 155.313965,192.421386 155.206543,192.645996 L155.206543,196.498535 L156.231934,196.718262 L156.231934,198 L152.04248,198 L152.04248,196.718262 Z M163.094727,198 C163.036133,197.868163 162.984864,197.732667 162.940918,197.593506 C162.896972,197.454345 162.862793,197.313966 162.838379,197.172363 C162.584471,197.465333 162.275637,197.702148 161.911865,197.882812 C161.548094,198.063477 161.131838,198.153809 160.663086,198.153809 C159.886715,198.153809 159.270266,197.942629 158.813721,197.520264 C158.357175,197.097898 158.128906,196.522953 158.128906,195.79541 C158.128906,195.053219 158.426755,194.479494 159.022461,194.074219 C159.618167,193.668943 160.492182,193.466309 161.644531,193.466309 L162.73584,193.466309 L162.73584,192.689941 C162.73584,192.30908 162.625978,192.013673 162.40625,191.803711 C162.186522,191.593749 161.861819,191.48877 161.432129,191.48877 C161.187987,191.48877 160.970704,191.516845 160.780273,191.572998 C160.589843,191.629151 160.436036,191.696289 160.318848,191.774414 L160.179688,192.624023 L158.568359,192.624023 L158.575684,190.866211 C158.966311,190.602538 159.414304,190.380372 159.919678,190.199707 C160.425051,190.019042 160.975583,189.928711 161.571289,189.928711 C162.552739,189.928711 163.34985,190.169187 163.962646,190.650146 C164.575443,191.131106 164.881836,191.815914 164.881836,192.70459 L164.881836,195.978516 C164.881836,196.100587 164.883057,196.215331 164.885498,196.322754 C164.887939,196.430176 164.896484,196.532714 164.911133,196.630371 L165.562988,196.718262 L165.562988,198 L163.094727,198 Z M161.241699,196.571777 C161.563966,196.571777 161.856932,196.502198 162.120605,196.363037 C162.384279,196.223876 162.589355,196.049317 162.73584,195.839355 L162.73584,194.630859 L161.644531,194.630859 C161.190427,194.630859 160.846193,194.737059 160.611816,194.949463 C160.37744,195.161866 160.260254,195.416991 160.260254,195.714844 C160.260254,195.9834 160.346923,196.193359 160.520264,196.344727 C160.693604,196.496095 160.93408,196.571777 161.241699,196.571777 Z M168.858887,188.134277 L168.858887,190.075195 L170.250488,190.075195 L170.250488,191.57666 L168.858887,191.57666 L168.858887,195.612305 C168.858887,195.919923 168.922363,196.139648 169.049316,196.271484 C169.17627,196.403321 169.347167,196.469238 169.562012,196.469238 C169.708497,196.469238 169.836669,196.463135 169.946533,196.450928 C170.056397,196.438721 170.179687,196.417969 170.316406,196.388672 L170.499512,197.934082 C170.260253,198.007325 170.023439,198.062256 169.789062,198.098877 C169.554686,198.135498 169.300783,198.153809 169.027344,198.153809 C168.290035,198.153809 167.722414,197.951174 167.324463,197.545898 C166.926512,197.140623 166.727539,196.49854 166.727539,195.619629 L166.727539,191.57666 L165.562988,191.57666 L165.562988,190.075195 L166.727539,190.075195 L166.727539,188.134277 L168.858887,188.134277 Z M171.078125,193.964355 C171.078125,192.782709 171.408932,191.814701 172.070557,191.060303 C172.732181,190.305904 173.646479,189.928711 174.813477,189.928711 C175.985357,189.928711 176.902096,190.304684 177.563721,191.056641 C178.225345,191.808598 178.556152,192.777826 178.556152,193.964355 L178.556152,194.118164 C178.556152,195.309576 178.225345,196.280026 177.563721,197.029541 C176.902096,197.779056 175.99024,198.153809 174.828125,198.153809 C173.651361,198.153809 172.732181,197.779056 172.070557,197.029541 C171.408932,196.280026 171.078125,195.309576 171.078125,194.118164 L171.078125,193.964355 Z M173.216797,194.118164 C173.216797,194.840824 173.343749,195.420652 173.597656,195.857666 C173.851564,196.29468 174.261716,196.513184 174.828125,196.513184 C175.379886,196.513184 175.783934,196.293459 176.040283,195.854004 C176.296632,195.414549 176.424805,194.835941 176.424805,194.118164 L176.424805,193.964355 C176.424805,193.261227 176.295411,192.687502 176.036621,192.243164 C175.777831,191.798826 175.37012,191.57666 174.813477,191.57666 C174.256833,191.57666 173.851564,191.798826 173.597656,192.243164 C173.343749,192.687502 173.216797,193.261227 173.216797,193.964355 L173.216797,194.118164 Z M179.647461,196.718262 L180.672852,196.498535 L180.672852,191.583984 L179.537598,191.364258 L179.537598,190.075195 L182.665039,190.075195 L182.760254,191.232422 C182.945802,190.822264 183.185057,190.502443 183.478027,190.272949 C183.770998,190.043456 184.11035,189.928711 184.496094,189.928711 C184.608399,189.928711 184.726806,189.937256 184.851318,189.954346 C184.975831,189.971436 185.079589,189.992187 185.162598,190.016602 L184.935547,191.964844 L184.056641,191.942871 C183.744139,191.942871 183.485353,192.003906 183.280273,192.125977 C183.075194,192.248047 182.918946,192.421386 182.811523,192.645996 L182.811523,196.498535 L183.836914,196.718262 L183.836914,198 L179.647461,198 L179.647461,196.718262 Z" id="Baby-Name-Generator" fill="#FFFFFF"></path>
            </g>
        </g>
    </g>
</svg>