<?xml version="1.0" encoding="UTF-8"?>
<svg width="233px" height="61px" viewBox="0 0 233 61" version="1.1" xmlns="http://www.w3.org/2000/svg" xmlns:xlink="http://www.w3.org/1999/xlink">
    <!-- Generator: Sketch 52.6 (67491) - http://www.bohemiancoding.com/sketch -->
    <title>Group 2</title>
    <desc>Created with Sketch.</desc>
    <g id="Page-1" stroke="none" stroke-width="1" fill="none" fill-rule="evenodd" opacity="0.75">
        <g id="Group" transform="translate(0.000000, -5.000000)">
            <g id="Group-2">
                <path d="M176.453395,34.3675351 C176.890987,33.5424817 177.436856,32.7903043 178.091,32.111 C180.06701,30.0589897 182.774483,29.033 186.2135,29.033 C189.652518,29.033 193.176982,29.3749966 196.787,30.059 L195.647,39.179 C191.884982,38.3049956 189.301007,37.868 187.895,37.868 C186.108992,37.868 185.216,38.5899928 185.216,40.034 C185.216,40.6040029 185.643496,41.1549973 186.4985,41.687 C187.353505,42.2190027 188.388994,42.7794971 189.605,43.3685 C190.821007,43.9575029 192.036994,44.6604959 193.253,45.4775 C194.469007,46.2945041 195.504496,47.4629924 196.3595,48.983 C197.214505,50.5030076 197.642,52.2509901 197.642,54.227 C197.642,57.837018 196.67301,60.6299901 194.735,62.606 C192.796991,64.5820099 190.051518,65.57 186.4985,65.57 C182.945483,65.57 179.478017,65.0190055 176.096,63.917 L176.318522,60.90285 C174.624933,63.634292 171.466436,65 166.843,65 L154.284,65 L144.765,65 L143.682,59.414 L136.956,59.414 L135.873,65 L130.61,65 L112.598,65 L112.598,38.21 L107.563,38.21 L107.563,65 L97.816,65 L97.816,38.21 L93.143128,38.21 C93.775711,40.6086685 94.0919999,43.5251612 94.0919999,46.9595 C94.0919999,53.2865316 92.9900109,57.9699848 90.7859999,61.01 C88.5819889,64.0500152 85.0100246,65.57 80.0699999,65.57 C75.1299752,65.57 71.5770107,64.069015 69.4109999,61.067 C67.6488402,58.6247085 66.6034944,55.0821075 66.274945,50.4391218 C66.1948522,50.5262149 66.1128704,50.610841 66.0289998,50.693 C64.1669905,52.5170091 61.2980192,53.429 57.4219998,53.429 L54.7999998,53.429 L54.7999998,65 L45.7179997,65 L26.5659997,65 L26.5659997,53.8342796 C24.8834518,61.2781222 20.2601413,65 12.6959995,65 L0.953999542,65 L0.953999542,29.603 L12.9239995,29.603 C18.1300256,29.603 21.8254886,31.0564855 24.0104995,33.9635 C25.1699719,35.5061024 26.0218037,37.4098251 26.5659997,39.6746868 L26.5659997,29.603 L46.2879997,29.603 L56.7949998,29.603 C60.8610201,29.603 63.8819899,30.5339907 65.8579998,32.396 C66.7814877,33.2662098 67.4891764,34.3978546 67.9810689,35.7909439 C68.3890764,34.8531209 68.8657199,34.0254736 69.4109999,33.308 C71.6150109,30.4579858 75.205975,29.033 80.1839999,29.033 C85.1620248,29.033 88.7244892,30.4389859 90.8714999,33.251 C90.9531078,33.3578847 91.0331648,33.4673086 91.1116708,33.5792715 L91.375,29.603 L114.745,29.603 L122.345,29.603 L122.345,57.077 L128.264464,57.077 L133.308,29.603 L147.786,29.603 L152.878,57.3410006 L152.878,29.603 L166.558,29.603 C170.168018,29.603 172.846992,30.3344927 174.595,31.7975 C175.399681,32.4709828 176.019145,33.3276589 176.453395,34.3675351 Z M175.649724,43.9164236 C175.039402,44.7396143 174.250829,45.4594718 173.284,46.076 L173.284,46.418 C176.286015,47.5960059 177.787,50.388978 177.787,54.797 C177.787,55.1120058 177.779177,55.4197174 177.763529,55.7201349 C181.275724,56.7007161 183.75986,57.191 185.216,57.191 C186.812008,57.191 187.61,56.488007 187.61,55.082 C187.61,54.3599964 187.182505,53.695003 186.3275,53.087 C185.472496,52.478997 184.437007,51.871003 183.221,51.263 C182.004994,50.654997 180.779507,49.952004 179.5445,49.154 C178.309494,48.355996 177.264505,47.1970076 176.4095,45.677 C176.10035,45.1273992 175.847091,44.5405412 175.649724,43.9164236 Z M45.2239998,38.324 L36.3129997,38.324 L36.3129997,43.625 L43.1562806,43.625 L39.5151306,51.149 L36.3129997,51.149 L36.3129997,57.02 L45.2239998,57.02 L45.2239998,38.324 Z M12.5249995,56.792 C14.5390096,56.792 15.8404966,56.0795071 16.4294995,54.6545 C17.0185025,53.2294929 17.3129995,50.8355168 17.3129995,47.4725 C17.3129995,44.1094832 16.9995027,41.725007 16.3724995,40.319 C15.7454964,38.912993 14.4060098,38.21 12.3539995,38.21 L10.6439995,38.21 L10.6439995,56.792 L12.5249995,56.792 Z M58.5049998,45.734 C58.8470015,45.0879968 59.0179998,43.9290084 59.0179998,42.257 C59.0179998,40.5849916 58.8280017,39.4070034 58.4479998,38.723 C58.0679979,38.0389966 57.3080055,37.697 56.1679998,37.697 L54.7999998,37.697 L54.7999998,46.703 L56.3959998,46.703 C57.4600051,46.703 58.1629981,46.3800032 58.5049998,45.734 Z M84.2879999,46.988 C84.2879999,43.4919825 84.0125026,41.1265062 83.4614999,39.8915 C82.9104971,38.6564938 81.7895083,38.039 80.0984999,38.039 C78.4074914,38.039 77.3150024,38.6564938 76.8209999,39.8915 C76.3269974,41.1265062 76.0799999,43.4729827 76.0799999,46.931 L76.0799999,48.299 C76.0799999,51.9850184 76.3554971,54.4074942 76.9064999,55.5665 C77.4575026,56.7255058 78.5784914,57.305 80.2694999,57.305 C81.9605083,57.305 83.0529974,56.7540055 83.5469999,55.652 C84.0410024,54.5499945 84.2879999,52.2700173 84.2879999,48.812 L84.2879999,46.988 Z M142.599,52.745 L140.604,40.091 L140.205,40.091 L138.21,52.745 L142.599,52.745 Z M164.563,58.673 C165.703006,58.673 166.472498,58.4165026 166.8715,57.9035 C167.270502,57.3904974 167.47,56.3265081 167.47,54.7115 C167.47,53.0964919 167.261002,51.9565033 166.843,51.2915 C166.424998,50.6264967 165.665006,50.294 164.563,50.294 L162.739,50.294 L162.739,58.673 L164.563,58.673 Z M164.62,44.765 C165.494005,44.765 166.101999,44.4990027 166.444,43.967 C166.786002,43.4349973 166.957,42.4945067 166.957,41.1455 C166.957,39.7964933 166.776502,38.8465028 166.4155,38.2955 C166.054499,37.7444972 165.437005,37.469 164.563,37.469 L162.739,37.469 L162.739,44.765 L164.62,44.765 Z" id="DEPOTLABS" fill="#000000"></path>
                <text id="built-by" font-family="RobotoCondensed-Regular, Roboto Condensed" font-size="20" font-style="condensed" font-weight="normal" fill="#000000">
                    <tspan x="0.3671875" y="19.5">built by</tspan>
                </text>
                <polygon id="Fill-1" fill="#FF9100" points="220.335161 37.1551726 211.595895 37.1025087 215.887499 64.2158335 216.823849 64.2158335 225.407056 64.2158335 226.343406 64.2158335 230.63501 37.1025087"></polygon>
                <polygon id="Fill-2" fill="#FFDD00" points="220.335161 37.1551726 211.595895 37.1025087 215.887499 64.2158335 216.823849 64.2158335 223.22224 64.2158335 224.15859 64.2158335 228.450194 37.1025087"></polygon>
                <polygon id="Fill-3" fill="#FFFFFF" points="209.098962 37.1025243 231.649389 37.1025243 231.649389 34.6021601 209.098962 34.6021601"></polygon>
                <polygon id="Stroke-4" stroke="#000000" stroke-width="1.17043743" points="209.098962 37.1025243 231.649389 37.1025243 231.649389 34.6021601 209.098962 34.6021601"></polygon>
                <polygon id="Fill-6" fill="#FFFFFF" points="227.279756 30.5390682 221.895744 30.5390682 218.696548 30.5390682 213.312536 30.5390682 211.673924 34.2896146 218.696548 34.2896146 221.895744 34.2896146 228.918369 34.2896146"></polygon>
                <polygon id="Stroke-7" stroke="#050505" stroke-width="1.5" points="227.279756 30.5390682 221.895744 30.5390682 218.696549 30.5390682 213.312536 30.5390682 211.673924 34.2896146 218.696549 34.2896146 221.895744 34.2896146 228.918369 34.2896146"></polygon>
                <polygon id="Stroke-9" stroke="#000000" stroke-width="1.5" points="220.335161 37.1551726 210.035312 37.1025087 214.326915 64.2158335 215.263265 64.2158335 225.407056 64.2158335 226.343406 64.2158335 230.63501 37.1025087"></polygon>
                <polygon id="Fill-12" fill="#FFFFFF" points="230.947127 44.7598898 220.665926 44.7598898 219.926366 44.7598898 209.645166 44.7598898 211.568272 55.5427106 220.296146 55.4487126 229.02402 55.5427106"></polygon>
                <polygon id="Stroke-13" stroke="#000000" stroke-width="1.5" points="230.947127 44.7598898 220.665926 44.7598898 219.926366 44.7598898 209.645166 44.7598898 211.568272 55.5427106 220.296146 55.4487126 229.02402 55.5427106"></polygon>
            </g>
        </g>
    </g>
</svg>