<?xml version="1.0" encoding="UTF-8"?>
<svg width="421px" height="99px" viewBox="0 0 421 99" version="1.1" xmlns="http://www.w3.org/2000/svg" xmlns:xlink="http://www.w3.org/1999/xlink">
    <!-- Generator: Sketch 52.6 (67491) - http://www.bohemiancoding.com/sketch -->
    <title>Group</title>
    <desc>Created with Sketch.</desc>
    <g id="Page-1" stroke="none" stroke-width="1" fill="none" fill-rule="evenodd">
        <g id="Group" transform="translate(-2.000000, -18.000000)" fill="#000000">
            <text id="Say-ma-Name" font-family="Lobster-Regular, Lobster" font-size="74" font-weight="normal">
                <tspan x="0.723" y="74">Say ma Name</tspan>
            </text>
            <path d="M9.87157607,103.035732 C130.597979,97.0119106 213.86859,94 259.683407,94 C304.099545,94 355.891397,96.8308167 415.058962,102.49245 L415.058959,102.492476 C419.288766,102.897218 422.518177,106.450397 422.518177,110.699524 L422.518177,110.699524 C422.518177,114.12404 419.742058,116.900159 416.317542,116.900159 C415.941387,116.900159 415.566013,116.86593 415.196061,116.797897 C366.257719,107.798217 314.770233,103.298374 260.733602,103.298374 C204.615561,103.298374 121.937816,105.457496 12.7003674,109.77574 L12.7003672,109.775734 C10.5140613,109.86216 8.50309991,108.584491 7.65252328,106.568573 L7.65252328,106.568573 C7.1058589,105.272946 7.71301315,103.779474 9.00864027,103.23281 C9.2825711,103.11723 9.57462812,103.05052 9.87157466,103.035703 Z" id="Rectangle"></path>
        </g>
    </g>
</svg>