<?xml version="1.0" encoding="UTF-8"?>
<svg width="415px" height="97px" viewBox="0 0 415 97" version="1.1" xmlns="http://www.w3.org/2000/svg" xmlns:xlink="http://www.w3.org/1999/xlink">
    <!-- Generator: Sketch 52.6 (67491) - http://www.bohemiancoding.com/sketch -->
    <title>Group</title>
    <desc>Created with Sketch.</desc>
    <g id="Page-1" stroke="none" stroke-width="1" fill="none" fill-rule="evenodd">
        <g id="Group" transform="translate(-2.000000, -18.000000)" fill="#000000">
            <text id="Say-ma-name" font-family="Lobster-Regular, Lobster" font-size="74" font-weight="normal">
                <tspan x="0.754" y="74">Say ma name</tspan>
            </text>
            <path d="M136.833769,102.17523 C218.481206,96.7250767 274.825524,94 305.866722,94 C335.621567,94 370.24752,96.503901 409.744582,101.511703 L409.744584,101.511684 C413.615977,102.002535 416.518177,105.295937 416.518177,109.198323 L416.518177,109.198323 C416.518177,112.132074 414.139902,114.510349 411.206151,114.510349 C410.785261,114.510349 410.365862,114.460327 409.956778,114.361335 C377.175614,106.428778 342.716809,102.462498 306.580364,102.462498 C268.570276,102.462498 212.629128,104.414776 138.756918,108.319331 L138.756918,108.319316 C136.877567,108.41865 135.169135,107.233729 134.603644,105.438724 L134.603644,105.438724 C134.186497,104.114593 134.921752,102.703007 136.245882,102.28586 C136.436746,102.225731 136.634106,102.188608 136.833772,102.17528 Z" id="Rectangle"></path>
        </g>
    </g>
</svg>