<?xml version="1.0" encoding="UTF-8"?>
<svg width="314px" height="124px" viewBox="0 0 314 124" version="1.1" xmlns="http://www.w3.org/2000/svg" xmlns:xlink="http://www.w3.org/1999/xlink">
    <!-- Generator: Sketch 52.6 (67491) - http://www.bohemiancoding.com/sketch -->
    <title>Group 2</title>
    <desc>Created with Sketch.</desc>
    <g id="Page-1" stroke="none" stroke-width="1" fill="none" fill-rule="evenodd">
        <g id="Artboard-Copy-2" transform="translate(-60.000000, -162.000000)" fill="#FFFFFF">
            <g id="Group-2" transform="translate(54.000000, 123.000000)">
                <g id="Group-Copy">
                    <path d="M40.08,162.88 C33.3599664,162.88 27.4400256,161.706678 22.32,159.36 C17.1999744,157.013322 13.2533472,153.733354 10.48,149.52 C7.7066528,145.306646 6.32,140.426694 6.32,134.88 C6.32,130.186643 7.3066568,125.920019 9.28,122.08 C11.2533432,118.239981 13.9199832,115.200011 17.28,112.96 C20.6400168,110.719989 24.3466464,109.6 28.4,109.6 C32.133352,109.6 35.2799872,110.533324 37.84,112.4 C40.4000128,114.266676 41.9999968,116.853317 42.64,120.16 C37.0933056,120.16 32.6666832,121.626652 29.36,124.56 C26.0533168,127.493348 24.4,131.466642 24.4,136.48 C24.4,141.06669 25.7866528,144.746653 28.56,147.52 C31.3333472,150.293347 35.0133104,151.68 39.6,151.68 C45.2533616,151.68 49.9199816,149.786686 53.6,146 C57.2800184,142.213314 59.12,137.440029 59.12,131.68 C59.12,126.666642 57.7333472,121.920022 54.96,117.44 C52.1866528,112.959978 48.0266944,107.520032 42.48,101.12 C36.7199712,94.5066336 32.373348,88.8266904 29.44,84.08 C26.506652,79.3333096 25.04,74.1333616 25.04,68.48 C25.04,62.9333056 26.5866512,57.9466888 29.68,53.52 C32.7733488,49.0933112 37.0399728,45.6000128 42.48,43.04 C47.9200272,40.4799872 54.0532992,39.2 60.88,39.2 C69.5200432,39.2 76.4266408,41.2266464 81.6,45.28 C86.7733592,49.3333536 89.36,54.7732992 89.36,61.6 C89.36,66.0800224 88.2400112,69.7066528 86,72.48 C83.7599888,75.2533472 80.8266848,76.64 77.2,76.64 C73.1466464,76.64 69.8933456,74.9866832 67.44,71.68 C69.4666768,70.1866592 71.0666608,68.2133456 72.24,65.76 C73.4133392,63.3066544 74,60.74668 74,58.08 C74,54.6666496 72.9866768,51.9466768 70.96,49.92 C68.9333232,47.8933232 66.1600176,46.88 62.64,46.88 C58.373312,46.88 54.8800136,48.3999848 52.16,51.44 C49.4399864,54.4800152 48.08,58.3466432 48.08,63.04 C48.08,67.306688 49.3066544,71.2799816 51.76,74.96 C54.2133456,78.6400184 58.0533072,83.3599712 63.28,89.12 C67.546688,93.7066896 70.9866536,97.6533168 73.6,100.96 C76.2133464,104.266683 78.453324,108.079978 80.32,112.4 C82.186676,116.720022 83.12,121.386642 83.12,126.4 C83.12,133.226701 81.2266856,139.413306 77.44,144.96 C73.6533144,150.506694 68.4800328,154.879984 61.92,158.08 C55.3599672,161.280016 48.08004,162.88 40.08,162.88 Z M186.64,160.96 C180.986638,160.96 176.880013,159.25335 174.32,155.84 C171.759987,152.42665 170.48,148.106693 170.48,142.88 C170.48,140.639989 170.746664,138.106681 171.28,135.28 C171.813336,132.453319 172.37333,129.70668 172.96,127.04 C173.54667,124.37332 173.946666,122.66667 174.16,121.92 C175.013338,118.186648 175.81333,114.506685 176.56,110.88 C177.30667,107.253315 177.68,104.320011 177.68,102.08 C177.68,96.6399728 175.760019,93.92 171.92,93.92 C169.146653,93.92 166.693344,95.2799864 164.56,98 C162.426656,100.720014 160.720006,104.266645 159.44,108.64 L148.56,160 L125.52,160 L137.2,104.8 C137.520002,103.519994 137.68,102.186674 137.68,100.8 C137.68,96.1066432 136.080016,93.76 132.88,93.76 C129.893318,93.76 127.306678,95.1199864 125.12,97.84 C122.933322,100.560014 121.200006,104.159978 119.92,108.64 L109.04,160 L86,160 L102.96,80 L126,80 L124.24,88.32 C129.680027,82.2399696 136.186629,79.2 143.76,79.2 C153.146714,79.2 158.639992,83.7866208 160.24,92.96 C166.106696,83.893288 173.519955,79.36 182.48,79.36 C187.920027,79.36 192.239984,80.8533184 195.44,83.84 C198.640016,86.8266816 200.24,91.3599696 200.24,97.44 C200.24,100.533349 199.86667,103.973314 199.12,107.76 C198.37333,111.546686 197.306674,116.159973 195.92,121.6 C195.066662,124.906683 194.293337,128.133318 193.6,131.28 C192.906663,134.426682 192.56,136.906658 192.56,138.72 C192.56,140.853344 193.039995,142.506661 194,143.68 C194.960005,144.853339 196.613322,145.44 198.96,145.44 C201.520013,145.44 203.279995,145.120003 204.24,144.48 C203.599997,149.920027 201.65335,154.026653 198.4,156.8 C195.14665,159.573347 191.22669,160.96 186.64,160.96 Z M243.12,50.4 C235.86663,52.9600128 230.346686,56.9866392 226.56,62.48 C222.773314,67.9733608 220.88,74.6132944 220.88,82.4 C220.88,85.8133504 221.25333,88.9333192 222,91.76 C222.74667,94.5866808 223.813326,96.9066576 225.2,98.72 C218.373299,98.72 213.33335,97.3066808 210.08,94.48 C206.82665,91.6533192 205.2,87.306696 205.2,81.44 C205.2,73.973296 207.386645,67.0133656 211.76,60.56 C216.133355,54.1066344 222.053296,48.9600192 229.52,45.12 C236.986704,41.2799808 245.09329,39.36 253.84,39.36 C256.293346,39.36 258.426658,39.5199984 260.24,39.84 C262.053342,40.1600016 264.133322,40.7466624 266.48,41.6 L285.68,127.2 L303.6,40.32 L319.12,40.32 L293.04,160 L270.96,160 L252.4,80.64 L234.16,160 L218.96,160 L243.12,50.4 Z" id="SmN"></path>
                </g>
            </g>
        </g>
    </g>
</svg>