<?xml version="1.0" encoding="UTF-8"?>
<svg width="193px" height="81px" viewBox="0 0 193 81" version="1.1" xmlns="http://www.w3.org/2000/svg" xmlns:xlink="http://www.w3.org/1999/xlink">
    <!-- Generator: Sketch 52.6 (67491) - http://www.bohemiancoding.com/sketch -->
    <title>Group 32</title>
    <desc>Created with Sketch.</desc>
    <g id="Page-1" stroke="none" stroke-width="1" fill="none" fill-rule="evenodd">
        <g id="Artboard-2" transform="translate(-30.000000, -61.000000)" fill="#FFFFFE">
            <g id="Group-32" transform="translate(30.000000, 61.000000)">
                <path d="M89.6797,53.2891 C90.6137,53.2891 93.2347,53.1881 93.8047,53.0881 C93.9077,53.0511 93.9077,53.3161 93.8427,53.3561 C93.1997,53.6921 93.1177,54.5931 93.2347,54.8731 C93.3677,55.2691 93.7097,56.1181 93.7457,56.2111 L102.8447,76.4561 L106.8257,68.5591 L101.4697,56.4781 C101.4697,56.4781 100.7337,54.8941 100.2277,54.4621 C99.7557,54.0341 99.5507,53.9601 99.2227,53.7251 C99.1157,53.6531 98.7827,53.6231 98.6387,53.5871 C98.5097,53.5581 98.5387,53.2541 98.6387,53.2541 C99.2227,53.2541 99.7557,53.2541 100.3297,53.2891 C100.9907,53.3161 100.6267,53.3161 101.4697,53.3161 C102.4107,53.3161 103.3107,53.1881 103.8677,53.0881 C103.9577,53.0511 103.9577,53.3161 103.8927,53.3561 C103.2867,53.6921 103.2487,54.6921 103.3107,54.8731 C103.4527,55.2691 103.7537,56.1181 103.7927,56.2111 L108.1647,65.9351 L112.8107,56.7171 C112.8107,56.7171 113.3347,55.6391 113.3667,54.9321 C113.4107,54.4311 113.3667,53.6921 112.8747,53.3891 C112.8107,53.3561 112.8107,53.1121 112.9047,53.1121 C114.2157,53.3161 115.1897,53.3561 116.7007,53.3161 C117.0767,53.3161 117.4127,53.2891 117.7467,53.2891 C117.9447,53.2891 118.2187,53.3161 118.4067,53.3161 C118.4777,53.3161 118.5137,53.5581 118.4067,53.5871 C118.1867,53.6531 117.7127,53.6921 117.3487,53.8201 C116.9087,53.9881 116.4637,54.2991 116.1587,54.5321 C115.3897,55.1011 114.7247,56.4061 114.7247,56.4061 L108.9647,67.6751 L112.9467,76.4561 L122.8607,56.7171 C122.8607,56.7171 123.4337,55.6391 123.4697,54.9321 C123.4927,54.4311 123.4697,53.6921 122.9227,53.3891 C122.8607,53.3561 122.8607,53.1121 122.9587,53.1121 C124.3087,53.3161 125.2787,53.3561 126.7897,53.3161 C127.3307,53.3161 127.4747,53.2891 127.9967,53.2891 C128.0627,53.2891 128.1037,53.5261 127.9967,53.5581 C127.4267,53.6921 126.7897,54.1361 126.2207,54.5321 C125.4447,55.0671 124.7677,56.4061 124.7677,56.4061 L112.9047,79.7511 C112.8347,79.8871 112.6197,80.4571 112.3637,80.4571 C112.0917,80.4571 111.9517,80.0891 111.8237,79.7511 L107.6217,70.3341 L102.8167,79.7511 C102.7507,79.8871 102.5247,80.4571 102.3167,80.4571 C101.9837,80.4571 101.8767,80.0891 101.7327,79.7511 L91.3797,56.4781 C91.3797,56.4781 90.0337,54.1581 89.6877,54.1581 C89.5197,54.3161 89.3817,54.4951 89.3007,54.7291 C89.0397,55.5741 89.0947,56.7821 89.0947,56.7821 L88.8687,79.1431 C88.8687,79.1431 88.8967,79.9231 88.8367,80.3271 C88.7927,80.5311 88.6237,80.4941 88.6237,80.4941 C88.0207,80.5831 69.2177,57.3851 69.2177,57.3851 L69.1577,75.6511 C69.1577,75.6511 69.1577,77.1281 69.2557,77.8031 C69.3277,78.2091 69.6557,78.7751 69.9267,79.0481 C70.2327,79.3831 70.2327,79.2821 70.5647,79.5261 C70.8377,79.6201 71.1387,79.6201 71.1387,79.9521 L71.0337,80.0251 C70.1677,80.0891 69.7607,79.9521 68.7247,79.9521 C68.3507,79.9521 67.3497,79.9521 66.6027,79.9891 L65.7917,80.0251 C65.7917,80.0251 65.4557,79.9891 65.5917,79.6791 C66.2947,79.4521 66.9757,79.1791 67.2107,78.5081 C67.3297,78.1621 67.3827,77.7591 67.4077,77.3941 L67.6657,55.6391 C67.6657,55.6391 67.6447,55.2081 67.4017,54.9321 C67.0767,54.4621 66.1287,53.7551 65.4857,53.6921 C65.2907,53.6531 65.2177,53.6531 65.0857,53.6231 C64.9607,53.5871 64.9837,53.2891 65.0857,53.2891 C65.6597,53.2891 66.2947,53.3161 66.8707,53.3561 C67.5687,53.3891 68.4527,53.4141 69.2957,53.4141 C70.2327,53.4141 70.7717,53.3891 71.3077,53.2891 C71.4087,53.2541 71.4087,53.4931 71.3467,53.5261 C70.7327,53.8621 70.4307,54.5581 70.7997,55.1011 C71.2397,55.8411 72.1507,56.8501 72.1507,56.8501 L86.4397,73.8311 L87.2137,74.7421 L87.3397,57.5901 C87.3397,57.5901 87.3397,56.0811 87.2507,55.4431 C87.1807,55.0041 86.8767,54.4621 86.6057,54.1581 C86.3767,53.8681 85.6967,53.6301 85.4797,53.5461 C85.3887,53.5041 85.3347,53.1421 85.4657,53.1711 C85.5537,53.1711 89.5267,53.2951 89.6797,53.2891" id="Fill-18"></path>
                <path d="M52.5088,72.1367 C52.7708,71.7567 53.2418,70.6197 54.0298,69.1387 C62.3198,49.6787 69.1568,48.6427 72.3238,48.2457 C75.0298,47.9177 79.6118,48.3417 81.5748,52.4757 C81.7278,52.7627 81.9688,52.5317 82.0308,52.4637 C82.4658,52.0667 79.8758,46.2567 72.2798,46.7677 C61.1608,46.6747 53.8998,63.5797 52.5578,67.1277 C52.3008,67.9157 51.9708,68.6137 51.5878,69.3887 L45.3838,57.4857 C45.3168,57.3477 44.3038,55.0627 44.3038,54.3307 C44.3038,53.8067 44.8238,53.4027 45.3838,53.1127 L45.3478,52.8867 C44.8528,52.9917 43.6868,53.0287 42.8748,53.0287 C42.1388,53.0287 42.1388,53.0517 41.5638,53.0287 C41.0638,52.9917 40.3668,52.9017 39.8978,52.9017 C39.8088,52.9017 39.7808,53.1997 39.8978,53.2267 C40.0088,53.2547 40.5108,53.3727 40.6248,53.4377 C40.9138,53.6367 40.9998,53.6647 41.3908,54.0467 C41.8488,54.4307 41.7058,54.2557 42.3728,55.8847 L49.6548,70.3267 C49.8048,70.6897 50.1458,71.4767 50.3968,72.0117 C50.3748,75.6517 50.4408,76.5027 50.4408,76.5027 C50.4408,76.5027 50.5498,77.7037 50.2388,78.5487 C50.0058,79.2227 49.4528,79.4897 48.7368,79.7267 C48.6038,80.0257 48.9428,80.0527 48.9428,80.0527 L49.7558,80.0257 C50.4858,79.9897 51.5018,79.9897 51.8698,79.9897 C52.9068,79.9897 53.3208,80.1247 54.1888,80.0527 L54.2888,79.9897 C54.2888,79.6577 53.9938,79.6577 53.7198,79.5537 C53.3828,79.3227 53.3828,79.4157 53.0818,79.0837 C52.8138,78.8177 52.5928,78.2457 52.5288,77.8417 C52.4308,77.1657 52.4838,75.6877 52.4838,75.6877 L52.5088,72.1367 Z" id="Fill-20"></path>
                <path d="M41.3418,76.6924 C39.9638,78.9094 38.4548,78.6794 36.1978,78.6794 L30.5518,78.6794 L30.5518,56.1184 C30.5518,54.8944 30.5828,54.6284 31.1528,54.0334 C31.5538,53.6524 31.8928,53.6524 32.1298,53.5264 C32.2648,53.4584 32.2228,53.1884 32.0978,53.1884 C31.6578,53.1884 30.4158,53.3564 29.2038,53.3564 C28.0318,53.3564 26.9198,53.1884 26.4418,53.1884 C26.3158,53.1884 26.2718,53.4584 26.4118,53.5264 C26.6438,53.6524 26.9858,53.6524 27.3908,54.0334 C27.9598,54.6284 27.9988,54.3314 27.9988,55.7764 L27.9988,77.0964 C27.9988,78.3024 27.9598,78.6084 27.3908,79.1784 C26.9858,79.5834 26.6438,79.5834 26.4118,79.7194 C26.2718,79.7854 26.3158,80.0254 26.4418,80.0254 L28.9408,80.0254 L39.1888,80.0254 C40.0338,80.0254 40.4628,79.7194 40.9768,78.6794 C41.1038,78.3384 41.2738,77.9774 41.3788,77.6394 C41.4098,77.4724 41.6468,76.8944 41.5438,76.7294 L41.3418,76.6924 Z" id="Fill-22"></path>
                <path d="M24.8643,67.7041 C24.4313,67.7041 23.1523,67.8351 21.9743,67.8351 C20.8023,67.8351 19.6903,67.7041 19.2153,67.7041 C19.0823,67.7041 19.0533,67.9351 19.1843,68.0081 C19.4163,68.1431 19.7543,68.1431 20.1603,68.5421 C20.7293,69.1151 20.7593,69.3831 20.7593,70.6271 L20.7593,78.6801 C17.7393,79.4521 12.9933,79.9891 9.5283,78.3381 C5.1903,76.2881 3.5773,71.6091 3.0393,68.2191 C2.5673,64.8551 2.6093,59.9821 6.1373,56.7471 C9.3913,53.7251 14.1043,53.5261 17.3253,54.3311 C19.7853,54.8941 20.7023,55.5051 22.0753,57.2211 C22.2453,57.3851 22.3493,57.6901 22.4383,57.8941 C22.5763,58.1621 22.6453,58.7641 22.7093,59.0361 L22.9203,59.0711 C22.9863,59.0711 23.1833,58.0291 23.2503,57.7601 C23.2503,57.7601 23.3563,57.0871 23.3853,56.7471 C23.4263,56.3061 23.4903,55.5741 23.4903,55.5741 C23.4903,55.2971 23.2503,55.2971 22.7813,55.1011 C22.1043,54.6921 18.9553,53.5581 15.9193,53.1561 C13.7063,52.9091 11.2483,52.9811 8.8583,53.8621 C4.3503,55.4801 1.9283,58.6351 0.7843,62.9361 C-0.2217,66.6471 0.4203,72.7621 3.3783,76.2521 C7.3123,80.9621 13.2323,80.7941 17.1673,80.4181 L20.7593,80.0531 C21.7363,80.0251 21.8093,80.0251 22.7483,80.0251 L23.0573,80.0251 C23.2803,80.0531 23.3563,80.0891 23.4543,79.9891 C23.5543,79.8531 23.4543,79.8221 23.3853,79.3831 C23.3143,78.9461 23.3143,78.2091 23.3143,77.9411 L23.3143,70.6271 C23.3143,69.3831 23.3563,69.1151 23.9283,68.5421 C24.3263,68.1431 24.6673,68.1431 24.9003,68.0081 C25.0323,67.9351 25.0023,67.7041 24.8643,67.7041" id="Fill-24"></path>
                <path d="M164.126,71.7129 C162.978,75.5159 160.385,78.3769 156.48,79.3519 C153.834,80.0159 150.306,79.2029 147.772,77.0439 C149.579,75.3929 150.916,73.2959 151.578,70.8819 C152.655,67.0079 151.74,61.0519 148.348,57.1489 C147.986,56.7479 147.617,56.3879 147.212,56.0549 C148.16,55.3689 149.277,54.7999 150.634,54.3619 C151.241,54.1359 151.578,54.0569 151.804,54.0339 C154.673,53.5259 158.243,54.2989 161.061,57.5249 C164.826,61.7319 165.327,67.8169 164.126,71.7129 M143.341,62.3629 C143.81,60.3869 144.534,58.7799 145.65,57.4729 L145.694,57.5249 C149.46,61.7319 149.961,67.8169 148.754,71.7129 C148.284,73.2769 147.551,74.6629 146.6,75.8549 C143.091,71.7949 142.446,66.2809 143.341,62.3629 M141.127,79.3519 C138.294,80.0529 134.457,79.1199 131.894,76.6209 C127.764,72.5189 127.021,66.5369 127.968,62.3629 C128.941,58.3039 130.96,55.7439 135.272,54.3619 C135.875,54.1359 136.207,54.0569 136.445,54.0339 C138.954,53.5819 142.028,54.1359 144.665,56.4849 C141.911,59.0469 140.68,62.4809 140.437,65.2229 C140.092,68.9139 141.223,74.0279 145.059,77.4069 C143.951,78.2909 142.637,78.9709 141.127,79.3519 M151.946,53.1119 C150.503,53.3569 148.788,53.7889 147.236,54.5929 C146.862,54.7999 146.534,55.0389 146.182,55.2829 C143.096,53.1739 139.349,52.7429 136.581,53.1119 C135.132,53.3569 133.423,53.7889 131.869,54.5929 C127.259,57.0869 125.379,61.7319 125.069,65.2229 C124.709,69.0609 125.921,74.4379 130.116,77.8029 C133.888,80.8259 139.135,81.1299 142.595,80.0259 C143.91,79.6029 145.107,78.9969 146.188,78.2749 C149.878,80.8259 154.714,81.0679 157.961,80.0259 C162.473,78.5779 165.768,75.2149 166.944,70.8819 C168.022,67.0079 167.111,61.0519 163.71,57.1489 C160.414,53.3889 155.41,52.6529 151.946,53.1119" id="Fill-26"></path>
                <path d="M188.8975,72.7197 C187.3855,76.8297 184.4625,78.5077 181.1035,79.0477 C178.4435,79.4517 175.6295,79.3147 173.0015,78.3027 L173.0015,54.8007 C176.5945,54.0937 183.1495,53.4927 186.5805,57.5607 C189.3345,60.8147 190.2145,69.1917 188.8975,72.7197 M190.3185,58.9347 C187.1895,53.4927 180.7695,53.1567 176.7435,53.3567 C176.7435,53.3567 176.4605,53.2887 174.4115,53.4587 C173.9695,53.4927 172.5265,53.5867 171.3715,53.4927 C170.8455,53.4587 169.8945,53.2547 168.9655,53.2547 C168.7895,53.2547 168.7215,53.5577 168.8615,53.6237 C169.0905,53.7547 169.4665,53.7547 169.8355,54.1357 C170.4035,54.7297 170.4765,55.2697 170.4765,56.2117 L170.4765,77.1977 C170.4765,78.4077 170.4035,78.7037 169.8355,79.2817 C169.4665,79.6787 169.0905,79.6787 168.8615,79.8227 C168.7215,79.8867 168.7585,80.1197 168.8905,80.1197 C169.8355,80.0887 170.8455,79.8867 171.3715,79.8867 C171.8885,79.8867 173.7615,79.9897 173.7615,79.9897 L176.3255,80.2277 C180.9015,80.6607 186.9865,80.0527 190.3185,74.8487 C193.0065,70.6367 192.6755,63.0327 190.3185,58.9347" id="Fill-28"></path>
                <path d="M115.0625,3.499 L115.0625,4 L115.6985,4 L115.6985,7.283 L115.3275,8.364 L103.2745,8.364 L103.2745,6.689 L102.8665,6.689 L102.8665,6.05 L103.5685,6.05 L103.5685,5.832 L101.9625,4.375 L100.3575,5.895 L100.3575,6.05 L101.0575,6.05 L101.0575,6.689 L100.6505,6.689 L100.6505,8.364 L77.0835,8.364 L76.7085,7.283 L76.7085,4 L77.3495,4 L77.3495,3.388 L74.4915,0.799 L71.6405,3.499 L71.6405,4 L72.2795,4 L72.2795,7.283 L71.9035,8.364 L63.8785,8.364 L63.8785,6.689 L63.4725,6.689 L63.4725,6.05 L64.1715,6.05 L64.1715,5.832 L62.5655,4.375 L60.9605,5.895 L60.9605,6.05 L61.6645,6.05 L61.6645,6.689 L61.2535,6.689 L61.2535,8.364 L57.9435,8.364 L48.2395,24.668 L48.2395,25.412 L85.1145,25.412 L85.1145,16.077 L87.8675,17.87 L96.2035,10.063 L104.5475,17.87 L107.2985,16.092 L107.2985,25.412 L144.3145,25.412 L144.3145,24.668 L134.6115,8.364 L131.2215,8.364 L131.2215,6.689 L130.8125,6.689 L130.8125,6.05 L131.5145,6.05 L131.5145,5.832 L129.9075,4.375 L128.3015,5.895 L128.3015,6.05 L129.0025,6.05 L129.0025,6.689 L128.5955,6.689 L128.5955,8.364 L120.5035,8.364 L120.1315,7.283 L120.1315,4 L120.7685,4 L120.7685,3.388 L117.9145,0.799 L115.0625,3.499 Z M118.1635,7.086 L119.6315,7.086 L119.6315,4.375 L118.1635,4.375 L118.1635,7.086 Z M116.1905,7.086 L117.6585,7.086 L117.6585,4.375 L116.1905,4.375 L116.1905,7.086 Z M74.7425,7.086 L76.2115,7.086 L76.2115,4.375 L74.7425,4.375 L74.7425,7.086 Z M72.7675,7.086 L74.2395,7.086 L74.2395,4.375 L72.7675,4.375 L72.7675,7.086 Z M129.4125,6.689 L130.4025,6.689 L130.4025,6.05 L129.4125,6.05 L129.4125,6.689 Z M101.4665,6.689 L102.4585,6.689 L102.4585,6.05 L101.4665,6.05 L101.4665,6.689 Z M62.0715,6.689 L63.0625,6.689 L63.0625,6.05 L62.0715,6.05 L62.0715,6.689 Z M88.6615,18.181 L103.7495,18.181 L96.2065,11.114 L88.6615,18.181 Z M104.6195,18.742 L104.6195,35.559 L106.5235,35.559 L106.5235,17.511 L104.6195,18.742 Z M85.8865,35.559 L87.7925,35.559 L87.7925,18.742 L85.8865,17.511 L85.8865,35.559 Z M107.2875,35.559 L141.7785,35.559 L141.7785,26.184 L107.2875,26.184 L107.2875,35.559 Z M130.0095,31.484 L136.7445,31.484 L136.7445,27.67 L130.0095,27.67 L130.0095,31.484 Z M114.6705,31.484 L121.4035,31.484 L121.4035,27.67 L114.6705,27.67 L114.6705,31.484 Z M50.7725,35.559 L85.1155,35.559 L85.1155,26.184 L50.7725,26.184 L50.7725,35.559 Z M71.1195,31.484 L77.8555,31.484 L77.8555,27.67 L71.1195,27.67 L71.1195,31.484 Z M55.7815,31.484 L62.5135,31.484 L62.5135,27.67 L55.7815,27.67 L55.7815,31.484 Z" id="Fill-30"></path>
            </g>
        </g>
    </g>
</svg>