<?xml version="1.0" standalone="no"?>
<!DOCTYPE svg PUBLIC "-//W3C//DTD SVG 20010904//EN"
 "http://www.w3.org/TR/2001/REC-SVG-20010904/DTD/svg10.dtd">
<svg version="1.0" xmlns="http://www.w3.org/2000/svg"
 width="1000.000000pt" height="1000.000000pt" viewBox="0 0 1000.000000 1000.000000"
 preserveAspectRatio="xMidYMid meet">
<metadata>
Created by potrace 1.11, written by Peter Selinger 2001-2013
</metadata>
<g transform="translate(0.000000,1000.000000) scale(0.100000,-0.100000)"
fill="#000000" stroke="none">
<path d="M0 5000 l0 -5000 5000 0 5000 0 0 5000 0 5000 -5000 0 -5000 0 0
-5000z m4828 2638 l-3 -333 -532 -3 -533 -2 0 -260 0 -260 478 -2 477 -3 3
-347 2 -348 -480 0 -480 0 0 -393 c0 -299 -3 -397 -12 -410 -12 -16 -49 -17
-468 -15 l-455 3 -3 1340 c-1 737 0 1346 3 1353 3 9 214 12 1005 12 l1000 0
-2 -332z m2380 0 l-3 -333 -532 -3 -533 -2 0 -260 0 -260 478 -2 477 -3 3
-347 2 -348 -480 0 -480 0 0 -393 c0 -299 -3 -397 -12 -410 -12 -16 -49 -17
-468 -15 l-455 3 -3 1340 c-1 737 0 1346 3 1353 3 9 214 12 1005 12 l1000 0
-2 -332z m-3068 -2999 c197 -23 407 -97 538 -189 133 -93 241 -235 286 -375
40 -126 38 -319 -5 -455 -92 -292 -312 -516 -972 -995 -37 -27 -63 -51 -57
-53 5 -2 133 3 283 12 475 28 756 37 776 27 14 -8 20 -27 24 -78 11 -113 8
-632 -3 -654 -10 -19 -34 -19 -1180 -19 l-1170 0 0 37 c0 34 16 52 283 322
377 381 636 664 843 921 195 241 280 431 255 571 -28 163 -148 247 -336 237
-65 -3 -94 -10 -145 -35 -76 -37 -95 -53 -138 -111 -38 -53 -68 -142 -81 -240
-5 -41 -13 -77 -16 -80 -11 -11 -209 107 -514 306 l-113 74 5 38 c6 49 82 209
138 291 117 174 299 310 512 383 220 76 500 99 787 65z m2642 -4 c297 -45 520
-155 718 -354 190 -191 313 -436 373 -743 29 -152 31 -501 3 -648 -59 -316
-168 -547 -346 -734 -243 -256 -546 -376 -955 -376 -511 0 -898 213 -1134 625
-186 325 -245 768 -160 1198 102 512 421 878 869 998 183 48 442 62 632 34z"/>
<path d="M6459 3857 c-118 -44 -177 -121 -222 -290 -19 -73 -21 -109 -22 -317
0 -257 11 -340 62 -467 33 -83 105 -163 174 -192 64 -28 175 -31 248 -6 62 20
135 84 166 144 74 147 103 399 75 659 -35 319 -150 470 -364 479 -51 2 -94 -2
-117 -10z"/>
</g>
</svg>
